<?xml version="1.0" encoding="UTF-8" standalone="no"?><svg xmlns="http://www.w3.org/2000/svg" xmlns:xlink="http://www.w3.org/1999/xlink" contentStyleType="text/css" height="560px" preserveAspectRatio="none" style="width:859px;height:560px;background:#FFFFFF;" version="1.1" viewBox="0 0 859 560" width="859px" zoomAndPan="magnify"><defs/><g><!--class AbstractFactory--><g id="elem_AbstractFactory"><rect codeLine="3" fill="#F1F1F1" height="72.5938" id="AbstractFactory" rx="2.5" ry="2.5" style="stroke:#181818;stroke-width:0.5;" width="281" x="293.2234" y="213"/><ellipse cx="373.4734" cy="229" fill="#B4A7E5" rx="11" ry="11" style="stroke:#181818;stroke-width:1.0;"/><path d="M374.4265,225.7813 L376.1453,225.7813 C376.5359,225.7813 376.7234,225.75 376.8484,225.6719 C377.114,225.5156 377.2546,225.2344 377.2546,224.9375 C377.2546,224.6719 377.1453,224.4063 376.9109,224.2344 C376.739,224.125 376.5984,224.0938 376.1453,224.0938 L371.0046,224.0938 C370.5671,224.0938 370.4421,224.1094 370.2859,224.2031 C370.0359,224.3594 369.8796,224.6563 369.8796,224.9375 C369.8796,225.2188 370.0203,225.4688 370.239,225.6406 C370.3953,225.75 370.5828,225.7813 371.0046,225.7813 L372.7234,225.7813 L372.7234,232.2969 L371.0046,232.2969 C370.5671,232.2969 370.4421,232.3125 370.2859,232.4219 C370.0359,232.5781 369.8796,232.8594 369.8796,233.1563 C369.8796,233.4063 370.0203,233.6719 370.239,233.8281 C370.3953,233.9531 370.5984,234 371.0046,234 L376.1453,234 C376.8953,234 377.2546,233.7188 377.2546,233.1563 C377.2546,232.875 377.1453,232.625 376.9109,232.4531 C376.739,232.3281 376.5984,232.2969 376.1453,232.2969 L374.4265,232.2969 L374.4265,225.7813 Z " fill="#000000"/><text fill="#000000" font-family="sans-serif" font-size="14" font-style="italic" lengthAdjust="spacing" textLength="112" x="393.9734" y="233.8467">AbstractFactory</text><line style="stroke:#181818;stroke-width:0.5;" x1="294.2234" x2="573.2234" y1="245" y2="245"/><text fill="#000000" font-family="sans-serif" font-size="14" lengthAdjust="spacing" textLength="269" x="299.2234" y="261.9951">+AbstractProductA CreateProductA()</text><text fill="#000000" font-family="sans-serif" font-size="14" lengthAdjust="spacing" textLength="269" x="299.2234" y="278.292">+AbstractProductB CreateProductB()</text></g><!--class AbstractProductA--><g id="elem_AbstractProductA"><rect codeLine="8" fill="#F1F1F1" height="32" id="AbstractProductA" rx="2.5" ry="2.5" style="stroke:#181818;stroke-width:0.5;" width="155" x="103.2233" y="233.5"/><ellipse cx="118.2233" cy="249.5" fill="#B4A7E5" rx="11" ry="11" style="stroke:#181818;stroke-width:1.0;"/><path d="M119.1764,246.2813 L120.8952,246.2813 C121.2858,246.2813 121.4733,246.25 121.5983,246.1719 C121.8639,246.0156 122.0046,245.7344 122.0046,245.4375 C122.0046,245.1719 121.8952,244.9063 121.6608,244.7344 C121.4889,244.625 121.3483,244.5938 120.8952,244.5938 L115.7546,244.5938 C115.3171,244.5938 115.1921,244.6094 115.0358,244.7031 C114.7858,244.8594 114.6296,245.1563 114.6296,245.4375 C114.6296,245.7188 114.7702,245.9688 114.9889,246.1406 C115.1452,246.25 115.3327,246.2813 115.7546,246.2813 L117.4733,246.2813 L117.4733,252.7969 L115.7546,252.7969 C115.3171,252.7969 115.1921,252.8125 115.0358,252.9219 C114.7858,253.0781 114.6296,253.3594 114.6296,253.6563 C114.6296,253.9063 114.7702,254.1719 114.9889,254.3281 C115.1452,254.4531 115.3483,254.5 115.7546,254.5 L120.8952,254.5 C121.6452,254.5 122.0046,254.2188 122.0046,253.6563 C122.0046,253.375 121.8952,253.125 121.6608,252.9531 C121.4889,252.8281 121.3483,252.7969 120.8952,252.7969 L119.1764,252.7969 L119.1764,246.2813 Z " fill="#000000"/><text fill="#000000" font-family="sans-serif" font-size="14" font-style="italic" lengthAdjust="spacing" textLength="123" x="132.2233" y="254.3467">AbstractProductA</text></g><!--class AbstractProductB--><g id="elem_AbstractProductB"><rect codeLine="9" fill="#F1F1F1" height="32" id="AbstractProductB" rx="2.5" ry="2.5" style="stroke:#181818;stroke-width:0.5;" width="155" x="609.2234" y="233.5"/><ellipse cx="624.2234" cy="249.5" fill="#B4A7E5" rx="11" ry="11" style="stroke:#181818;stroke-width:1.0;"/><path d="M625.1765,246.2813 L626.8953,246.2813 C627.2859,246.2813 627.4734,246.25 627.5984,246.1719 C627.864,246.0156 628.0047,245.7344 628.0047,245.4375 C628.0047,245.1719 627.8953,244.9063 627.6609,244.7344 C627.489,244.625 627.3484,244.5938 626.8953,244.5938 L621.7547,244.5938 C621.3172,244.5938 621.1922,244.6094 621.0359,244.7031 C620.7859,244.8594 620.6297,245.1563 620.6297,245.4375 C620.6297,245.7188 620.7703,245.9688 620.989,246.1406 C621.1453,246.25 621.3328,246.2813 621.7547,246.2813 L623.4734,246.2813 L623.4734,252.7969 L621.7547,252.7969 C621.3172,252.7969 621.1922,252.8125 621.0359,252.9219 C620.7859,253.0781 620.6297,253.3594 620.6297,253.6563 C620.6297,253.9063 620.7703,254.1719 620.989,254.3281 C621.1453,254.4531 621.3484,254.5 621.7547,254.5 L626.8953,254.5 C627.6453,254.5 628.0047,254.2188 628.0047,253.6563 C628.0047,253.375 627.8953,253.125 627.6609,252.9531 C627.489,252.8281 627.3484,252.7969 626.8953,252.7969 L625.1765,252.7969 L625.1765,246.2813 Z " fill="#000000"/><text fill="#000000" font-family="sans-serif" font-size="14" font-style="italic" lengthAdjust="spacing" textLength="123" x="638.2234" y="254.3467">AbstractProductB</text></g><!--class ConcreteFactory1--><g id="elem_ConcreteFactory1"><rect codeLine="11" fill="#F1F1F1" height="96.8906" id="ConcreteFactory1" rx="2.5" ry="2.5" style="stroke:#181818;stroke-width:0.5;" width="281" x="130.2234" y="347"/><ellipse cx="201.4734" cy="363" fill="#ADD1B2" rx="11" ry="11" style="stroke:#181818;stroke-width:1.0;"/><path d="M203.8172,358.6719 C202.8797,358.2344 202.2859,358.0938 201.4109,358.0938 C198.7859,358.0938 196.7859,360.1719 196.7859,362.8906 L196.7859,364.0156 C196.7859,366.5938 198.8953,368.4844 201.7859,368.4844 C203.0047,368.4844 204.1609,368.1875 204.9109,367.6406 C205.489,367.2344 205.8172,366.7813 205.8172,366.3906 C205.8172,365.9375 205.4265,365.5469 204.9578,365.5469 C204.739,365.5469 204.5359,365.625 204.3484,365.8125 C203.8953,366.2969 203.8953,366.2969 203.7078,366.3906 C203.2859,366.6563 202.5984,366.7813 201.8328,366.7813 C199.7859,366.7813 198.489,365.6875 198.489,363.9844 L198.489,362.8906 C198.489,361.1094 199.739,359.7969 201.4734,359.7969 C202.0515,359.7969 202.6609,359.9531 203.1297,360.2031 C203.614,360.4844 203.7859,360.7031 203.8797,361.1094 C203.9422,361.5156 203.9734,361.6406 204.114,361.7656 C204.2547,361.9063 204.489,362.0156 204.7078,362.0156 C204.9734,362.0156 205.239,361.875 205.4109,361.6563 C205.5203,361.5 205.5515,361.3125 205.5515,360.8906 L205.5515,359.4688 C205.5515,359.0313 205.5359,358.9063 205.4422,358.75 C205.2859,358.4844 205.0047,358.3438 204.7078,358.3438 C204.4109,358.3438 204.2078,358.4375 203.989,358.75 L203.8172,358.6719 Z " fill="#000000"/><text fill="#000000" font-family="sans-serif" font-size="14" lengthAdjust="spacing" textLength="130" x="221.9734" y="367.8467">ConcreteFactory1</text><line style="stroke:#181818;stroke-width:0.5;" x1="131.2234" x2="410.2234" y1="379" y2="379"/><text fill="#000000" font-family="sans-serif" font-size="14" lengthAdjust="spacing" textLength="15" x="136.2234" y="395.9951">...</text><line style="stroke:#181818;stroke-width:0.5;" x1="131.2234" x2="410.2234" y1="403.2969" y2="403.2969"/><text fill="#000000" font-family="sans-serif" font-size="14" lengthAdjust="spacing" textLength="269" x="136.2234" y="420.292">+AbstractProductA CreateProductA()</text><text fill="#000000" font-family="sans-serif" font-size="14" lengthAdjust="spacing" textLength="269" x="136.2234" y="436.5889">+AbstractProductB CreateProductB()</text></g><!--class ConcreteFactory2--><g id="elem_ConcreteFactory2"><rect codeLine="17" fill="#F1F1F1" height="96.8906" id="ConcreteFactory2" rx="2.5" ry="2.5" style="stroke:#181818;stroke-width:0.5;" width="281" x="446.2234" y="347"/><ellipse cx="517.9734" cy="363" fill="#ADD1B2" rx="11" ry="11" style="stroke:#181818;stroke-width:1.0;"/><path d="M520.3172,358.6719 C519.3797,358.2344 518.7859,358.0938 517.9109,358.0938 C515.2859,358.0938 513.2859,360.1719 513.2859,362.8906 L513.2859,364.0156 C513.2859,366.5938 515.3953,368.4844 518.2859,368.4844 C519.5047,368.4844 520.6609,368.1875 521.4109,367.6406 C521.989,367.2344 522.3172,366.7813 522.3172,366.3906 C522.3172,365.9375 521.9265,365.5469 521.4578,365.5469 C521.239,365.5469 521.0359,365.625 520.8484,365.8125 C520.3953,366.2969 520.3953,366.2969 520.2078,366.3906 C519.7859,366.6563 519.0984,366.7813 518.3328,366.7813 C516.2859,366.7813 514.989,365.6875 514.989,363.9844 L514.989,362.8906 C514.989,361.1094 516.239,359.7969 517.9734,359.7969 C518.5515,359.7969 519.1609,359.9531 519.6297,360.2031 C520.114,360.4844 520.2859,360.7031 520.3797,361.1094 C520.4422,361.5156 520.4734,361.6406 520.614,361.7656 C520.7547,361.9063 520.989,362.0156 521.2078,362.0156 C521.4734,362.0156 521.739,361.875 521.9109,361.6563 C522.0203,361.5 522.0515,361.3125 522.0515,360.8906 L522.0515,359.4688 C522.0515,359.0313 522.0359,358.9063 521.9422,358.75 C521.7859,358.4844 521.5047,358.3438 521.2078,358.3438 C520.9109,358.3438 520.7078,358.4375 520.489,358.75 L520.3172,358.6719 Z " fill="#000000"/><text fill="#000000" font-family="sans-serif" font-size="14" lengthAdjust="spacing" textLength="129" x="538.4734" y="367.8467">ConcreteFactory2</text><line style="stroke:#181818;stroke-width:0.5;" x1="447.2234" x2="726.2234" y1="379" y2="379"/><text fill="#000000" font-family="sans-serif" font-size="14" lengthAdjust="spacing" textLength="15" x="452.2234" y="395.9951">...</text><line style="stroke:#181818;stroke-width:0.5;" x1="447.2234" x2="726.2234" y1="403.2969" y2="403.2969"/><text fill="#000000" font-family="sans-serif" font-size="14" lengthAdjust="spacing" textLength="269" x="452.2234" y="420.292">+AbstractProductA CreateProductA()</text><text fill="#000000" font-family="sans-serif" font-size="14" lengthAdjust="spacing" textLength="269" x="452.2234" y="436.5889">+AbstractProductB CreateProductB()</text></g><!--class Client--><g id="elem_Client"><rect codeLine="23" fill="#F1F1F1" height="129.4844" id="Client" rx="2.5" ry="2.5" style="stroke:#181818;stroke-width:0.5;" width="219" x="324.2234" y="7"/><ellipse cx="407.9734" cy="23" fill="#ADD1B2" rx="11" ry="11" style="stroke:#181818;stroke-width:1.0;"/><path d="M410.3171,18.6719 C409.3796,18.2344 408.7859,18.0938 407.9109,18.0938 C405.2859,18.0938 403.2859,20.1719 403.2859,22.8906 L403.2859,24.0156 C403.2859,26.5938 405.3953,28.4844 408.2859,28.4844 C409.5046,28.4844 410.6609,28.1875 411.4109,27.6406 C411.989,27.2344 412.3171,26.7813 412.3171,26.3906 C412.3171,25.9375 411.9265,25.5469 411.4578,25.5469 C411.239,25.5469 411.0359,25.625 410.8484,25.8125 C410.3953,26.2969 410.3953,26.2969 410.2078,26.3906 C409.7859,26.6563 409.0984,26.7813 408.3328,26.7813 C406.2859,26.7813 404.989,25.6875 404.989,23.9844 L404.989,22.8906 C404.989,21.1094 406.239,19.7969 407.9734,19.7969 C408.5515,19.7969 409.1609,19.9531 409.6296,20.2031 C410.114,20.4844 410.2859,20.7031 410.3796,21.1094 C410.4421,21.5156 410.4734,21.6406 410.614,21.7656 C410.7546,21.9063 410.989,22.0156 411.2078,22.0156 C411.4734,22.0156 411.739,21.875 411.9109,21.6563 C412.0203,21.5 412.0515,21.3125 412.0515,20.8906 L412.0515,19.4688 C412.0515,19.0313 412.0359,18.9063 411.9421,18.75 C411.7859,18.4844 411.5046,18.3438 411.2078,18.3438 C410.9109,18.3438 410.7078,18.4375 410.489,18.75 L410.3171,18.6719 Z " fill="#000000"/><text fill="#000000" font-family="sans-serif" font-size="14" lengthAdjust="spacing" textLength="43" x="428.4734" y="27.8467">Client</text><line style="stroke:#181818;stroke-width:0.5;" x1="325.2234" x2="542.2234" y1="39" y2="39"/><text fill="#000000" font-family="sans-serif" font-size="14" lengthAdjust="spacing" textLength="180" x="330.2234" y="55.9951">-factory:AbstractFactory</text><text fill="#000000" font-family="sans-serif" font-size="14" lengthAdjust="spacing" textLength="207" x="330.2234" y="72.292">-productA:AbstractProductA</text><text fill="#000000" font-family="sans-serif" font-size="14" lengthAdjust="spacing" textLength="207" x="330.2234" y="88.5889">-productB:AbstractProductB</text><text fill="#000000" font-family="sans-serif" font-size="14" lengthAdjust="spacing" textLength="15" x="330.2234" y="104.8857">...</text><line style="stroke:#181818;stroke-width:0.5;" x1="325.2234" x2="542.2234" y1="112.1875" y2="112.1875"/><text fill="#000000" font-family="sans-serif" font-size="14" lengthAdjust="spacing" textLength="192" x="330.2234" y="129.1826">+Client(f:AbstractFactory)</text></g><!--class ProductA1--><g id="elem_ProductA1"><rect fill="#F1F1F1" height="32" id="ProductA1" rx="2.5" ry="2.5" style="stroke:#181818;stroke-width:0.5;" width="107" x="122.2234" y="521"/><ellipse cx="137.2234" cy="537" fill="#ADD1B2" rx="11" ry="11" style="stroke:#181818;stroke-width:1.0;"/><path d="M139.5672,532.6719 C138.6297,532.2344 138.0359,532.0938 137.1609,532.0938 C134.5359,532.0938 132.5359,534.1719 132.5359,536.8906 L132.5359,538.0156 C132.5359,540.5938 134.6453,542.4844 137.5359,542.4844 C138.7547,542.4844 139.9109,542.1875 140.6609,541.6406 C141.239,541.2344 141.5672,540.7813 141.5672,540.3906 C141.5672,539.9375 141.1765,539.5469 140.7078,539.5469 C140.489,539.5469 140.2859,539.625 140.0984,539.8125 C139.6453,540.2969 139.6453,540.2969 139.4578,540.3906 C139.0359,540.6563 138.3484,540.7813 137.5828,540.7813 C135.5359,540.7813 134.239,539.6875 134.239,537.9844 L134.239,536.8906 C134.239,535.1094 135.489,533.7969 137.2234,533.7969 C137.8015,533.7969 138.4109,533.9531 138.8797,534.2031 C139.364,534.4844 139.5359,534.7031 139.6297,535.1094 C139.6922,535.5156 139.7234,535.6406 139.864,535.7656 C140.0047,535.9063 140.239,536.0156 140.4578,536.0156 C140.7234,536.0156 140.989,535.875 141.1609,535.6563 C141.2703,535.5 141.3015,535.3125 141.3015,534.8906 L141.3015,533.4688 C141.3015,533.0313 141.2859,532.9063 141.1922,532.75 C141.0359,532.4844 140.7547,532.3438 140.4578,532.3438 C140.1609,532.3438 139.9578,532.4375 139.739,532.75 L139.5672,532.6719 Z " fill="#000000"/><text fill="#000000" font-family="sans-serif" font-size="14" lengthAdjust="spacing" textLength="75" x="151.2234" y="541.8467">ProductA1</text></g><!--class ProductA2--><g id="elem_ProductA2"><rect fill="#F1F1F1" height="32" id="ProductA2" rx="2.5" ry="2.5" style="stroke:#181818;stroke-width:0.5;" width="106" x="304.7234" y="521"/><ellipse cx="319.7234" cy="537" fill="#ADD1B2" rx="11" ry="11" style="stroke:#181818;stroke-width:1.0;"/><path d="M322.0671,532.6719 C321.1296,532.2344 320.5359,532.0938 319.6609,532.0938 C317.0359,532.0938 315.0359,534.1719 315.0359,536.8906 L315.0359,538.0156 C315.0359,540.5938 317.1453,542.4844 320.0359,542.4844 C321.2546,542.4844 322.4109,542.1875 323.1609,541.6406 C323.739,541.2344 324.0671,540.7813 324.0671,540.3906 C324.0671,539.9375 323.6765,539.5469 323.2078,539.5469 C322.989,539.5469 322.7859,539.625 322.5984,539.8125 C322.1453,540.2969 322.1453,540.2969 321.9578,540.3906 C321.5359,540.6563 320.8484,540.7813 320.0828,540.7813 C318.0359,540.7813 316.739,539.6875 316.739,537.9844 L316.739,536.8906 C316.739,535.1094 317.989,533.7969 319.7234,533.7969 C320.3015,533.7969 320.9109,533.9531 321.3796,534.2031 C321.864,534.4844 322.0359,534.7031 322.1296,535.1094 C322.1921,535.5156 322.2234,535.6406 322.364,535.7656 C322.5046,535.9063 322.739,536.0156 322.9578,536.0156 C323.2234,536.0156 323.489,535.875 323.6609,535.6563 C323.7703,535.5 323.8015,535.3125 323.8015,534.8906 L323.8015,533.4688 C323.8015,533.0313 323.7859,532.9063 323.6921,532.75 C323.5359,532.4844 323.2546,532.3438 322.9578,532.3438 C322.6609,532.3438 322.4578,532.4375 322.239,532.75 L322.0671,532.6719 Z " fill="#000000"/><text fill="#000000" font-family="sans-serif" font-size="14" lengthAdjust="spacing" textLength="74" x="333.7234" y="541.8467">ProductA2</text></g><!--class ProductB1--><g id="elem_ProductB1"><rect fill="#F1F1F1" height="32" id="ProductB1" rx="2.5" ry="2.5" style="stroke:#181818;stroke-width:0.5;" width="107" x="466.2234" y="521"/><ellipse cx="481.2234" cy="537" fill="#ADD1B2" rx="11" ry="11" style="stroke:#181818;stroke-width:1.0;"/><path d="M483.5671,532.6719 C482.6296,532.2344 482.0359,532.0938 481.1609,532.0938 C478.5359,532.0938 476.5359,534.1719 476.5359,536.8906 L476.5359,538.0156 C476.5359,540.5938 478.6453,542.4844 481.5359,542.4844 C482.7546,542.4844 483.9109,542.1875 484.6609,541.6406 C485.239,541.2344 485.5671,540.7813 485.5671,540.3906 C485.5671,539.9375 485.1765,539.5469 484.7078,539.5469 C484.489,539.5469 484.2859,539.625 484.0984,539.8125 C483.6453,540.2969 483.6453,540.2969 483.4578,540.3906 C483.0359,540.6563 482.3484,540.7813 481.5828,540.7813 C479.5359,540.7813 478.239,539.6875 478.239,537.9844 L478.239,536.8906 C478.239,535.1094 479.489,533.7969 481.2234,533.7969 C481.8015,533.7969 482.4109,533.9531 482.8796,534.2031 C483.364,534.4844 483.5359,534.7031 483.6296,535.1094 C483.6921,535.5156 483.7234,535.6406 483.864,535.7656 C484.0046,535.9063 484.239,536.0156 484.4578,536.0156 C484.7234,536.0156 484.989,535.875 485.1609,535.6563 C485.2703,535.5 485.3015,535.3125 485.3015,534.8906 L485.3015,533.4688 C485.3015,533.0313 485.2859,532.9063 485.1921,532.75 C485.0359,532.4844 484.7546,532.3438 484.4578,532.3438 C484.1609,532.3438 483.9578,532.4375 483.739,532.75 L483.5671,532.6719 Z " fill="#000000"/><text fill="#000000" font-family="sans-serif" font-size="14" lengthAdjust="spacing" textLength="75" x="495.2234" y="541.8467">ProductB1</text></g><!--class ProductB2--><g id="elem_ProductB2"><rect fill="#F1F1F1" height="32" id="ProductB2" rx="2.5" ry="2.5" style="stroke:#181818;stroke-width:0.5;" width="106" x="618.7234" y="521"/><ellipse cx="633.7234" cy="537" fill="#ADD1B2" rx="11" ry="11" style="stroke:#181818;stroke-width:1.0;"/><path d="M636.0672,532.6719 C635.1297,532.2344 634.5359,532.0938 633.6609,532.0938 C631.0359,532.0938 629.0359,534.1719 629.0359,536.8906 L629.0359,538.0156 C629.0359,540.5938 631.1453,542.4844 634.0359,542.4844 C635.2547,542.4844 636.4109,542.1875 637.1609,541.6406 C637.739,541.2344 638.0672,540.7813 638.0672,540.3906 C638.0672,539.9375 637.6765,539.5469 637.2078,539.5469 C636.989,539.5469 636.7859,539.625 636.5984,539.8125 C636.1453,540.2969 636.1453,540.2969 635.9578,540.3906 C635.5359,540.6563 634.8484,540.7813 634.0828,540.7813 C632.0359,540.7813 630.739,539.6875 630.739,537.9844 L630.739,536.8906 C630.739,535.1094 631.989,533.7969 633.7234,533.7969 C634.3015,533.7969 634.9109,533.9531 635.3797,534.2031 C635.864,534.4844 636.0359,534.7031 636.1297,535.1094 C636.1922,535.5156 636.2234,535.6406 636.364,535.7656 C636.5047,535.9063 636.739,536.0156 636.9578,536.0156 C637.2234,536.0156 637.489,535.875 637.6609,535.6563 C637.7703,535.5 637.8015,535.3125 637.8015,534.8906 L637.8015,533.4688 C637.8015,533.0313 637.7859,532.9063 637.6922,532.75 C637.5359,532.4844 637.2547,532.3438 636.9578,532.3438 C636.6609,532.3438 636.4578,532.4375 636.239,532.75 L636.0672,532.6719 Z " fill="#000000"/><text fill="#000000" font-family="sans-serif" font-size="14" lengthAdjust="spacing" textLength="74" x="647.7234" y="541.8467">ProductB2</text></g><!--link Client to AbstractFactory--><g id="link_Client_AbstractFactory"><path codeLine="32" d="M433.7234,136.04 C433.7234,160.014 433.7234,186.619 433.7234,207.93 " fill="none" id="Client-to-AbstractFactory" style="stroke:#181818;stroke-width:1.0;"/><polygon fill="#181818" points="433.7234,212.95,437.7234,203.95,433.7234,207.95,429.7234,203.95,433.7234,212.95" style="stroke:#181818;stroke-width:1.0;"/><text fill="#000000" font-family="sans-serif" font-size="13" lengthAdjust="spacing" textLength="58" x="434.7234" y="179.0669">«import»</text></g><!--link Client to AbstractProductA--><g id="link_Client_AbstractProductA"><path codeLine="33" d="M342.3844,136.04 C294.0254,169.681 238.2204,208.502 206.4404,230.61 " fill="none" id="Client-to-AbstractProductA" style="stroke:#181818;stroke-width:1.0;"/><polygon fill="#181818" points="202.3074,233.485,211.9796,231.6282,206.4117,230.6293,207.4105,225.0613,202.3074,233.485" style="stroke:#181818;stroke-width:1.0;"/><text fill="#000000" font-family="sans-serif" font-size="13" lengthAdjust="spacing" textLength="58" x="293.7234" y="179.0669">«import»</text></g><!--link Client to AbstractProductB--><g id="link_Client_AbstractProductB"><path codeLine="34" d="M525.0624,136.04 C573.4204,169.681 629.2264,208.502 661.0064,230.61 " fill="none" id="Client-to-AbstractProductB" style="stroke:#181818;stroke-width:1.0;"/><polygon fill="#181818" points="665.1394,233.485,660.0343,225.0625,661.0345,230.6303,655.4667,231.6304,665.1394,233.485" style="stroke:#181818;stroke-width:1.0;"/><text fill="#000000" font-family="sans-serif" font-size="13" lengthAdjust="spacing" textLength="58" x="591.7234" y="179.0669">«import»</text></g><!--link AbstractProductA to AbstractProductB--><!--link AbstractProductA to ConcreteFactory1--><!--link AbstractProductB to ConcreteFactory2--><!--reverse link AbstractFactory to ConcreteFactory1--><g id="link_AbstractFactory_ConcreteFactory1"><path codeLine="40" d="M378.4184,299.358 C361.0704,314.684 341.9504,331.575 324.6954,346.819 " fill="none" id="AbstractFactory-backto-ConcreteFactory1" style="stroke:#181818;stroke-width:1.0;stroke-dasharray:7.0,7.0;"/><polygon fill="none" points="373.8074,294.091,393.4314,286.096,383.0774,304.583,373.8074,294.091" style="stroke:#181818;stroke-width:1.0;"/></g><!--reverse link AbstractFactory to ConcreteFactory2--><g id="link_AbstractFactory_ConcreteFactory2"><path codeLine="41" d="M486.3804,300.059 C502.4654,315.198 520.1124,331.807 536.0624,346.819 " fill="none" id="AbstractFactory-backto-ConcreteFactory2" style="stroke:#181818;stroke-width:1.0;stroke-dasharray:7.0,7.0;"/><polygon fill="none" points="481.3104,304.9,471.5434,286.096,490.9054,294.705,481.3104,304.9" style="stroke:#181818;stroke-width:1.0;"/></g><!--link ConcreteFactory1 to ConcreteFactory2--><!--reverse link AbstractProductA to ProductA1--><g id="link_AbstractProductA_ProductA1"><path codeLine="44" d="M101.6068,273.494 C81.5781,283.273 62.4432,296.971 50.7233,316 C9.9348,382.224 6,427.367 50.7233,491 C66.9036,514.0218 96.051,525.321 122.1314,530.8421 " fill="none" id="AbstractProductA-backto-ProductA1" style="stroke:#181818;stroke-width:1.0;stroke-dasharray:7.0,7.0;"/><polygon fill="none" points="98.9249,267.027,120.0644,265.573,104.4456,279.893,98.9249,267.027" style="stroke:#181818;stroke-width:1.0;"/></g><!--reverse link AbstractProductA to ProductA2--><g id="link_AbstractProductA_ProductA2"><path codeLine="45" d="M152.1584,280.602 C137.2664,298.412 120.5594,322.275 112.7233,347 C99.6982,388.096 90.6418,406.973 112.7233,444 C132.9694,477.9495 238.8774,508.2506 304.6474,524.179 " fill="none" id="AbstractProductA-backto-ProductA2" style="stroke:#181818;stroke-width:1.0;stroke-dasharray:7.0,7.0;"/><polygon fill="none" points="147.0144,275.852,165.5314,265.55,157.4804,285.151,147.0144,275.852" style="stroke:#181818;stroke-width:1.0;"/></g><!--reverse link AbstractProductB to ProductB1--><g id="link_AbstractProductB_ProductB1"><path codeLine="47" d="M711.5084,281.802 C724.1344,299.767 738.1744,323.391 744.7234,347 C761.9114,408.962 777.9594,447.372 730.7234,491 C724.8844,496.3924 634.0164,514.4193 573.4484,525.9542 " fill="none" id="AbstractProductB-backto-ProductB1" style="stroke:#181818;stroke-width:1.0;stroke-dasharray:7.0,7.0;"/><polygon fill="none" points="705.8084,285.868,699.4604,265.652,717.0294,277.497,705.8084,285.868" style="stroke:#181818;stroke-width:1.0;"/></g><!--reverse link AbstractProductB to ProductB2--><g id="link_AbstractProductB_ProductB2"><path codeLine="48" d="M758.3164,273.927 C777.3764,283.799 795.7084,297.438 806.7234,316 C846.4164,382.887 852.2004,427.903 806.7234,491 C788.1604,516.7539 754.2194,527.9914 725.0144,532.7967 " fill="none" id="AbstractProductB-backto-ProductB2" style="stroke:#181818;stroke-width:1.0;stroke-dasharray:7.0,7.0;"/><polygon fill="none" points="755.3194,280.253,740.0344,265.578,761.1344,267.518,755.3194,280.253" style="stroke:#181818;stroke-width:1.0;"/></g><!--link ConcreteFactory1 to ProductA1--><g id="link_ConcreteFactory1_ProductA1"><path codeLine="50" d="M238.1764,444.021 C231.4084,453.9229 224.3274,464.2979 217.7234,474 C208.0154,488.2627 197.0864,504.3986 188.8104,516.6331 " fill="none" id="ConcreteFactory1-to-ProductA1" style="stroke:#181818;stroke-width:1.0;stroke-dasharray:7.0,7.0;"/><polygon fill="#181818" points="185.8894,520.9534,194.245,515.7395,188.6907,516.8118,187.6184,511.2575,185.8894,520.9534" style="stroke:#181818;stroke-width:1.0;"/><text fill="#000000" font-family="sans-serif" font-size="13" lengthAdjust="spacing" textLength="76" x="218.7234" y="487.0669">«instatiate»</text></g><!--link ConcreteFactory1 to ProductB1--><g id="link_ConcreteFactory1_ProductB1"><path codeLine="51" d="M299.8394,444.309 C312.3454,461.2857 328.3364,479.1111 346.7234,491 C365.6304,503.2254 418.6834,516.049 461.1004,524.865 " fill="none" id="ConcreteFactory1-to-ProductB1" style="stroke:#181818;stroke-width:1.0;stroke-dasharray:7.0,7.0;"/><polygon fill="#181818" points="466.2174,525.92,458.2109,520.1845,461.3205,524.91,456.5949,528.0196,466.2174,525.92" style="stroke:#181818;stroke-width:1.0;"/><text fill="#000000" font-family="sans-serif" font-size="13" lengthAdjust="spacing" textLength="76" x="347.7234" y="487.0669">«instatiate»</text></g><!--link ConcreteFactory2 to ProductA2--><g id="link_ConcreteFactory2_ProductA2"><path codeLine="53" d="M508.5554,444.118 C466.5664,469.696 417.3054,499.7041 386.7994,518.2877 " fill="none" id="ConcreteFactory2-to-ProductA2" style="stroke:#181818;stroke-width:1.0;stroke-dasharray:7.0,7.0;"/><polygon fill="#181818" points="382.4374,520.9447,392.2045,519.6783,386.7074,518.3434,388.0423,512.8463,382.4374,520.9447" style="stroke:#181818;stroke-width:1.0;"/><text fill="#000000" font-family="sans-serif" font-size="13" lengthAdjust="spacing" textLength="76" x="459.7234" y="487.0669">«instatiate»</text></g><!--link ConcreteFactory2 to ProductB2--><g id="link_ConcreteFactory2_ProductB2"><path codeLine="54" d="M615.7374,444.118 C630.8124,468.8574 648.4114,497.7411 659.7954,516.4235 " fill="none" id="ConcreteFactory2-to-ProductB2" style="stroke:#181818;stroke-width:1.0;stroke-dasharray:7.0,7.0;"/><polygon fill="#181818" points="662.5494,520.9447,661.2824,511.1777,659.9478,516.6749,654.4506,515.3403,662.5494,520.9447" style="stroke:#181818;stroke-width:1.0;"/><text fill="#000000" font-family="sans-serif" font-size="13" lengthAdjust="spacing" textLength="76" x="645.7234" y="487.0669">«instatiate»</text></g><!--SRC=[jLJBQiCm4BphAtHCAHQDZoOOea2XjqAFfGVPNZUYiMpaDQMlVw_gH0doocaBxS5WQsTdHhEB-oTjEcLLmykTwlirejN5W71JjkPElmA_OamR15kh4lYwwD6g4g_TqzeN_iOk_T6jRQkXn3NVM508_dDnGI0oX4W7-OY9U8hvacHiTCqthIaj81nyBPqn8SJVcOkgfF-aijDWq74dzLudcwJEakx0d96eV4bc9AhHwfvyKKyvHtrsa4wgzjaa-NJQ6L-jTDEr5lDy3kgD_08h0omZOIRtMrrLO1wiVjnYGdTWlcCKfCl16Hd7-PRKHJCb4KCdtab6ZEp8pt1BSargmT-FQ1-dxr_IMOI7o3aIUKIaimXgdWkHyvE_SQAcHuNQBVdN1fnha946ccCWaNuh4JR8I0DZBd3wIwirxAgmT5oi1fe2RBGeW-8fYjXf6ZkLKQpqs4y0]--></g></svg>