<?xml version="1.0" encoding="UTF-8" standalone="no"?><svg xmlns="http://www.w3.org/2000/svg" xmlns:xlink="http://www.w3.org/1999/xlink" contentStyleType="text/css" height="560px" preserveAspectRatio="none" style="width:932px;height:560px;background:#FFFFFF;" version="1.1" viewBox="0 0 932 560" width="932px" zoomAndPan="magnify"><defs/><g><!--class AbstractFactory--><g id="elem_AbstractFactory"><rect codeLine="3" fill="#F1F1F1" height="72.5938" id="AbstractFactory" rx="2.5" ry="2.5" style="stroke:#181818;stroke-width:0.5;" width="281" x="273" y="213"/><ellipse cx="353.25" cy="229" fill="#B4A7E5" rx="11" ry="11" style="stroke:#181818;stroke-width:1.0;"/><path d="M354.2031,225.7813 L355.9219,225.7813 C356.3125,225.7813 356.5,225.75 356.625,225.6719 C356.8906,225.5156 357.0313,225.2344 357.0313,224.9375 C357.0313,224.6719 356.9219,224.4063 356.6875,224.2344 C356.5156,224.125 356.375,224.0938 355.9219,224.0938 L350.7813,224.0938 C350.3438,224.0938 350.2188,224.1094 350.0625,224.2031 C349.8125,224.3594 349.6563,224.6563 349.6563,224.9375 C349.6563,225.2188 349.7969,225.4688 350.0156,225.6406 C350.1719,225.75 350.3594,225.7813 350.7813,225.7813 L352.5,225.7813 L352.5,232.2969 L350.7813,232.2969 C350.3438,232.2969 350.2188,232.3125 350.0625,232.4219 C349.8125,232.5781 349.6563,232.8594 349.6563,233.1563 C349.6563,233.4063 349.7969,233.6719 350.0156,233.8281 C350.1719,233.9531 350.375,234 350.7813,234 L355.9219,234 C356.6719,234 357.0313,233.7188 357.0313,233.1563 C357.0313,232.875 356.9219,232.625 356.6875,232.4531 C356.5156,232.3281 356.375,232.2969 355.9219,232.2969 L354.2031,232.2969 L354.2031,225.7813 Z " fill="#000000"/><text fill="#000000" font-family="sans-serif" font-size="14" font-style="italic" lengthAdjust="spacing" textLength="112" x="373.75" y="233.8467">AbstractFactory</text><line style="stroke:#181818;stroke-width:0.5;" x1="274" x2="553" y1="245" y2="245"/><text fill="#000000" font-family="sans-serif" font-size="14" lengthAdjust="spacing" textLength="269" x="279" y="261.9951">+AbstractProductA CreateProductA()</text><text fill="#000000" font-family="sans-serif" font-size="14" lengthAdjust="spacing" textLength="269" x="279" y="278.292">+AbstractProductB CreateProductB()</text></g><!--class AbstractProductA--><g id="elem_AbstractProductA"><rect codeLine="9" fill="#F1F1F1" height="32" id="AbstractProductA" rx="2.5" ry="2.5" style="stroke:#181818;stroke-width:0.5;" width="155" x="770" y="379.5"/><ellipse cx="785" cy="395.5" fill="#B4A7E5" rx="11" ry="11" style="stroke:#181818;stroke-width:1.0;"/><path d="M785.9531,392.2813 L787.6719,392.2813 C788.0625,392.2813 788.25,392.25 788.375,392.1719 C788.6406,392.0156 788.7813,391.7344 788.7813,391.4375 C788.7813,391.1719 788.6719,390.9063 788.4375,390.7344 C788.2656,390.625 788.125,390.5938 787.6719,390.5938 L782.5313,390.5938 C782.0938,390.5938 781.9688,390.6094 781.8125,390.7031 C781.5625,390.8594 781.4063,391.1563 781.4063,391.4375 C781.4063,391.7188 781.5469,391.9688 781.7656,392.1406 C781.9219,392.25 782.1094,392.2813 782.5313,392.2813 L784.25,392.2813 L784.25,398.7969 L782.5313,398.7969 C782.0938,398.7969 781.9688,398.8125 781.8125,398.9219 C781.5625,399.0781 781.4063,399.3594 781.4063,399.6563 C781.4063,399.9063 781.5469,400.1719 781.7656,400.3281 C781.9219,400.4531 782.125,400.5 782.5313,400.5 L787.6719,400.5 C788.4219,400.5 788.7813,400.2188 788.7813,399.6563 C788.7813,399.375 788.6719,399.125 788.4375,398.9531 C788.2656,398.8281 788.125,398.7969 787.6719,398.7969 L785.9531,398.7969 L785.9531,392.2813 Z " fill="#000000"/><text fill="#000000" font-family="sans-serif" font-size="14" font-style="italic" lengthAdjust="spacing" textLength="123" x="799" y="400.3467">AbstractProductA</text></g><!--class AbstractProductB--><g id="elem_AbstractProductB"><rect codeLine="10" fill="#F1F1F1" height="32" id="AbstractProductB" rx="2.5" ry="2.5" style="stroke:#181818;stroke-width:0.5;" width="155" x="7" y="233.5"/><ellipse cx="22" cy="249.5" fill="#B4A7E5" rx="11" ry="11" style="stroke:#181818;stroke-width:1.0;"/><path d="M22.9531,246.2813 L24.6719,246.2813 C25.0625,246.2813 25.25,246.25 25.375,246.1719 C25.6406,246.0156 25.7813,245.7344 25.7813,245.4375 C25.7813,245.1719 25.6719,244.9063 25.4375,244.7344 C25.2656,244.625 25.125,244.5938 24.6719,244.5938 L19.5313,244.5938 C19.0938,244.5938 18.9688,244.6094 18.8125,244.7031 C18.5625,244.8594 18.4063,245.1563 18.4063,245.4375 C18.4063,245.7188 18.5469,245.9688 18.7656,246.1406 C18.9219,246.25 19.1094,246.2813 19.5313,246.2813 L21.25,246.2813 L21.25,252.7969 L19.5313,252.7969 C19.0938,252.7969 18.9688,252.8125 18.8125,252.9219 C18.5625,253.0781 18.4063,253.3594 18.4063,253.6563 C18.4063,253.9063 18.5469,254.1719 18.7656,254.3281 C18.9219,254.4531 19.125,254.5 19.5313,254.5 L24.6719,254.5 C25.4219,254.5 25.7813,254.2188 25.7813,253.6563 C25.7813,253.375 25.6719,253.125 25.4375,252.9531 C25.2656,252.8281 25.125,252.7969 24.6719,252.7969 L22.9531,252.7969 L22.9531,246.2813 Z " fill="#000000"/><text fill="#000000" font-family="sans-serif" font-size="14" font-style="italic" lengthAdjust="spacing" textLength="123" x="36" y="254.3467">AbstractProductB</text></g><!--class ConcreteFactory1--><g id="elem_ConcreteFactory1"><rect codeLine="12" fill="#F1F1F1" height="96.8906" id="ConcreteFactory1" rx="2.5" ry="2.5" style="stroke:#181818;stroke-width:0.5;" width="281" x="138" y="347"/><ellipse cx="209.25" cy="363" fill="#ADD1B2" rx="11" ry="11" style="stroke:#181818;stroke-width:1.0;"/><path d="M211.5938,358.6719 C210.6563,358.2344 210.0625,358.0938 209.1875,358.0938 C206.5625,358.0938 204.5625,360.1719 204.5625,362.8906 L204.5625,364.0156 C204.5625,366.5938 206.6719,368.4844 209.5625,368.4844 C210.7813,368.4844 211.9375,368.1875 212.6875,367.6406 C213.2656,367.2344 213.5938,366.7813 213.5938,366.3906 C213.5938,365.9375 213.2031,365.5469 212.7344,365.5469 C212.5156,365.5469 212.3125,365.625 212.125,365.8125 C211.6719,366.2969 211.6719,366.2969 211.4844,366.3906 C211.0625,366.6563 210.375,366.7813 209.6094,366.7813 C207.5625,366.7813 206.2656,365.6875 206.2656,363.9844 L206.2656,362.8906 C206.2656,361.1094 207.5156,359.7969 209.25,359.7969 C209.8281,359.7969 210.4375,359.9531 210.9063,360.2031 C211.3906,360.4844 211.5625,360.7031 211.6563,361.1094 C211.7188,361.5156 211.75,361.6406 211.8906,361.7656 C212.0313,361.9063 212.2656,362.0156 212.4844,362.0156 C212.75,362.0156 213.0156,361.875 213.1875,361.6563 C213.2969,361.5 213.3281,361.3125 213.3281,360.8906 L213.3281,359.4688 C213.3281,359.0313 213.3125,358.9063 213.2188,358.75 C213.0625,358.4844 212.7813,358.3438 212.4844,358.3438 C212.1875,358.3438 211.9844,358.4375 211.7656,358.75 L211.5938,358.6719 Z " fill="#000000"/><text fill="#000000" font-family="sans-serif" font-size="14" lengthAdjust="spacing" textLength="130" x="229.75" y="367.8467">ConcreteFactory1</text><line style="stroke:#181818;stroke-width:0.5;" x1="139" x2="418" y1="379" y2="379"/><text fill="#000000" font-family="sans-serif" font-size="14" lengthAdjust="spacing" textLength="15" x="144" y="395.9951">...</text><line style="stroke:#181818;stroke-width:0.5;" x1="139" x2="418" y1="403.2969" y2="403.2969"/><text fill="#000000" font-family="sans-serif" font-size="14" lengthAdjust="spacing" textLength="269" x="144" y="420.292">+AbstractProductA CreateProductA()</text><text fill="#000000" font-family="sans-serif" font-size="14" lengthAdjust="spacing" textLength="269" x="144" y="436.5889">+AbstractProductB CreateProductB()</text></g><!--class ConcreteFactory2--><g id="elem_ConcreteFactory2"><rect codeLine="18" fill="#F1F1F1" height="96.8906" id="ConcreteFactory2" rx="2.5" ry="2.5" style="stroke:#181818;stroke-width:0.5;" width="281" x="454" y="347"/><ellipse cx="525.75" cy="363" fill="#ADD1B2" rx="11" ry="11" style="stroke:#181818;stroke-width:1.0;"/><path d="M528.0938,358.6719 C527.1563,358.2344 526.5625,358.0938 525.6875,358.0938 C523.0625,358.0938 521.0625,360.1719 521.0625,362.8906 L521.0625,364.0156 C521.0625,366.5938 523.1719,368.4844 526.0625,368.4844 C527.2813,368.4844 528.4375,368.1875 529.1875,367.6406 C529.7656,367.2344 530.0938,366.7813 530.0938,366.3906 C530.0938,365.9375 529.7031,365.5469 529.2344,365.5469 C529.0156,365.5469 528.8125,365.625 528.625,365.8125 C528.1719,366.2969 528.1719,366.2969 527.9844,366.3906 C527.5625,366.6563 526.875,366.7813 526.1094,366.7813 C524.0625,366.7813 522.7656,365.6875 522.7656,363.9844 L522.7656,362.8906 C522.7656,361.1094 524.0156,359.7969 525.75,359.7969 C526.3281,359.7969 526.9375,359.9531 527.4063,360.2031 C527.8906,360.4844 528.0625,360.7031 528.1563,361.1094 C528.2188,361.5156 528.25,361.6406 528.3906,361.7656 C528.5313,361.9063 528.7656,362.0156 528.9844,362.0156 C529.25,362.0156 529.5156,361.875 529.6875,361.6563 C529.7969,361.5 529.8281,361.3125 529.8281,360.8906 L529.8281,359.4688 C529.8281,359.0313 529.8125,358.9063 529.7188,358.75 C529.5625,358.4844 529.2813,358.3438 528.9844,358.3438 C528.6875,358.3438 528.4844,358.4375 528.2656,358.75 L528.0938,358.6719 Z " fill="#000000"/><text fill="#000000" font-family="sans-serif" font-size="14" lengthAdjust="spacing" textLength="129" x="546.25" y="367.8467">ConcreteFactory2</text><line style="stroke:#181818;stroke-width:0.5;" x1="455" x2="734" y1="379" y2="379"/><text fill="#000000" font-family="sans-serif" font-size="14" lengthAdjust="spacing" textLength="15" x="460" y="395.9951">...</text><line style="stroke:#181818;stroke-width:0.5;" x1="455" x2="734" y1="403.2969" y2="403.2969"/><text fill="#000000" font-family="sans-serif" font-size="14" lengthAdjust="spacing" textLength="269" x="460" y="420.292">+AbstractProductA CreateProductA()</text><text fill="#000000" font-family="sans-serif" font-size="14" lengthAdjust="spacing" textLength="269" x="460" y="436.5889">+AbstractProductB CreateProductB()</text></g><!--class Client--><g id="elem_Client"><rect codeLine="24" fill="#F1F1F1" height="129.4844" id="Client" rx="2.5" ry="2.5" style="stroke:#181818;stroke-width:0.5;" width="219" x="304" y="7"/><ellipse cx="387.75" cy="23" fill="#ADD1B2" rx="11" ry="11" style="stroke:#181818;stroke-width:1.0;"/><path d="M390.0938,18.6719 C389.1563,18.2344 388.5625,18.0938 387.6875,18.0938 C385.0625,18.0938 383.0625,20.1719 383.0625,22.8906 L383.0625,24.0156 C383.0625,26.5938 385.1719,28.4844 388.0625,28.4844 C389.2813,28.4844 390.4375,28.1875 391.1875,27.6406 C391.7656,27.2344 392.0938,26.7813 392.0938,26.3906 C392.0938,25.9375 391.7031,25.5469 391.2344,25.5469 C391.0156,25.5469 390.8125,25.625 390.625,25.8125 C390.1719,26.2969 390.1719,26.2969 389.9844,26.3906 C389.5625,26.6563 388.875,26.7813 388.1094,26.7813 C386.0625,26.7813 384.7656,25.6875 384.7656,23.9844 L384.7656,22.8906 C384.7656,21.1094 386.0156,19.7969 387.75,19.7969 C388.3281,19.7969 388.9375,19.9531 389.4063,20.2031 C389.8906,20.4844 390.0625,20.7031 390.1563,21.1094 C390.2188,21.5156 390.25,21.6406 390.3906,21.7656 C390.5313,21.9063 390.7656,22.0156 390.9844,22.0156 C391.25,22.0156 391.5156,21.875 391.6875,21.6563 C391.7969,21.5 391.8281,21.3125 391.8281,20.8906 L391.8281,19.4688 C391.8281,19.0313 391.8125,18.9063 391.7188,18.75 C391.5625,18.4844 391.2813,18.3438 390.9844,18.3438 C390.6875,18.3438 390.4844,18.4375 390.2656,18.75 L390.0938,18.6719 Z " fill="#000000"/><text fill="#000000" font-family="sans-serif" font-size="14" lengthAdjust="spacing" textLength="43" x="408.25" y="27.8467">Client</text><line style="stroke:#181818;stroke-width:0.5;" x1="305" x2="522" y1="39" y2="39"/><text fill="#000000" font-family="sans-serif" font-size="14" lengthAdjust="spacing" textLength="180" x="310" y="55.9951">-factory:AbstractFactory</text><text fill="#000000" font-family="sans-serif" font-size="14" lengthAdjust="spacing" textLength="207" x="310" y="72.292">-productA:AbstractProductA</text><text fill="#000000" font-family="sans-serif" font-size="14" lengthAdjust="spacing" textLength="207" x="310" y="88.5889">-productB:AbstractProductB</text><text fill="#000000" font-family="sans-serif" font-size="14" lengthAdjust="spacing" textLength="15" x="310" y="104.8857">...</text><line style="stroke:#181818;stroke-width:0.5;" x1="305" x2="522" y1="112.1875" y2="112.1875"/><text fill="#000000" font-family="sans-serif" font-size="14" lengthAdjust="spacing" textLength="192" x="310" y="129.1826">+Client(f:AbstractFactory)</text></g><!--class ProductA1--><g id="elem_ProductA1"><rect fill="#F1F1F1" height="32" id="ProductA1" rx="2.5" ry="2.5" style="stroke:#181818;stroke-width:0.5;" width="107" x="435" y="521"/><ellipse cx="450" cy="537" fill="#ADD1B2" rx="11" ry="11" style="stroke:#181818;stroke-width:1.0;"/><path d="M452.3438,532.6719 C451.4063,532.2344 450.8125,532.0938 449.9375,532.0938 C447.3125,532.0938 445.3125,534.1719 445.3125,536.8906 L445.3125,538.0156 C445.3125,540.5938 447.4219,542.4844 450.3125,542.4844 C451.5313,542.4844 452.6875,542.1875 453.4375,541.6406 C454.0156,541.2344 454.3438,540.7813 454.3438,540.3906 C454.3438,539.9375 453.9531,539.5469 453.4844,539.5469 C453.2656,539.5469 453.0625,539.625 452.875,539.8125 C452.4219,540.2969 452.4219,540.2969 452.2344,540.3906 C451.8125,540.6563 451.125,540.7813 450.3594,540.7813 C448.3125,540.7813 447.0156,539.6875 447.0156,537.9844 L447.0156,536.8906 C447.0156,535.1094 448.2656,533.7969 450,533.7969 C450.5781,533.7969 451.1875,533.9531 451.6563,534.2031 C452.1406,534.4844 452.3125,534.7031 452.4063,535.1094 C452.4688,535.5156 452.5,535.6406 452.6406,535.7656 C452.7813,535.9063 453.0156,536.0156 453.2344,536.0156 C453.5,536.0156 453.7656,535.875 453.9375,535.6563 C454.0469,535.5 454.0781,535.3125 454.0781,534.8906 L454.0781,533.4688 C454.0781,533.0313 454.0625,532.9063 453.9688,532.75 C453.8125,532.4844 453.5313,532.3438 453.2344,532.3438 C452.9375,532.3438 452.7344,532.4375 452.5156,532.75 L452.3438,532.6719 Z " fill="#000000"/><text fill="#000000" font-family="sans-serif" font-size="14" lengthAdjust="spacing" textLength="75" x="464" y="541.8467">ProductA1</text></g><!--class ProductA2--><g id="elem_ProductA2"><rect fill="#F1F1F1" height="32" id="ProductA2" rx="2.5" ry="2.5" style="stroke:#181818;stroke-width:0.5;" width="106" x="584.5" y="521"/><ellipse cx="599.5" cy="537" fill="#ADD1B2" rx="11" ry="11" style="stroke:#181818;stroke-width:1.0;"/><path d="M601.8438,532.6719 C600.9063,532.2344 600.3125,532.0938 599.4375,532.0938 C596.8125,532.0938 594.8125,534.1719 594.8125,536.8906 L594.8125,538.0156 C594.8125,540.5938 596.9219,542.4844 599.8125,542.4844 C601.0313,542.4844 602.1875,542.1875 602.9375,541.6406 C603.5156,541.2344 603.8438,540.7813 603.8438,540.3906 C603.8438,539.9375 603.4531,539.5469 602.9844,539.5469 C602.7656,539.5469 602.5625,539.625 602.375,539.8125 C601.9219,540.2969 601.9219,540.2969 601.7344,540.3906 C601.3125,540.6563 600.625,540.7813 599.8594,540.7813 C597.8125,540.7813 596.5156,539.6875 596.5156,537.9844 L596.5156,536.8906 C596.5156,535.1094 597.7656,533.7969 599.5,533.7969 C600.0781,533.7969 600.6875,533.9531 601.1563,534.2031 C601.6406,534.4844 601.8125,534.7031 601.9063,535.1094 C601.9688,535.5156 602,535.6406 602.1406,535.7656 C602.2813,535.9063 602.5156,536.0156 602.7344,536.0156 C603,536.0156 603.2656,535.875 603.4375,535.6563 C603.5469,535.5 603.5781,535.3125 603.5781,534.8906 L603.5781,533.4688 C603.5781,533.0313 603.5625,532.9063 603.4688,532.75 C603.3125,532.4844 603.0313,532.3438 602.7344,532.3438 C602.4375,532.3438 602.2344,532.4375 602.0156,532.75 L601.8438,532.6719 Z " fill="#000000"/><text fill="#000000" font-family="sans-serif" font-size="14" lengthAdjust="spacing" textLength="74" x="613.5" y="541.8467">ProductA2</text></g><!--class ProductB1--><g id="elem_ProductB1"><rect fill="#F1F1F1" height="32" id="ProductB1" rx="2.5" ry="2.5" style="stroke:#181818;stroke-width:0.5;" width="107" x="108" y="521"/><ellipse cx="123" cy="537" fill="#ADD1B2" rx="11" ry="11" style="stroke:#181818;stroke-width:1.0;"/><path d="M125.3438,532.6719 C124.4063,532.2344 123.8125,532.0938 122.9375,532.0938 C120.3125,532.0938 118.3125,534.1719 118.3125,536.8906 L118.3125,538.0156 C118.3125,540.5938 120.4219,542.4844 123.3125,542.4844 C124.5313,542.4844 125.6875,542.1875 126.4375,541.6406 C127.0156,541.2344 127.3438,540.7813 127.3438,540.3906 C127.3438,539.9375 126.9531,539.5469 126.4844,539.5469 C126.2656,539.5469 126.0625,539.625 125.875,539.8125 C125.4219,540.2969 125.4219,540.2969 125.2344,540.3906 C124.8125,540.6563 124.125,540.7813 123.3594,540.7813 C121.3125,540.7813 120.0156,539.6875 120.0156,537.9844 L120.0156,536.8906 C120.0156,535.1094 121.2656,533.7969 123,533.7969 C123.5781,533.7969 124.1875,533.9531 124.6563,534.2031 C125.1406,534.4844 125.3125,534.7031 125.4063,535.1094 C125.4688,535.5156 125.5,535.6406 125.6406,535.7656 C125.7813,535.9063 126.0156,536.0156 126.2344,536.0156 C126.5,536.0156 126.7656,535.875 126.9375,535.6563 C127.0469,535.5 127.0781,535.3125 127.0781,534.8906 L127.0781,533.4688 C127.0781,533.0313 127.0625,532.9063 126.9688,532.75 C126.8125,532.4844 126.5313,532.3438 126.2344,532.3438 C125.9375,532.3438 125.7344,532.4375 125.5156,532.75 L125.3438,532.6719 Z " fill="#000000"/><text fill="#000000" font-family="sans-serif" font-size="14" lengthAdjust="spacing" textLength="75" x="137" y="541.8467">ProductB1</text></g><!--class ProductB2--><g id="elem_ProductB2"><rect fill="#F1F1F1" height="32" id="ProductB2" rx="2.5" ry="2.5" style="stroke:#181818;stroke-width:0.5;" width="106" x="279.5" y="521"/><ellipse cx="294.5" cy="537" fill="#ADD1B2" rx="11" ry="11" style="stroke:#181818;stroke-width:1.0;"/><path d="M296.8438,532.6719 C295.9063,532.2344 295.3125,532.0938 294.4375,532.0938 C291.8125,532.0938 289.8125,534.1719 289.8125,536.8906 L289.8125,538.0156 C289.8125,540.5938 291.9219,542.4844 294.8125,542.4844 C296.0313,542.4844 297.1875,542.1875 297.9375,541.6406 C298.5156,541.2344 298.8438,540.7813 298.8438,540.3906 C298.8438,539.9375 298.4531,539.5469 297.9844,539.5469 C297.7656,539.5469 297.5625,539.625 297.375,539.8125 C296.9219,540.2969 296.9219,540.2969 296.7344,540.3906 C296.3125,540.6563 295.625,540.7813 294.8594,540.7813 C292.8125,540.7813 291.5156,539.6875 291.5156,537.9844 L291.5156,536.8906 C291.5156,535.1094 292.7656,533.7969 294.5,533.7969 C295.0781,533.7969 295.6875,533.9531 296.1563,534.2031 C296.6406,534.4844 296.8125,534.7031 296.9063,535.1094 C296.9688,535.5156 297,535.6406 297.1406,535.7656 C297.2813,535.9063 297.5156,536.0156 297.7344,536.0156 C298,536.0156 298.2656,535.875 298.4375,535.6563 C298.5469,535.5 298.5781,535.3125 298.5781,534.8906 L298.5781,533.4688 C298.5781,533.0313 298.5625,532.9063 298.4688,532.75 C298.3125,532.4844 298.0313,532.3438 297.7344,532.3438 C297.4375,532.3438 297.2344,532.4375 297.0156,532.75 L296.8438,532.6719 Z " fill="#000000"/><text fill="#000000" font-family="sans-serif" font-size="14" lengthAdjust="spacing" textLength="74" x="308.5" y="541.8467">ProductB2</text></g><!--link Client to AbstractFactory--><g id="link_Client_AbstractFactory"><path codeLine="32" d="M413.5,136.04 C413.5,160.014 413.5,186.619 413.5,207.93 " fill="none" id="Client-to-AbstractFactory" style="stroke:#181818;stroke-width:1.0;"/><polygon fill="#181818" points="413.5,212.95,417.5,203.95,413.5,207.95,409.5,203.95,413.5,212.95" style="stroke:#181818;stroke-width:1.0;"/><text fill="#000000" font-family="sans-serif" font-size="13" lengthAdjust="spacing" textLength="58" x="414.5" y="179.0669">«import»</text></g><!--link Client to AbstractProductA--><g id="link_Client_AbstractProductA"><path codeLine="33" d="M499.244,136.117 C600.084,210.933 761.496,330.691 822.798,376.173 " fill="none" id="Client-to-AbstractProductA" style="stroke:#181818;stroke-width:1.0;"/><polygon fill="#181818" points="827.036,379.317,822.1938,370.7407,823.0213,376.3367,817.4253,377.1642,827.036,379.317" style="stroke:#181818;stroke-width:1.0;"/><text fill="#000000" font-family="sans-serif" font-size="13" lengthAdjust="spacing" textLength="58" x="701.5" y="254.0669">«import»</text></g><!--link Client to AbstractProductB--><g id="link_Client_AbstractProductB"><path codeLine="34" d="M303.948,131.105 C238.659,166.032 160.324,207.937 117.126,231.047 " fill="none" id="Client-to-AbstractProductB" style="stroke:#181818;stroke-width:1.0;"/><polygon fill="#181818" points="112.546,233.497,122.3686,232.7784,116.9547,231.1384,118.5948,225.7245,112.546,233.497" style="stroke:#181818;stroke-width:1.0;"/><text fill="#000000" font-family="sans-serif" font-size="13" lengthAdjust="spacing" textLength="58" x="230.5" y="179.0669">«import»</text></g><!--reverse link AbstractFactory to ConcreteFactory1--><g id="link_AbstractFactory_ConcreteFactory1"><path codeLine="36" d="M366.159,300.998 C352.204,315.882 336.984,332.117 323.201,346.819 " fill="none" id="AbstractFactory-backto-ConcreteFactory1" style="stroke:#181818;stroke-width:1.0;stroke-dasharray:7.0,7.0;"/><polygon fill="none" points="361.344,295.899,380.129,286.096,371.557,305.474,361.344,295.899" style="stroke:#181818;stroke-width:1.0;"/></g><!--reverse link AbstractFactory to ConcreteFactory2--><g id="link_AbstractFactory_ConcreteFactory2"><path codeLine="37" d="M474.033,298.659 C493.529,314.169 515.115,331.343 534.567,346.819 " fill="none" id="AbstractFactory-backto-ConcreteFactory2" style="stroke:#181818;stroke-width:1.0;stroke-dasharray:7.0,7.0;"/><polygon fill="none" points="469.535,304.025,458.242,286.096,478.251,293.069,469.535,304.025" style="stroke:#181818;stroke-width:1.0;"/></g><!--reverse link AbstractProductA to ProductA1--><g id="link_AbstractProductA_ProductA1"><path codeLine="39" d="M815.311,424.342 C788.872,445.756 749.546,474.4033 710.5,491 C702.719,494.3074 605.179,513.4842 542.007,525.7129 " fill="none" id="AbstractProductA-backto-ProductA1" style="stroke:#181818;stroke-width:1.0;stroke-dasharray:7.0,7.0;"/><polygon fill="none" points="810.849,418.948,830.692,411.514,819.816,429.7,810.849,418.948" style="stroke:#181818;stroke-width:1.0;"/></g><!--reverse link AbstractProductA to ProductA2--><g id="link_AbstractProductA_ProductA2"><path codeLine="40" d="M834.601,430.293 C825.231,450.61 810.647,475.4587 790.5,491 C761.781,513.1535 722.39,524.4178 690.77,530.1363 " fill="none" id="AbstractProductA-backto-ProductA2" style="stroke:#181818;stroke-width:1.0;stroke-dasharray:7.0,7.0;"/><polygon fill="none" points="828.209,427.434,842.37,411.671,841.13,432.825,828.209,427.434" style="stroke:#181818;stroke-width:1.0;"/></g><!--reverse link AbstractProductB to ProductB1--><g id="link_AbstractProductB_ProductB1"><path codeLine="42" d="M68.4394,283.851 C47.1509,333.377 16.8488,427.35 58.5,491 C69.7194,508.1451 89.0629,518.7962 107.979,525.396 " fill="none" id="AbstractProductB-backto-ProductB1" style="stroke:#181818;stroke-width:1.0;stroke-dasharray:7.0,7.0;"/><polygon fill="none" points="62.1099,280.86,76.7752,265.565,74.8488,286.667,62.1099,280.86" style="stroke:#181818;stroke-width:1.0;"/></g><!--reverse link AbstractProductB to ProductB2--><g id="link_AbstractProductB_ProductB2"><path codeLine="43" d="M83.1537,285.777 C83.2568,327.033 88.8056,395.806 120.5,444 C155.552,497.3007 228.844,519.8816 279.352,529.3413 " fill="none" id="AbstractProductB-backto-ProductB2" style="stroke:#181818;stroke-width:1.0;stroke-dasharray:7.0,7.0;"/><polygon fill="none" points="76.1601,285.372,83.5453,265.511,90.1575,285.642,76.1601,285.372" style="stroke:#181818;stroke-width:1.0;"/></g><!--link ConcreteFactory1 to ProductA1--><g id="link_ConcreteFactory1_ProductA1"><path codeLine="45" d="M311.929,444.425 C325.438,461.0107 342.177,478.5431 360.5,491 C381.323,505.157 407.075,515.3373 430.008,522.3935 " fill="none" id="ConcreteFactory1-to-ProductA1" style="stroke:#181818;stroke-width:1.0;stroke-dasharray:7.0,7.0;"/><polygon fill="#181818" points="434.856,523.8522,427.3911,517.4276,430.0683,522.4108,425.085,525.088,434.856,523.8522" style="stroke:#181818;stroke-width:1.0;"/><text fill="#000000" font-family="sans-serif" font-size="13" lengthAdjust="spacing" textLength="76" x="361.5" y="487.0669">«instatiate»</text></g><!--link ConcreteFactory1 to ProductB1--><g id="link_ConcreteFactory1_ProductB1"><path codeLine="46" d="M237.532,444.348 C229.217,454.1319 220.554,464.378 212.5,474 C200.525,488.3076 187.128,504.6053 177.071,516.8995 " fill="none" id="ConcreteFactory1-to-ProductB1" style="stroke:#181818;stroke-width:1.0;stroke-dasharray:7.0,7.0;"/><polygon fill="#181818" points="173.795,520.9067,182.5879,516.47,176.9594,517.0355,176.394,511.4069,173.795,520.9067" style="stroke:#181818;stroke-width:1.0;"/><text fill="#000000" font-family="sans-serif" font-size="13" lengthAdjust="spacing" textLength="76" x="213.5" y="487.0669">«instatiate»</text></g><!--link ConcreteFactory2 to ProductA2--><g id="link_ConcreteFactory2_ProductA2"><path codeLine="48" d="M609.178,444.118 C616.739,468.6477 625.556,497.2519 631.319,515.9463 " fill="none" id="ConcreteFactory2-to-ProductA2" style="stroke:#181818;stroke-width:1.0;stroke-dasharray:7.0,7.0;"/><polygon fill="#181818" points="632.859,520.9447,634.0306,511.1658,631.3863,516.1665,626.3855,513.5222,632.859,520.9447" style="stroke:#181818;stroke-width:1.0;"/><text fill="#000000" font-family="sans-serif" font-size="13" lengthAdjust="spacing" textLength="76" x="625.5" y="487.0669">«instatiate»</text></g><!--link ConcreteFactory2 to ProductB2--><g id="link_ConcreteFactory2_ProductB2"><path codeLine="49" d="M523.26,444.227 C498.249,460.0518 469.618,477.1471 442.5,491 C422.087,501.4277 398.675,511.2795 378.712,519.0914 " fill="none" id="ConcreteFactory2-to-ProductB2" style="stroke:#181818;stroke-width:1.0;stroke-dasharray:7.0,7.0;"/><polygon fill="#181818" points="373.98,520.9301,383.8177,521.3979,378.6403,519.1187,380.9195,513.9413,373.98,520.9301" style="stroke:#181818;stroke-width:1.0;"/><text fill="#000000" font-family="sans-serif" font-size="13" lengthAdjust="spacing" textLength="76" x="474.5" y="487.0669">«instatiate»</text></g><!--SRC=[jPFDQeKm48NtUOeiRoc6rgLS1ET2eRj2do36aOPgb3Wk-lVkjLxZ9IQsNRGBGJFVp3avCSEpDhsqikMgaSDG45bTZeJtgZEF-XNv3MFQ4DfQAkH5EP2LYkwcfxCl_8rTkwK7srMZeeAVB4f2ztcu2X3m4PYG3nPJSJFsIy3OR9kVEgCi4Yx6RYTdGeY_SnTLIVz9fT5eQ9gTr6UTR1CxI_fbSXP4vKgG1L7DLi_33_Lsvgo_A2T9lZtfZ1-FkkqxItaUmvp-BpdmE1QSdXXxyHwOO47-EnnpTe99Qqxk9Tqb709xGs0bqbqYt1eN8kSNVtCGPY19UleTlaBxhW4Y3M4gdaJweuJV0946zgIhyFBN6flABwqNeCMsH1ijWbUy915RJMEh46N1iPy0]--></g></svg>