<?xml version="1.0" encoding="UTF-8" standalone="no"?><svg xmlns="http://www.w3.org/2000/svg" xmlns:xlink="http://www.w3.org/1999/xlink" contentStyleType="text/css" height="421px" preserveAspectRatio="none" style="width:693px;height:421px;background:#FFFFFF;" version="1.1" viewBox="0 0 693 421" width="693px" zoomAndPan="magnify"><defs/><g><!--class AbstractFactory--><g id="elem_AbstractFactory"><rect codeLine="1" fill="#F1F1F1" height="48" id="AbstractFactory" rx="2.5" ry="2.5" style="stroke:#181818;stroke-width:0.5;" width="144" x="234.5" y="132"/><ellipse cx="249.5" cy="148" fill="#B4A7E5" rx="11" ry="11" style="stroke:#181818;stroke-width:1.0;"/><path d="M250.4531,144.7813 L252.1719,144.7813 C252.5625,144.7813 252.75,144.75 252.875,144.6719 C253.1406,144.5156 253.2813,144.2344 253.2813,143.9375 C253.2813,143.6719 253.1719,143.4063 252.9375,143.2344 C252.7656,143.125 252.625,143.0938 252.1719,143.0938 L247.0313,143.0938 C246.5938,143.0938 246.4688,143.1094 246.3125,143.2031 C246.0625,143.3594 245.9063,143.6563 245.9063,143.9375 C245.9063,144.2188 246.0469,144.4688 246.2656,144.6406 C246.4219,144.75 246.6094,144.7813 247.0313,144.7813 L248.75,144.7813 L248.75,151.2969 L247.0313,151.2969 C246.5938,151.2969 246.4688,151.3125 246.3125,151.4219 C246.0625,151.5781 245.9063,151.8594 245.9063,152.1563 C245.9063,152.4063 246.0469,152.6719 246.2656,152.8281 C246.4219,152.9531 246.625,153 247.0313,153 L252.1719,153 C252.9219,153 253.2813,152.7188 253.2813,152.1563 C253.2813,151.875 253.1719,151.625 252.9375,151.4531 C252.7656,151.3281 252.625,151.2969 252.1719,151.2969 L250.4531,151.2969 L250.4531,144.7813 Z " fill="#000000"/><text fill="#000000" font-family="sans-serif" font-size="14" font-style="italic" lengthAdjust="spacing" textLength="112" x="263.5" y="152.8467">AbstractFactory</text><line style="stroke:#181818;stroke-width:0.5;" x1="235.5" x2="377.5" y1="164" y2="164"/><line style="stroke:#181818;stroke-width:0.5;" x1="235.5" x2="377.5" y1="172" y2="172"/></g><!--class AbstractProductA--><g id="elem_AbstractProductA"><rect codeLine="2" fill="#F1F1F1" height="48" id="AbstractProductA" rx="2.5" ry="2.5" style="stroke:#181818;stroke-width:0.5;" width="155" x="531" y="241"/><ellipse cx="546" cy="257" fill="#B4A7E5" rx="11" ry="11" style="stroke:#181818;stroke-width:1.0;"/><path d="M546.9531,253.7813 L548.6719,253.7813 C549.0625,253.7813 549.25,253.75 549.375,253.6719 C549.6406,253.5156 549.7813,253.2344 549.7813,252.9375 C549.7813,252.6719 549.6719,252.4063 549.4375,252.2344 C549.2656,252.125 549.125,252.0938 548.6719,252.0938 L543.5313,252.0938 C543.0938,252.0938 542.9688,252.1094 542.8125,252.2031 C542.5625,252.3594 542.4063,252.6563 542.4063,252.9375 C542.4063,253.2188 542.5469,253.4688 542.7656,253.6406 C542.9219,253.75 543.1094,253.7813 543.5313,253.7813 L545.25,253.7813 L545.25,260.2969 L543.5313,260.2969 C543.0938,260.2969 542.9688,260.3125 542.8125,260.4219 C542.5625,260.5781 542.4063,260.8594 542.4063,261.1563 C542.4063,261.4063 542.5469,261.6719 542.7656,261.8281 C542.9219,261.9531 543.125,262 543.5313,262 L548.6719,262 C549.4219,262 549.7813,261.7188 549.7813,261.1563 C549.7813,260.875 549.6719,260.625 549.4375,260.4531 C549.2656,260.3281 549.125,260.2969 548.6719,260.2969 L546.9531,260.2969 L546.9531,253.7813 Z " fill="#000000"/><text fill="#000000" font-family="sans-serif" font-size="14" font-style="italic" lengthAdjust="spacing" textLength="123" x="560" y="261.8467">AbstractProductA</text><line style="stroke:#181818;stroke-width:0.5;" x1="532" x2="685" y1="273" y2="273"/><line style="stroke:#181818;stroke-width:0.5;" x1="532" x2="685" y1="281" y2="281"/></g><!--class AbstractProductB--><g id="elem_AbstractProductB"><rect codeLine="3" fill="#F1F1F1" height="48" id="AbstractProductB" rx="2.5" ry="2.5" style="stroke:#181818;stroke-width:0.5;" width="155" x="7" y="132"/><ellipse cx="22" cy="148" fill="#B4A7E5" rx="11" ry="11" style="stroke:#181818;stroke-width:1.0;"/><path d="M22.9531,144.7813 L24.6719,144.7813 C25.0625,144.7813 25.25,144.75 25.375,144.6719 C25.6406,144.5156 25.7813,144.2344 25.7813,143.9375 C25.7813,143.6719 25.6719,143.4063 25.4375,143.2344 C25.2656,143.125 25.125,143.0938 24.6719,143.0938 L19.5313,143.0938 C19.0938,143.0938 18.9688,143.1094 18.8125,143.2031 C18.5625,143.3594 18.4063,143.6563 18.4063,143.9375 C18.4063,144.2188 18.5469,144.4688 18.7656,144.6406 C18.9219,144.75 19.1094,144.7813 19.5313,144.7813 L21.25,144.7813 L21.25,151.2969 L19.5313,151.2969 C19.0938,151.2969 18.9688,151.3125 18.8125,151.4219 C18.5625,151.5781 18.4063,151.8594 18.4063,152.1563 C18.4063,152.4063 18.5469,152.6719 18.7656,152.8281 C18.9219,152.9531 19.125,153 19.5313,153 L24.6719,153 C25.4219,153 25.7813,152.7188 25.7813,152.1563 C25.7813,151.875 25.6719,151.625 25.4375,151.4531 C25.2656,151.3281 25.125,151.2969 24.6719,151.2969 L22.9531,151.2969 L22.9531,144.7813 Z " fill="#000000"/><text fill="#000000" font-family="sans-serif" font-size="14" font-style="italic" lengthAdjust="spacing" textLength="123" x="36" y="152.8467">AbstractProductB</text><line style="stroke:#181818;stroke-width:0.5;" x1="8" x2="161" y1="164" y2="164"/><line style="stroke:#181818;stroke-width:0.5;" x1="8" x2="161" y1="172" y2="172"/></g><!--class Client--><g id="elem_Client"><rect fill="#F1F1F1" height="48" id="Client" rx="2.5" ry="2.5" style="stroke:#181818;stroke-width:0.5;" width="75" x="269" y="7"/><ellipse cx="284" cy="23" fill="#ADD1B2" rx="11" ry="11" style="stroke:#181818;stroke-width:1.0;"/><path d="M286.3438,18.6719 C285.4063,18.2344 284.8125,18.0938 283.9375,18.0938 C281.3125,18.0938 279.3125,20.1719 279.3125,22.8906 L279.3125,24.0156 C279.3125,26.5938 281.4219,28.4844 284.3125,28.4844 C285.5313,28.4844 286.6875,28.1875 287.4375,27.6406 C288.0156,27.2344 288.3438,26.7813 288.3438,26.3906 C288.3438,25.9375 287.9531,25.5469 287.4844,25.5469 C287.2656,25.5469 287.0625,25.625 286.875,25.8125 C286.4219,26.2969 286.4219,26.2969 286.2344,26.3906 C285.8125,26.6563 285.125,26.7813 284.3594,26.7813 C282.3125,26.7813 281.0156,25.6875 281.0156,23.9844 L281.0156,22.8906 C281.0156,21.1094 282.2656,19.7969 284,19.7969 C284.5781,19.7969 285.1875,19.9531 285.6563,20.2031 C286.1406,20.4844 286.3125,20.7031 286.4063,21.1094 C286.4688,21.5156 286.5,21.6406 286.6406,21.7656 C286.7813,21.9063 287.0156,22.0156 287.2344,22.0156 C287.5,22.0156 287.7656,21.875 287.9375,21.6563 C288.0469,21.5 288.0781,21.3125 288.0781,20.8906 L288.0781,19.4688 C288.0781,19.0313 288.0625,18.9063 287.9688,18.75 C287.8125,18.4844 287.5313,18.3438 287.2344,18.3438 C286.9375,18.3438 286.7344,18.4375 286.5156,18.75 L286.3438,18.6719 Z " fill="#000000"/><text fill="#000000" font-family="sans-serif" font-size="14" lengthAdjust="spacing" textLength="43" x="298" y="27.8467">Client</text><line style="stroke:#181818;stroke-width:0.5;" x1="270" x2="343" y1="39" y2="39"/><line style="stroke:#181818;stroke-width:0.5;" x1="270" x2="343" y1="47" y2="47"/></g><!--class ConcreteFactory1--><g id="elem_ConcreteFactory1"><rect fill="#F1F1F1" height="48" id="ConcreteFactory1" rx="2.5" ry="2.5" style="stroke:#181818;stroke-width:0.5;" width="162" x="137.5" y="241"/><ellipse cx="152.5" cy="257" fill="#ADD1B2" rx="11" ry="11" style="stroke:#181818;stroke-width:1.0;"/><path d="M154.8438,252.6719 C153.9063,252.2344 153.3125,252.0938 152.4375,252.0938 C149.8125,252.0938 147.8125,254.1719 147.8125,256.8906 L147.8125,258.0156 C147.8125,260.5938 149.9219,262.4844 152.8125,262.4844 C154.0313,262.4844 155.1875,262.1875 155.9375,261.6406 C156.5156,261.2344 156.8438,260.7813 156.8438,260.3906 C156.8438,259.9375 156.4531,259.5469 155.9844,259.5469 C155.7656,259.5469 155.5625,259.625 155.375,259.8125 C154.9219,260.2969 154.9219,260.2969 154.7344,260.3906 C154.3125,260.6563 153.625,260.7813 152.8594,260.7813 C150.8125,260.7813 149.5156,259.6875 149.5156,257.9844 L149.5156,256.8906 C149.5156,255.1094 150.7656,253.7969 152.5,253.7969 C153.0781,253.7969 153.6875,253.9531 154.1563,254.2031 C154.6406,254.4844 154.8125,254.7031 154.9063,255.1094 C154.9688,255.5156 155,255.6406 155.1406,255.7656 C155.2813,255.9063 155.5156,256.0156 155.7344,256.0156 C156,256.0156 156.2656,255.875 156.4375,255.6563 C156.5469,255.5 156.5781,255.3125 156.5781,254.8906 L156.5781,253.4688 C156.5781,253.0313 156.5625,252.9063 156.4688,252.75 C156.3125,252.4844 156.0313,252.3438 155.7344,252.3438 C155.4375,252.3438 155.2344,252.4375 155.0156,252.75 L154.8438,252.6719 Z " fill="#000000"/><text fill="#000000" font-family="sans-serif" font-size="14" lengthAdjust="spacing" textLength="130" x="166.5" y="261.8467">ConcreteFactory1</text><line style="stroke:#181818;stroke-width:0.5;" x1="138.5" x2="298.5" y1="273" y2="273"/><line style="stroke:#181818;stroke-width:0.5;" x1="138.5" x2="298.5" y1="281" y2="281"/></g><!--class ConcreteFactory2--><g id="elem_ConcreteFactory2"><rect fill="#F1F1F1" height="48" id="ConcreteFactory2" rx="2.5" ry="2.5" style="stroke:#181818;stroke-width:0.5;" width="161" x="335" y="241"/><ellipse cx="350" cy="257" fill="#ADD1B2" rx="11" ry="11" style="stroke:#181818;stroke-width:1.0;"/><path d="M352.3438,252.6719 C351.4063,252.2344 350.8125,252.0938 349.9375,252.0938 C347.3125,252.0938 345.3125,254.1719 345.3125,256.8906 L345.3125,258.0156 C345.3125,260.5938 347.4219,262.4844 350.3125,262.4844 C351.5313,262.4844 352.6875,262.1875 353.4375,261.6406 C354.0156,261.2344 354.3438,260.7813 354.3438,260.3906 C354.3438,259.9375 353.9531,259.5469 353.4844,259.5469 C353.2656,259.5469 353.0625,259.625 352.875,259.8125 C352.4219,260.2969 352.4219,260.2969 352.2344,260.3906 C351.8125,260.6563 351.125,260.7813 350.3594,260.7813 C348.3125,260.7813 347.0156,259.6875 347.0156,257.9844 L347.0156,256.8906 C347.0156,255.1094 348.2656,253.7969 350,253.7969 C350.5781,253.7969 351.1875,253.9531 351.6563,254.2031 C352.1406,254.4844 352.3125,254.7031 352.4063,255.1094 C352.4688,255.5156 352.5,255.6406 352.6406,255.7656 C352.7813,255.9063 353.0156,256.0156 353.2344,256.0156 C353.5,256.0156 353.7656,255.875 353.9375,255.6563 C354.0469,255.5 354.0781,255.3125 354.0781,254.8906 L354.0781,253.4688 C354.0781,253.0313 354.0625,252.9063 353.9688,252.75 C353.8125,252.4844 353.5313,252.3438 353.2344,252.3438 C352.9375,252.3438 352.7344,252.4375 352.5156,252.75 L352.3438,252.6719 Z " fill="#000000"/><text fill="#000000" font-family="sans-serif" font-size="14" lengthAdjust="spacing" textLength="129" x="364" y="261.8467">ConcreteFactory2</text><line style="stroke:#181818;stroke-width:0.5;" x1="336" x2="495" y1="273" y2="273"/><line style="stroke:#181818;stroke-width:0.5;" x1="336" x2="495" y1="281" y2="281"/></g><!--class ProductA1--><g id="elem_ProductA1"><rect fill="#F1F1F1" height="48" id="ProductA1" rx="2.5" ry="2.5" style="stroke:#181818;stroke-width:0.5;" width="107" x="354" y="366"/><ellipse cx="369" cy="382" fill="#ADD1B2" rx="11" ry="11" style="stroke:#181818;stroke-width:1.0;"/><path d="M371.3438,377.6719 C370.4063,377.2344 369.8125,377.0938 368.9375,377.0938 C366.3125,377.0938 364.3125,379.1719 364.3125,381.8906 L364.3125,383.0156 C364.3125,385.5938 366.4219,387.4844 369.3125,387.4844 C370.5313,387.4844 371.6875,387.1875 372.4375,386.6406 C373.0156,386.2344 373.3438,385.7813 373.3438,385.3906 C373.3438,384.9375 372.9531,384.5469 372.4844,384.5469 C372.2656,384.5469 372.0625,384.625 371.875,384.8125 C371.4219,385.2969 371.4219,385.2969 371.2344,385.3906 C370.8125,385.6563 370.125,385.7813 369.3594,385.7813 C367.3125,385.7813 366.0156,384.6875 366.0156,382.9844 L366.0156,381.8906 C366.0156,380.1094 367.2656,378.7969 369,378.7969 C369.5781,378.7969 370.1875,378.9531 370.6563,379.2031 C371.1406,379.4844 371.3125,379.7031 371.4063,380.1094 C371.4688,380.5156 371.5,380.6406 371.6406,380.7656 C371.7813,380.9063 372.0156,381.0156 372.2344,381.0156 C372.5,381.0156 372.7656,380.875 372.9375,380.6563 C373.0469,380.5 373.0781,380.3125 373.0781,379.8906 L373.0781,378.4688 C373.0781,378.0313 373.0625,377.9063 372.9688,377.75 C372.8125,377.4844 372.5313,377.3438 372.2344,377.3438 C371.9375,377.3438 371.7344,377.4375 371.5156,377.75 L371.3438,377.6719 Z " fill="#000000"/><text fill="#000000" font-family="sans-serif" font-size="14" lengthAdjust="spacing" textLength="75" x="383" y="386.8467">ProductA1</text><line style="stroke:#181818;stroke-width:0.5;" x1="355" x2="460" y1="398" y2="398"/><line style="stroke:#181818;stroke-width:0.5;" x1="355" x2="460" y1="406" y2="406"/></g><!--class ProductA2--><g id="elem_ProductA2"><rect fill="#F1F1F1" height="48" id="ProductA2" rx="2.5" ry="2.5" style="stroke:#181818;stroke-width:0.5;" width="106" x="503.5" y="366"/><ellipse cx="518.5" cy="382" fill="#ADD1B2" rx="11" ry="11" style="stroke:#181818;stroke-width:1.0;"/><path d="M520.8438,377.6719 C519.9063,377.2344 519.3125,377.0938 518.4375,377.0938 C515.8125,377.0938 513.8125,379.1719 513.8125,381.8906 L513.8125,383.0156 C513.8125,385.5938 515.9219,387.4844 518.8125,387.4844 C520.0313,387.4844 521.1875,387.1875 521.9375,386.6406 C522.5156,386.2344 522.8438,385.7813 522.8438,385.3906 C522.8438,384.9375 522.4531,384.5469 521.9844,384.5469 C521.7656,384.5469 521.5625,384.625 521.375,384.8125 C520.9219,385.2969 520.9219,385.2969 520.7344,385.3906 C520.3125,385.6563 519.625,385.7813 518.8594,385.7813 C516.8125,385.7813 515.5156,384.6875 515.5156,382.9844 L515.5156,381.8906 C515.5156,380.1094 516.7656,378.7969 518.5,378.7969 C519.0781,378.7969 519.6875,378.9531 520.1563,379.2031 C520.6406,379.4844 520.8125,379.7031 520.9063,380.1094 C520.9688,380.5156 521,380.6406 521.1406,380.7656 C521.2813,380.9063 521.5156,381.0156 521.7344,381.0156 C522,381.0156 522.2656,380.875 522.4375,380.6563 C522.5469,380.5 522.5781,380.3125 522.5781,379.8906 L522.5781,378.4688 C522.5781,378.0313 522.5625,377.9063 522.4688,377.75 C522.3125,377.4844 522.0313,377.3438 521.7344,377.3438 C521.4375,377.3438 521.2344,377.4375 521.0156,377.75 L520.8438,377.6719 Z " fill="#000000"/><text fill="#000000" font-family="sans-serif" font-size="14" lengthAdjust="spacing" textLength="74" x="532.5" y="386.8467">ProductA2</text><line style="stroke:#181818;stroke-width:0.5;" x1="504.5" x2="608.5" y1="398" y2="398"/><line style="stroke:#181818;stroke-width:0.5;" x1="504.5" x2="608.5" y1="406" y2="406"/></g><!--class ProductB1--><g id="elem_ProductB1"><rect fill="#F1F1F1" height="48" id="ProductB1" rx="2.5" ry="2.5" style="stroke:#181818;stroke-width:0.5;" width="107" x="28" y="366"/><ellipse cx="43" cy="382" fill="#ADD1B2" rx="11" ry="11" style="stroke:#181818;stroke-width:1.0;"/><path d="M45.3438,377.6719 C44.4063,377.2344 43.8125,377.0938 42.9375,377.0938 C40.3125,377.0938 38.3125,379.1719 38.3125,381.8906 L38.3125,383.0156 C38.3125,385.5938 40.4219,387.4844 43.3125,387.4844 C44.5313,387.4844 45.6875,387.1875 46.4375,386.6406 C47.0156,386.2344 47.3438,385.7813 47.3438,385.3906 C47.3438,384.9375 46.9531,384.5469 46.4844,384.5469 C46.2656,384.5469 46.0625,384.625 45.875,384.8125 C45.4219,385.2969 45.4219,385.2969 45.2344,385.3906 C44.8125,385.6563 44.125,385.7813 43.3594,385.7813 C41.3125,385.7813 40.0156,384.6875 40.0156,382.9844 L40.0156,381.8906 C40.0156,380.1094 41.2656,378.7969 43,378.7969 C43.5781,378.7969 44.1875,378.9531 44.6563,379.2031 C45.1406,379.4844 45.3125,379.7031 45.4063,380.1094 C45.4688,380.5156 45.5,380.6406 45.6406,380.7656 C45.7813,380.9063 46.0156,381.0156 46.2344,381.0156 C46.5,381.0156 46.7656,380.875 46.9375,380.6563 C47.0469,380.5 47.0781,380.3125 47.0781,379.8906 L47.0781,378.4688 C47.0781,378.0313 47.0625,377.9063 46.9688,377.75 C46.8125,377.4844 46.5313,377.3438 46.2344,377.3438 C45.9375,377.3438 45.7344,377.4375 45.5156,377.75 L45.3438,377.6719 Z " fill="#000000"/><text fill="#000000" font-family="sans-serif" font-size="14" lengthAdjust="spacing" textLength="75" x="57" y="386.8467">ProductB1</text><line style="stroke:#181818;stroke-width:0.5;" x1="29" x2="134" y1="398" y2="398"/><line style="stroke:#181818;stroke-width:0.5;" x1="29" x2="134" y1="406" y2="406"/></g><!--class ProductB2--><g id="elem_ProductB2"><rect fill="#F1F1F1" height="48" id="ProductB2" rx="2.5" ry="2.5" style="stroke:#181818;stroke-width:0.5;" width="106" x="198.5" y="366"/><ellipse cx="213.5" cy="382" fill="#ADD1B2" rx="11" ry="11" style="stroke:#181818;stroke-width:1.0;"/><path d="M215.8438,377.6719 C214.9063,377.2344 214.3125,377.0938 213.4375,377.0938 C210.8125,377.0938 208.8125,379.1719 208.8125,381.8906 L208.8125,383.0156 C208.8125,385.5938 210.9219,387.4844 213.8125,387.4844 C215.0313,387.4844 216.1875,387.1875 216.9375,386.6406 C217.5156,386.2344 217.8438,385.7813 217.8438,385.3906 C217.8438,384.9375 217.4531,384.5469 216.9844,384.5469 C216.7656,384.5469 216.5625,384.625 216.375,384.8125 C215.9219,385.2969 215.9219,385.2969 215.7344,385.3906 C215.3125,385.6563 214.625,385.7813 213.8594,385.7813 C211.8125,385.7813 210.5156,384.6875 210.5156,382.9844 L210.5156,381.8906 C210.5156,380.1094 211.7656,378.7969 213.5,378.7969 C214.0781,378.7969 214.6875,378.9531 215.1563,379.2031 C215.6406,379.4844 215.8125,379.7031 215.9063,380.1094 C215.9688,380.5156 216,380.6406 216.1406,380.7656 C216.2813,380.9063 216.5156,381.0156 216.7344,381.0156 C217,381.0156 217.2656,380.875 217.4375,380.6563 C217.5469,380.5 217.5781,380.3125 217.5781,379.8906 L217.5781,378.4688 C217.5781,378.0313 217.5625,377.9063 217.4688,377.75 C217.3125,377.4844 217.0313,377.3438 216.7344,377.3438 C216.4375,377.3438 216.2344,377.4375 216.0156,377.75 L215.8438,377.6719 Z " fill="#000000"/><text fill="#000000" font-family="sans-serif" font-size="14" lengthAdjust="spacing" textLength="74" x="227.5" y="386.8467">ProductB2</text><line style="stroke:#181818;stroke-width:0.5;" x1="199.5" x2="303.5" y1="398" y2="398"/><line style="stroke:#181818;stroke-width:0.5;" x1="199.5" x2="303.5" y1="406" y2="406"/></g><!--link Client to AbstractFactory--><g id="link_Client_AbstractFactory"><path codeLine="5" d="M306.5,55.135 C306.5,75.494 306.5,105.191 306.5,126.908 " fill="none" id="Client-to-AbstractFactory" style="stroke:#181818;stroke-width:1.0;"/><polygon fill="#181818" points="306.5,131.968,310.5,122.968,306.5,126.968,302.5,122.968,306.5,131.968" style="stroke:#181818;stroke-width:1.0;"/><text fill="#000000" font-family="sans-serif" font-size="13" lengthAdjust="spacing" textLength="58" x="307.5" y="98.0669">«import»</text></g><!--link Client to AbstractProductA--><g id="link_Client_AbstractProductA"><path codeLine="6" d="M336.561,55.093 C392.946,98.409 514.258,191.602 573.925,237.439 " fill="none" id="Client-to-AbstractProductA" style="stroke:#181818;stroke-width:1.0;"/><polygon fill="#181818" points="578.112,240.656,573.4106,232.0017,574.1465,237.6105,568.5378,238.3464,578.112,240.656" style="stroke:#181818;stroke-width:1.0;"/><text fill="#000000" font-family="sans-serif" font-size="13" lengthAdjust="spacing" textLength="58" x="498.5" y="160.5669">«import»</text></g><!--link Client to AbstractProductB--><g id="link_Client_AbstractProductB"><path codeLine="7" d="M268.841,52.865 C230.646,74.027 171.483,106.807 130.529,129.498 " fill="none" id="Client-to-AbstractProductB" style="stroke:#181818;stroke-width:1.0;"/><polygon fill="#181818" points="126.126,131.937,135.937,131.074,130.4995,129.5138,132.0598,124.0763,126.126,131.937" style="stroke:#181818;stroke-width:1.0;"/><text fill="#000000" font-family="sans-serif" font-size="13" lengthAdjust="spacing" textLength="58" x="210.5" y="98.0669">«import»</text></g><!--reverse link AbstractFactory to ConcreteFactory1--><g id="link_AbstractFactory_ConcreteFactory1"><path codeLine="9" d="M274.672,195.7 C262.235,210.822 248.39,227.656 237.557,240.828 " fill="none" id="AbstractFactory-backto-ConcreteFactory1" style="stroke:#181818;stroke-width:1.0;stroke-dasharray:7.0,7.0;"/><polygon fill="none" points="269.295,191.218,287.405,180.217,280.108,200.111,269.295,191.218" style="stroke:#181818;stroke-width:1.0;"/></g><!--reverse link AbstractFactory to ConcreteFactory2--><g id="link_AbstractFactory_ConcreteFactory2"><path codeLine="10" d="M344.454,194.258 C360.23,209.744 378.049,227.236 391.895,240.828 " fill="none" id="AbstractFactory-backto-ConcreteFactory2" style="stroke:#181818;stroke-width:1.0;stroke-dasharray:7.0,7.0;"/><polygon fill="none" points="339.52,199.223,330.151,180.217,349.328,189.233,339.52,199.223" style="stroke:#181818;stroke-width:1.0;"/></g><!--reverse link AbstractProductA to ProductA1--><g id="link_AbstractProductA_ProductA1"><path codeLine="12" d="M595.541,307.855 C590.655,318.2052 584.119,328.4723 575.5,336 C570.979,339.9483 508.817,358.9878 461.413,373.1232 " fill="none" id="AbstractProductA-backto-ProductA1" style="stroke:#181818;stroke-width:1.0;stroke-dasharray:7.0,7.0;"/><polygon fill="none" points="589.051,305.23,602.831,289.133,602.097,310.31,589.051,305.23" style="stroke:#181818;stroke-width:1.0;"/></g><!--reverse link AbstractProductA to ProductA2--><g id="link_AbstractProductA_ProductA2"><path codeLine="13" d="M620.505,309.061 C621.139,318.2391 620.257,327.6693 616.5,336 C611.244,347.6564 602.016,357.7798 592.351,365.9665 " fill="none" id="AbstractProductA-backto-ProductA2" style="stroke:#181818;stroke-width:1.0;stroke-dasharray:7.0,7.0;"/><polygon fill="none" points="613.603,310.226,617.071,289.322,627.396,307.826,613.603,310.226" style="stroke:#181818;stroke-width:1.0;"/></g><!--reverse link AbstractProductB to ProductB1--><g id="link_AbstractProductB_ProductB1"><path codeLine="15" d="M62.0327,198.404 C60.6117,202.245 59.3949,206.144 58.5,210 C45.8404,264.55 47.1157,281.169 58.5,336 C60.6207,346.2138 64.8142,356.876 69.0464,365.9366 " fill="none" id="AbstractProductB-backto-ProductB1" style="stroke:#181818;stroke-width:1.0;stroke-dasharray:7.0,7.0;"/><polygon fill="none" points="55.6725,195.48,70.2971,180.146,68.4267,201.253,55.6725,195.48" style="stroke:#181818;stroke-width:1.0;"/></g><!--reverse link AbstractProductB to ProductB2--><g id="link_AbstractProductB_ProductB2"><path codeLine="16" d="M81.0354,200.373 C80.2391,239.978 85.3274,297.983 116.5,336 C136.696,360.6301 169.896,373.86 198.317,380.9423 " fill="none" id="AbstractProductB-backto-ProductB2" style="stroke:#181818;stroke-width:1.0;stroke-dasharray:7.0,7.0;"/><polygon fill="none" points="74.0497,199.899,81.9737,180.247,88.0345,200.551,74.0497,199.899" style="stroke:#181818;stroke-width:1.0;"/></g><!--link ConcreteFactory1 to ProductA1--><g id="link_ConcreteFactory1_ProductA1"><path codeLine="18" d="M224.963,289.033 C230.326,304.27 239.395,323.6461 253.5,336 C268.157,348.8368 311.662,363.2121 348.709,373.7494 " fill="none" id="ConcreteFactory1-to-ProductA1" style="stroke:#181818;stroke-width:1.0;stroke-dasharray:7.0,7.0;"/><polygon fill="#181818" points="353.656,375.145,346.0796,368.8523,348.8437,373.7879,343.9082,376.552,353.656,375.145" style="stroke:#181818;stroke-width:1.0;"/><text fill="#000000" font-family="sans-serif" font-size="13" lengthAdjust="spacing" textLength="76" x="254.5" y="332.0669">«instatiate»</text></g><!--link ConcreteFactory1 to ProductB1--><g id="link_ConcreteFactory1_ProductB1"><path codeLine="19" d="M179.09,289.244 C165.9,297.837 151.508,308.147 139.5,319 C125.387,331.7549 111.706,348.0165 101.1793,361.6553 " fill="none" id="ConcreteFactory1-to-ProductB1" style="stroke:#181818;stroke-width:1.0;stroke-dasharray:7.0,7.0;"/><polygon fill="#181818" points="98.0166,365.797,106.6578,361.0716,101.0511,361.8231,100.2996,356.2164,98.0166,365.797" style="stroke:#181818;stroke-width:1.0;"/><text fill="#000000" font-family="sans-serif" font-size="13" lengthAdjust="spacing" textLength="76" x="140.5" y="332.0669">«instatiate»</text></g><!--link ConcreteFactory2 to ProductA2--><g id="link_ConcreteFactory2_ProductA2"><path codeLine="21" d="M442.021,289.135 C465.949,310.009 501.132,340.7003 526.17,362.5418 " fill="none" id="ConcreteFactory2-to-ProductA2" style="stroke:#181818;stroke-width:1.0;stroke-dasharray:7.0,7.0;"/><polygon fill="#181818" points="530.098,365.9684,525.9437,357.0386,526.3295,362.6823,520.6859,363.0682,530.098,365.9684" style="stroke:#181818;stroke-width:1.0;"/><text fill="#000000" font-family="sans-serif" font-size="13" lengthAdjust="spacing" textLength="76" x="495.5" y="332.0669">«instatiate»</text></g><!--link ConcreteFactory2 to ProductB2--><g id="link_ConcreteFactory2_ProductB2"><path codeLine="22" d="M392.947,289.04 C378.358,303.356 358.591,321.6908 339.5,336 C326.678,345.6102 312.018,355.0029 298.388,363.147 " fill="none" id="ConcreteFactory2-to-ProductB2" style="stroke:#181818;stroke-width:1.0;stroke-dasharray:7.0,7.0;"/><polygon fill="#181818" points="293.809,365.8596,303.591,364.7135,298.1107,363.311,299.5132,357.8308,293.809,365.8596" style="stroke:#181818;stroke-width:1.0;"/><text fill="#000000" font-family="sans-serif" font-size="13" lengthAdjust="spacing" textLength="76" x="360.5" y="332.0669">«instatiate»</text></g><!--SRC=[ZP1D2i8m48NtEKKkq81PIWbq2gwzGemH0fgKwNGXU7X_C9Lq6dKH2Cptthnv8PB7atLUTeUHq3hQFLx2gmXiiiTqd1nrzH48qP-3ZoIRnYmTjx9jmsL8ICQiOTd-JmuAJlGfElJatyisKas3kh4GIqxNE97ZCAUvXlpHLI8ZK3E1cT1LWfycbJBoa-zLH1p9Kh3adwLz4y2AWBTIhD0_LvG2u88x]--></g></svg>