<?xml version="1.0" encoding="UTF-8" standalone="no"?><svg xmlns="http://www.w3.org/2000/svg" xmlns:xlink="http://www.w3.org/1999/xlink" contentStyleType="text/css" height="487px" preserveAspectRatio="none" style="width:938px;height:487px;background:#FFFFFF;" version="1.1" viewBox="0 0 938 487" width="938px" zoomAndPan="magnify"><defs/><g><!--class AbstractFactory--><g id="elem_AbstractFactory"><rect codeLine="1" fill="#F1F1F1" height="80.5938" id="AbstractFactory" rx="2.5" ry="2.5" style="stroke:#181818;stroke-width:0.5;" width="284" x="273.5" y="132"/><ellipse cx="355.25" cy="148" fill="#B4A7E5" rx="11" ry="11" style="stroke:#181818;stroke-width:1.0;"/><path d="M356.2031,144.7813 L357.9219,144.7813 C358.3125,144.7813 358.5,144.75 358.625,144.6719 C358.8906,144.5156 359.0313,144.2344 359.0313,143.9375 C359.0313,143.6719 358.9219,143.4063 358.6875,143.2344 C358.5156,143.125 358.375,143.0938 357.9219,143.0938 L352.7813,143.0938 C352.3438,143.0938 352.2188,143.1094 352.0625,143.2031 C351.8125,143.3594 351.6563,143.6563 351.6563,143.9375 C351.6563,144.2188 351.7969,144.4688 352.0156,144.6406 C352.1719,144.75 352.3594,144.7813 352.7813,144.7813 L354.5,144.7813 L354.5,151.2969 L352.7813,151.2969 C352.3438,151.2969 352.2188,151.3125 352.0625,151.4219 C351.8125,151.5781 351.6563,151.8594 351.6563,152.1563 C351.6563,152.4063 351.7969,152.6719 352.0156,152.8281 C352.1719,152.9531 352.375,153 352.7813,153 L357.9219,153 C358.6719,153 359.0313,152.7188 359.0313,152.1563 C359.0313,151.875 358.9219,151.625 358.6875,151.4531 C358.5156,151.3281 358.375,151.2969 357.9219,151.2969 L356.2031,151.2969 L356.2031,144.7813 Z " fill="#000000"/><text fill="#000000" font-family="sans-serif" font-size="14" font-style="italic" lengthAdjust="spacing" textLength="112" x="375.75" y="152.8467">AbstractFactory</text><line style="stroke:#181818;stroke-width:0.5;" x1="274.5" x2="556.5" y1="164" y2="164"/><line style="stroke:#181818;stroke-width:0.5;" x1="274.5" x2="556.5" y1="172" y2="172"/><ellipse cx="284.5" cy="185.6484" fill="#84BE84" rx="3" ry="3" style="stroke:#038048;stroke-width:1.0;"/><text fill="#000000" font-family="sans-serif" font-size="14" lengthAdjust="spacing" textLength="258" x="293.5" y="188.9951">AbstractProductA CreateProductA()</text><ellipse cx="284.5" cy="201.9453" fill="#84BE84" rx="3" ry="3" style="stroke:#038048;stroke-width:1.0;"/><text fill="#000000" font-family="sans-serif" font-size="14" lengthAdjust="spacing" textLength="258" x="293.5" y="205.292">AbstractProductB CreateProductB()</text></g><!--class AbstractProductA--><g id="elem_AbstractProductA"><rect codeLine="5" fill="#F1F1F1" height="48" id="AbstractProductA" rx="2.5" ry="2.5" style="stroke:#181818;stroke-width:0.5;" width="155" x="776" y="290.5"/><ellipse cx="791" cy="306.5" fill="#B4A7E5" rx="11" ry="11" style="stroke:#181818;stroke-width:1.0;"/><path d="M791.9531,303.2813 L793.6719,303.2813 C794.0625,303.2813 794.25,303.25 794.375,303.1719 C794.6406,303.0156 794.7813,302.7344 794.7813,302.4375 C794.7813,302.1719 794.6719,301.9063 794.4375,301.7344 C794.2656,301.625 794.125,301.5938 793.6719,301.5938 L788.5313,301.5938 C788.0938,301.5938 787.9688,301.6094 787.8125,301.7031 C787.5625,301.8594 787.4063,302.1563 787.4063,302.4375 C787.4063,302.7188 787.5469,302.9688 787.7656,303.1406 C787.9219,303.25 788.1094,303.2813 788.5313,303.2813 L790.25,303.2813 L790.25,309.7969 L788.5313,309.7969 C788.0938,309.7969 787.9688,309.8125 787.8125,309.9219 C787.5625,310.0781 787.4063,310.3594 787.4063,310.6563 C787.4063,310.9063 787.5469,311.1719 787.7656,311.3281 C787.9219,311.4531 788.125,311.5 788.5313,311.5 L793.6719,311.5 C794.4219,311.5 794.7813,311.2188 794.7813,310.6563 C794.7813,310.375 794.6719,310.125 794.4375,309.9531 C794.2656,309.8281 794.125,309.7969 793.6719,309.7969 L791.9531,309.7969 L791.9531,303.2813 Z " fill="#000000"/><text fill="#000000" font-family="sans-serif" font-size="14" font-style="italic" lengthAdjust="spacing" textLength="123" x="805" y="311.3467">AbstractProductA</text><line style="stroke:#181818;stroke-width:0.5;" x1="777" x2="930" y1="322.5" y2="322.5"/><line style="stroke:#181818;stroke-width:0.5;" x1="777" x2="930" y1="330.5" y2="330.5"/></g><!--class AbstractProductB--><g id="elem_AbstractProductB"><rect codeLine="6" fill="#F1F1F1" height="48" id="AbstractProductB" rx="2.5" ry="2.5" style="stroke:#181818;stroke-width:0.5;" width="155" x="7" y="148.5"/><ellipse cx="22" cy="164.5" fill="#B4A7E5" rx="11" ry="11" style="stroke:#181818;stroke-width:1.0;"/><path d="M22.9531,161.2813 L24.6719,161.2813 C25.0625,161.2813 25.25,161.25 25.375,161.1719 C25.6406,161.0156 25.7813,160.7344 25.7813,160.4375 C25.7813,160.1719 25.6719,159.9063 25.4375,159.7344 C25.2656,159.625 25.125,159.5938 24.6719,159.5938 L19.5313,159.5938 C19.0938,159.5938 18.9688,159.6094 18.8125,159.7031 C18.5625,159.8594 18.4063,160.1563 18.4063,160.4375 C18.4063,160.7188 18.5469,160.9688 18.7656,161.1406 C18.9219,161.25 19.1094,161.2813 19.5313,161.2813 L21.25,161.2813 L21.25,167.7969 L19.5313,167.7969 C19.0938,167.7969 18.9688,167.8125 18.8125,167.9219 C18.5625,168.0781 18.4063,168.3594 18.4063,168.6563 C18.4063,168.9063 18.5469,169.1719 18.7656,169.3281 C18.9219,169.4531 19.125,169.5 19.5313,169.5 L24.6719,169.5 C25.4219,169.5 25.7813,169.2188 25.7813,168.6563 C25.7813,168.375 25.6719,168.125 25.4375,167.9531 C25.2656,167.8281 25.125,167.7969 24.6719,167.7969 L22.9531,167.7969 L22.9531,161.2813 Z " fill="#000000"/><text fill="#000000" font-family="sans-serif" font-size="14" font-style="italic" lengthAdjust="spacing" textLength="123" x="36" y="169.3467">AbstractProductB</text><line style="stroke:#181818;stroke-width:0.5;" x1="8" x2="161" y1="180.5" y2="180.5"/><line style="stroke:#181818;stroke-width:0.5;" x1="8" x2="161" y1="188.5" y2="188.5"/></g><!--class ConcreteFactory1--><g id="elem_ConcreteFactory1"><rect codeLine="8" fill="#F1F1F1" height="80.5938" id="ConcreteFactory1" rx="2.5" ry="2.5" style="stroke:#181818;stroke-width:0.5;" width="284" x="137.5" y="274"/><ellipse cx="210.25" cy="290" fill="#ADD1B2" rx="11" ry="11" style="stroke:#181818;stroke-width:1.0;"/><path d="M212.5938,285.6719 C211.6563,285.2344 211.0625,285.0938 210.1875,285.0938 C207.5625,285.0938 205.5625,287.1719 205.5625,289.8906 L205.5625,291.0156 C205.5625,293.5938 207.6719,295.4844 210.5625,295.4844 C211.7813,295.4844 212.9375,295.1875 213.6875,294.6406 C214.2656,294.2344 214.5938,293.7813 214.5938,293.3906 C214.5938,292.9375 214.2031,292.5469 213.7344,292.5469 C213.5156,292.5469 213.3125,292.625 213.125,292.8125 C212.6719,293.2969 212.6719,293.2969 212.4844,293.3906 C212.0625,293.6563 211.375,293.7813 210.6094,293.7813 C208.5625,293.7813 207.2656,292.6875 207.2656,290.9844 L207.2656,289.8906 C207.2656,288.1094 208.5156,286.7969 210.25,286.7969 C210.8281,286.7969 211.4375,286.9531 211.9063,287.2031 C212.3906,287.4844 212.5625,287.7031 212.6563,288.1094 C212.7188,288.5156 212.75,288.6406 212.8906,288.7656 C213.0313,288.9063 213.2656,289.0156 213.4844,289.0156 C213.75,289.0156 214.0156,288.875 214.1875,288.6563 C214.2969,288.5 214.3281,288.3125 214.3281,287.8906 L214.3281,286.4688 C214.3281,286.0313 214.3125,285.9063 214.2188,285.75 C214.0625,285.4844 213.7813,285.3438 213.4844,285.3438 C213.1875,285.3438 212.9844,285.4375 212.7656,285.75 L212.5938,285.6719 Z " fill="#000000"/><text fill="#000000" font-family="sans-serif" font-size="14" lengthAdjust="spacing" textLength="130" x="230.75" y="294.8467">ConcreteFactory1</text><line style="stroke:#181818;stroke-width:0.5;" x1="138.5" x2="420.5" y1="306" y2="306"/><line style="stroke:#181818;stroke-width:0.5;" x1="138.5" x2="420.5" y1="314" y2="314"/><ellipse cx="148.5" cy="327.6484" fill="#84BE84" rx="3" ry="3" style="stroke:#038048;stroke-width:1.0;"/><text fill="#000000" font-family="sans-serif" font-size="14" lengthAdjust="spacing" textLength="258" x="157.5" y="330.9951">AbstractProductA CreateProductA()</text><ellipse cx="148.5" cy="343.9453" fill="#84BE84" rx="3" ry="3" style="stroke:#038048;stroke-width:1.0;"/><text fill="#000000" font-family="sans-serif" font-size="14" lengthAdjust="spacing" textLength="258" x="157.5" y="347.292">AbstractProductB CreateProductB()</text></g><!--class ConcreteFactory2--><g id="elem_ConcreteFactory2"><rect codeLine="13" fill="#F1F1F1" height="80.5938" id="ConcreteFactory2" rx="2.5" ry="2.5" style="stroke:#181818;stroke-width:0.5;" width="284" x="456.5" y="274"/><ellipse cx="529.75" cy="290" fill="#ADD1B2" rx="11" ry="11" style="stroke:#181818;stroke-width:1.0;"/><path d="M532.0938,285.6719 C531.1563,285.2344 530.5625,285.0938 529.6875,285.0938 C527.0625,285.0938 525.0625,287.1719 525.0625,289.8906 L525.0625,291.0156 C525.0625,293.5938 527.1719,295.4844 530.0625,295.4844 C531.2813,295.4844 532.4375,295.1875 533.1875,294.6406 C533.7656,294.2344 534.0938,293.7813 534.0938,293.3906 C534.0938,292.9375 533.7031,292.5469 533.2344,292.5469 C533.0156,292.5469 532.8125,292.625 532.625,292.8125 C532.1719,293.2969 532.1719,293.2969 531.9844,293.3906 C531.5625,293.6563 530.875,293.7813 530.1094,293.7813 C528.0625,293.7813 526.7656,292.6875 526.7656,290.9844 L526.7656,289.8906 C526.7656,288.1094 528.0156,286.7969 529.75,286.7969 C530.3281,286.7969 530.9375,286.9531 531.4063,287.2031 C531.8906,287.4844 532.0625,287.7031 532.1563,288.1094 C532.2188,288.5156 532.25,288.6406 532.3906,288.7656 C532.5313,288.9063 532.7656,289.0156 532.9844,289.0156 C533.25,289.0156 533.5156,288.875 533.6875,288.6563 C533.7969,288.5 533.8281,288.3125 533.8281,287.8906 L533.8281,286.4688 C533.8281,286.0313 533.8125,285.9063 533.7188,285.75 C533.5625,285.4844 533.2813,285.3438 532.9844,285.3438 C532.6875,285.3438 532.4844,285.4375 532.2656,285.75 L532.0938,285.6719 Z " fill="#000000"/><text fill="#000000" font-family="sans-serif" font-size="14" lengthAdjust="spacing" textLength="129" x="550.25" y="294.8467">ConcreteFactory2</text><line style="stroke:#181818;stroke-width:0.5;" x1="457.5" x2="739.5" y1="306" y2="306"/><line style="stroke:#181818;stroke-width:0.5;" x1="457.5" x2="739.5" y1="314" y2="314"/><ellipse cx="467.5" cy="327.6484" fill="#84BE84" rx="3" ry="3" style="stroke:#038048;stroke-width:1.0;"/><text fill="#000000" font-family="sans-serif" font-size="14" lengthAdjust="spacing" textLength="258" x="476.5" y="330.9951">AbstractProductA CreateProductA()</text><ellipse cx="467.5" cy="343.9453" fill="#84BE84" rx="3" ry="3" style="stroke:#038048;stroke-width:1.0;"/><text fill="#000000" font-family="sans-serif" font-size="14" lengthAdjust="spacing" textLength="258" x="476.5" y="347.292">AbstractProductB CreateProductB()</text></g><!--class Client--><g id="elem_Client"><rect fill="#F1F1F1" height="48" id="Client" rx="2.5" ry="2.5" style="stroke:#181818;stroke-width:0.5;" width="75" x="378" y="7"/><ellipse cx="393" cy="23" fill="#ADD1B2" rx="11" ry="11" style="stroke:#181818;stroke-width:1.0;"/><path d="M395.3438,18.6719 C394.4063,18.2344 393.8125,18.0938 392.9375,18.0938 C390.3125,18.0938 388.3125,20.1719 388.3125,22.8906 L388.3125,24.0156 C388.3125,26.5938 390.4219,28.4844 393.3125,28.4844 C394.5313,28.4844 395.6875,28.1875 396.4375,27.6406 C397.0156,27.2344 397.3438,26.7813 397.3438,26.3906 C397.3438,25.9375 396.9531,25.5469 396.4844,25.5469 C396.2656,25.5469 396.0625,25.625 395.875,25.8125 C395.4219,26.2969 395.4219,26.2969 395.2344,26.3906 C394.8125,26.6563 394.125,26.7813 393.3594,26.7813 C391.3125,26.7813 390.0156,25.6875 390.0156,23.9844 L390.0156,22.8906 C390.0156,21.1094 391.2656,19.7969 393,19.7969 C393.5781,19.7969 394.1875,19.9531 394.6563,20.2031 C395.1406,20.4844 395.3125,20.7031 395.4063,21.1094 C395.4688,21.5156 395.5,21.6406 395.6406,21.7656 C395.7813,21.9063 396.0156,22.0156 396.2344,22.0156 C396.5,22.0156 396.7656,21.875 396.9375,21.6563 C397.0469,21.5 397.0781,21.3125 397.0781,20.8906 L397.0781,19.4688 C397.0781,19.0313 397.0625,18.9063 396.9688,18.75 C396.8125,18.4844 396.5313,18.3438 396.2344,18.3438 C395.9375,18.3438 395.7344,18.4375 395.5156,18.75 L395.3438,18.6719 Z " fill="#000000"/><text fill="#000000" font-family="sans-serif" font-size="14" lengthAdjust="spacing" textLength="43" x="407" y="27.8467">Client</text><line style="stroke:#181818;stroke-width:0.5;" x1="379" x2="452" y1="39" y2="39"/><line style="stroke:#181818;stroke-width:0.5;" x1="379" x2="452" y1="47" y2="47"/></g><!--class ProductA1--><g id="elem_ProductA1"><rect fill="#F1F1F1" height="48" id="ProductA1" rx="2.5" ry="2.5" style="stroke:#181818;stroke-width:0.5;" width="107" x="440" y="432"/><ellipse cx="455" cy="448" fill="#ADD1B2" rx="11" ry="11" style="stroke:#181818;stroke-width:1.0;"/><path d="M457.3438,443.6719 C456.4063,443.2344 455.8125,443.0938 454.9375,443.0938 C452.3125,443.0938 450.3125,445.1719 450.3125,447.8906 L450.3125,449.0156 C450.3125,451.5938 452.4219,453.4844 455.3125,453.4844 C456.5313,453.4844 457.6875,453.1875 458.4375,452.6406 C459.0156,452.2344 459.3438,451.7813 459.3438,451.3906 C459.3438,450.9375 458.9531,450.5469 458.4844,450.5469 C458.2656,450.5469 458.0625,450.625 457.875,450.8125 C457.4219,451.2969 457.4219,451.2969 457.2344,451.3906 C456.8125,451.6563 456.125,451.7813 455.3594,451.7813 C453.3125,451.7813 452.0156,450.6875 452.0156,448.9844 L452.0156,447.8906 C452.0156,446.1094 453.2656,444.7969 455,444.7969 C455.5781,444.7969 456.1875,444.9531 456.6563,445.2031 C457.1406,445.4844 457.3125,445.7031 457.4063,446.1094 C457.4688,446.5156 457.5,446.6406 457.6406,446.7656 C457.7813,446.9063 458.0156,447.0156 458.2344,447.0156 C458.5,447.0156 458.7656,446.875 458.9375,446.6563 C459.0469,446.5 459.0781,446.3125 459.0781,445.8906 L459.0781,444.4688 C459.0781,444.0313 459.0625,443.9063 458.9688,443.75 C458.8125,443.4844 458.5313,443.3438 458.2344,443.3438 C457.9375,443.3438 457.7344,443.4375 457.5156,443.75 L457.3438,443.6719 Z " fill="#000000"/><text fill="#000000" font-family="sans-serif" font-size="14" lengthAdjust="spacing" textLength="75" x="469" y="452.8467">ProductA1</text><line style="stroke:#181818;stroke-width:0.5;" x1="441" x2="546" y1="464" y2="464"/><line style="stroke:#181818;stroke-width:0.5;" x1="441" x2="546" y1="472" y2="472"/></g><!--class ProductA2--><g id="elem_ProductA2"><rect fill="#F1F1F1" height="48" id="ProductA2" rx="2.5" ry="2.5" style="stroke:#181818;stroke-width:0.5;" width="106" x="590.5" y="432"/><ellipse cx="605.5" cy="448" fill="#ADD1B2" rx="11" ry="11" style="stroke:#181818;stroke-width:1.0;"/><path d="M607.8438,443.6719 C606.9063,443.2344 606.3125,443.0938 605.4375,443.0938 C602.8125,443.0938 600.8125,445.1719 600.8125,447.8906 L600.8125,449.0156 C600.8125,451.5938 602.9219,453.4844 605.8125,453.4844 C607.0313,453.4844 608.1875,453.1875 608.9375,452.6406 C609.5156,452.2344 609.8438,451.7813 609.8438,451.3906 C609.8438,450.9375 609.4531,450.5469 608.9844,450.5469 C608.7656,450.5469 608.5625,450.625 608.375,450.8125 C607.9219,451.2969 607.9219,451.2969 607.7344,451.3906 C607.3125,451.6563 606.625,451.7813 605.8594,451.7813 C603.8125,451.7813 602.5156,450.6875 602.5156,448.9844 L602.5156,447.8906 C602.5156,446.1094 603.7656,444.7969 605.5,444.7969 C606.0781,444.7969 606.6875,444.9531 607.1563,445.2031 C607.6406,445.4844 607.8125,445.7031 607.9063,446.1094 C607.9688,446.5156 608,446.6406 608.1406,446.7656 C608.2813,446.9063 608.5156,447.0156 608.7344,447.0156 C609,447.0156 609.2656,446.875 609.4375,446.6563 C609.5469,446.5 609.5781,446.3125 609.5781,445.8906 L609.5781,444.4688 C609.5781,444.0313 609.5625,443.9063 609.4688,443.75 C609.3125,443.4844 609.0313,443.3438 608.7344,443.3438 C608.4375,443.3438 608.2344,443.4375 608.0156,443.75 L607.8438,443.6719 Z " fill="#000000"/><text fill="#000000" font-family="sans-serif" font-size="14" lengthAdjust="spacing" textLength="74" x="619.5" y="452.8467">ProductA2</text><line style="stroke:#181818;stroke-width:0.5;" x1="591.5" x2="695.5" y1="464" y2="464"/><line style="stroke:#181818;stroke-width:0.5;" x1="591.5" x2="695.5" y1="472" y2="472"/></g><!--class ProductB1--><g id="elem_ProductB1"><rect fill="#F1F1F1" height="48" id="ProductB1" rx="2.5" ry="2.5" style="stroke:#181818;stroke-width:0.5;" width="107" x="110" y="432"/><ellipse cx="125" cy="448" fill="#ADD1B2" rx="11" ry="11" style="stroke:#181818;stroke-width:1.0;"/><path d="M127.3438,443.6719 C126.4063,443.2344 125.8125,443.0938 124.9375,443.0938 C122.3125,443.0938 120.3125,445.1719 120.3125,447.8906 L120.3125,449.0156 C120.3125,451.5938 122.4219,453.4844 125.3125,453.4844 C126.5313,453.4844 127.6875,453.1875 128.4375,452.6406 C129.0156,452.2344 129.3438,451.7813 129.3438,451.3906 C129.3438,450.9375 128.9531,450.5469 128.4844,450.5469 C128.2656,450.5469 128.0625,450.625 127.875,450.8125 C127.4219,451.2969 127.4219,451.2969 127.2344,451.3906 C126.8125,451.6563 126.125,451.7813 125.3594,451.7813 C123.3125,451.7813 122.0156,450.6875 122.0156,448.9844 L122.0156,447.8906 C122.0156,446.1094 123.2656,444.7969 125,444.7969 C125.5781,444.7969 126.1875,444.9531 126.6563,445.2031 C127.1406,445.4844 127.3125,445.7031 127.4063,446.1094 C127.4688,446.5156 127.5,446.6406 127.6406,446.7656 C127.7813,446.9063 128.0156,447.0156 128.2344,447.0156 C128.5,447.0156 128.7656,446.875 128.9375,446.6563 C129.0469,446.5 129.0781,446.3125 129.0781,445.8906 L129.0781,444.4688 C129.0781,444.0313 129.0625,443.9063 128.9688,443.75 C128.8125,443.4844 128.5313,443.3438 128.2344,443.3438 C127.9375,443.3438 127.7344,443.4375 127.5156,443.75 L127.3438,443.6719 Z " fill="#000000"/><text fill="#000000" font-family="sans-serif" font-size="14" lengthAdjust="spacing" textLength="75" x="139" y="452.8467">ProductB1</text><line style="stroke:#181818;stroke-width:0.5;" x1="111" x2="216" y1="464" y2="464"/><line style="stroke:#181818;stroke-width:0.5;" x1="111" x2="216" y1="472" y2="472"/></g><!--class ProductB2--><g id="elem_ProductB2"><rect fill="#F1F1F1" height="48" id="ProductB2" rx="2.5" ry="2.5" style="stroke:#181818;stroke-width:0.5;" width="106" x="283.5" y="432"/><ellipse cx="298.5" cy="448" fill="#ADD1B2" rx="11" ry="11" style="stroke:#181818;stroke-width:1.0;"/><path d="M300.8438,443.6719 C299.9063,443.2344 299.3125,443.0938 298.4375,443.0938 C295.8125,443.0938 293.8125,445.1719 293.8125,447.8906 L293.8125,449.0156 C293.8125,451.5938 295.9219,453.4844 298.8125,453.4844 C300.0313,453.4844 301.1875,453.1875 301.9375,452.6406 C302.5156,452.2344 302.8438,451.7813 302.8438,451.3906 C302.8438,450.9375 302.4531,450.5469 301.9844,450.5469 C301.7656,450.5469 301.5625,450.625 301.375,450.8125 C300.9219,451.2969 300.9219,451.2969 300.7344,451.3906 C300.3125,451.6563 299.625,451.7813 298.8594,451.7813 C296.8125,451.7813 295.5156,450.6875 295.5156,448.9844 L295.5156,447.8906 C295.5156,446.1094 296.7656,444.7969 298.5,444.7969 C299.0781,444.7969 299.6875,444.9531 300.1563,445.2031 C300.6406,445.4844 300.8125,445.7031 300.9063,446.1094 C300.9688,446.5156 301,446.6406 301.1406,446.7656 C301.2813,446.9063 301.5156,447.0156 301.7344,447.0156 C302,447.0156 302.2656,446.875 302.4375,446.6563 C302.5469,446.5 302.5781,446.3125 302.5781,445.8906 L302.5781,444.4688 C302.5781,444.0313 302.5625,443.9063 302.4688,443.75 C302.3125,443.4844 302.0313,443.3438 301.7344,443.3438 C301.4375,443.3438 301.2344,443.4375 301.0156,443.75 L300.8438,443.6719 Z " fill="#000000"/><text fill="#000000" font-family="sans-serif" font-size="14" lengthAdjust="spacing" textLength="74" x="312.5" y="452.8467">ProductB2</text><line style="stroke:#181818;stroke-width:0.5;" x1="284.5" x2="388.5" y1="464" y2="464"/><line style="stroke:#181818;stroke-width:0.5;" x1="284.5" x2="388.5" y1="472" y2="472"/></g><!--link Client to AbstractFactory--><g id="link_Client_AbstractFactory"><path codeLine="18" d="M415.5,55.036 C415.5,74.47 415.5,102.86 415.5,126.744 " fill="none" id="Client-to-AbstractFactory" style="stroke:#181818;stroke-width:1.0;"/><polygon fill="#181818" points="415.5,131.767,419.5,122.767,415.5,126.767,411.5,122.767,415.5,131.767" style="stroke:#181818;stroke-width:1.0;"/><text fill="#000000" font-family="sans-serif" font-size="13" lengthAdjust="spacing" textLength="58" x="416.5" y="98.0669">«import»</text></g><!--link Client to AbstractProductA--><g id="link_Client_AbstractProductA"><path codeLine="19" d="M452.548,55.077 C484.838,75.243 532.883,105.378 574.5,132 C660.197,186.819 759.974,252.077 813.937,287.49 " fill="none" id="Client-to-AbstractProductA" style="stroke:#181818;stroke-width:1.0;"/><polygon fill="#181818" points="818.378,290.405,813.0498,282.1219,814.1983,287.6609,808.6593,288.8094,818.378,290.405" style="stroke:#181818;stroke-width:1.0;"/><text fill="#000000" font-family="sans-serif" font-size="13" lengthAdjust="spacing" textLength="58" x="700.5" y="177.0669">«import»</text></g><!--link Client to AbstractProductB--><g id="link_Client_AbstractProductB"><path codeLine="20" d="M377.852,47.867 C320.765,71.926 211.784,117.856 143.924,146.456 " fill="none" id="Client-to-AbstractProductB" style="stroke:#181818;stroke-width:1.0;"/><polygon fill="#181818" points="139.111,148.484,148.958,148.6752,143.7186,146.5424,145.8514,141.303,139.111,148.484" style="stroke:#181818;stroke-width:1.0;"/><text fill="#000000" font-family="sans-serif" font-size="13" lengthAdjust="spacing" textLength="58" x="290.5" y="98.0669">«import»</text></g><!--reverse link AbstractFactory to ConcreteFactory1--><g id="link_AbstractFactory_ConcreteFactory1"><path codeLine="22" d="M362.555,228.002 C347.775,243.217 331.996,259.46 318.205,273.657 " fill="none" id="AbstractFactory-backto-ConcreteFactory1" style="stroke:#181818;stroke-width:1.0;stroke-dasharray:7.0,7.0;"/><polygon fill="none" points="357.935,222.712,376.892,213.244,367.977,232.467,357.935,222.712" style="stroke:#181818;stroke-width:1.0;"/></g><!--reverse link AbstractFactory to ConcreteFactory2--><g id="link_AbstractFactory_ConcreteFactory2"><path codeLine="23" d="M483.407,225.451 C504.351,241.473 527.064,258.85 546.736,273.899 " fill="none" id="AbstractFactory-backto-ConcreteFactory2" style="stroke:#181818;stroke-width:1.0;stroke-dasharray:7.0,7.0;"/><polygon fill="none" points="479.082,230.956,467.451,213.244,487.589,219.837,479.082,230.956" style="stroke:#181818;stroke-width:1.0;"/></g><!--reverse link AbstractProductA to ProductA1--><g id="link_AbstractProductA_ProductA1"><path codeLine="25" d="M806.387,350.007 C779.952,367.893 745.695,388.7151 712.5,402 C653.421,425.6437 634.2,416.4292 572.5,432 C564.328,434.0622 555.727,436.3956 547.328,438.7655 " fill="none" id="AbstractProductA-backto-ProductA1" style="stroke:#181818;stroke-width:1.0;stroke-dasharray:7.0,7.0;"/><polygon fill="none" points="802.515,344.173,822.933,338.505,810.506,355.668,802.515,344.173" style="stroke:#181818;stroke-width:1.0;"/></g><!--reverse link AbstractProductA to ProductA2--><g id="link_AbstractProductA_ProductA2"><path codeLine="26" d="M833.393,356.598 C823.815,372.631 811.028,390.0025 795.5,402 C766.75,424.2125 728.003,437.5328 696.825,445.2639 " fill="none" id="AbstractProductA-backto-ProductA2" style="stroke:#181818;stroke-width:1.0;stroke-dasharray:7.0,7.0;"/><polygon fill="none" points="827.394,352.979,843.136,338.794,839.676,359.699,827.394,352.979" style="stroke:#181818;stroke-width:1.0;"/></g><!--reverse link AbstractProductB to ProductB1--><g id="link_AbstractProductB_ProductB1"><path codeLine="28" d="M65.0846,215.309 C45.6439,263.9 23.2531,344.726 58.5,402 C69.9514,420.6078 90.1735,432.9197 109.834,440.9478 " fill="none" id="AbstractProductB-backto-ProductB1" style="stroke:#181818;stroke-width:1.0;stroke-dasharray:7.0,7.0;"/><polygon fill="none" points="58.7713,212.268,73.0591,196.62,71.6481,217.763,58.7713,212.268" style="stroke:#181818;stroke-width:1.0;"/></g><!--reverse link AbstractProductB to ProductB2--><g id="link_AbstractProductB_ProductB2"><path codeLine="29" d="M83.4747,216.799 C84.586,256.056 91.5166,313.896 119.5,355 C139.021,383.6745 225.657,417.5645 283.38,437.6161 " fill="none" id="AbstractProductB-backto-ProductB2" style="stroke:#181818;stroke-width:1.0;stroke-dasharray:7.0,7.0;"/><polygon fill="none" points="76.4739,216.649,83.3681,196.612,90.4737,216.575,76.4739,216.649" style="stroke:#181818;stroke-width:1.0;"/></g><!--link ConcreteFactory1 to ProductA1--><g id="link_ConcreteFactory1_ProductA1"><path codeLine="31" d="M312.153,355.203 C326.885,371.289 345.281,389.0766 364.5,402 C385.978,416.4425 412.011,428.0647 435.051,436.7038 " fill="none" id="ConcreteFactory1-to-ProductA1" style="stroke:#181818;stroke-width:1.0;stroke-dasharray:7.0,7.0;"/><polygon fill="#181818" points="439.919,438.5019,432.863,431.6307,435.2289,436.7691,430.0905,439.135,439.919,438.5019" style="stroke:#181818;stroke-width:1.0;"/><text fill="#000000" font-family="sans-serif" font-size="13" lengthAdjust="spacing" textLength="76" x="365.5" y="398.0669">«instatiate»</text></g><!--link ConcreteFactory1 to ProductB1--><g id="link_ConcreteFactory1_ProductB1"><path codeLine="32" d="M240.834,355.171 C231.952,364.737 222.71,375.068 214.5,385 C203.31,398.5355 191.715,414.2909 182.414,427.4231 " fill="none" id="ConcreteFactory1-to-ProductB1" style="stroke:#181818;stroke-width:1.0;stroke-dasharray:7.0,7.0;"/><polygon fill="#181818" points="179.351,431.7691,187.8051,426.7166,182.2312,427.682,181.2658,422.1082,179.351,431.7691" style="stroke:#181818;stroke-width:1.0;"/><text fill="#000000" font-family="sans-serif" font-size="13" lengthAdjust="spacing" textLength="76" x="215.5" y="398.0669">«instatiate»</text></g><!--link ConcreteFactory2 to ProductA2--><g id="link_ConcreteFactory2_ProductA2"><path codeLine="34" d="M611.275,355.102 C618.684,378.07 627.835,406.4398 634.49,427.0705 " fill="none" id="ConcreteFactory2-to-ProductA2" style="stroke:#181818;stroke-width:1.0;stroke-dasharray:7.0,7.0;"/><polygon fill="#181818" points="636.041,431.8764,637.0846,422.083,634.5059,427.1179,629.471,424.5392,636.041,431.8764" style="stroke:#181818;stroke-width:1.0;"/><text fill="#000000" font-family="sans-serif" font-size="13" lengthAdjust="spacing" textLength="76" x="627.5" y="398.0669">«instatiate»</text></g><!--link ConcreteFactory2 to ProductB2--><g id="link_ConcreteFactory2_ProductB2"><path codeLine="35" d="M531.326,355.038 C505.083,370.139 474.597,387.2586 446.5,402 C428.655,411.3625 408.895,421.08 391.103,429.5978 " fill="none" id="ConcreteFactory2-to-ProductB2" style="stroke:#181818;stroke-width:1.0;stroke-dasharray:7.0,7.0;"/><polygon fill="#181818" points="386.14,431.9671,395.9852,431.6992,390.6521,429.8129,392.5385,424.4798,386.14,431.9671" style="stroke:#181818;stroke-width:1.0;"/><text fill="#000000" font-family="sans-serif" font-size="13" lengthAdjust="spacing" textLength="76" x="477.5" y="398.0669">«instatiate»</text></g><!--SRC=[hP5D2i8m48NtEKMMYZHWbb82JS6rLuWnGg0c9PqkHBsxLKmbJgCkkWZavvjvRrwi0nEEIXjQxJi8IiDsM3wSwOMiujKk-4EleQ9rC0fCF2wM294f8WVaHYpIY1toJv8GtQYkexLtEXWmBrlh6NrDA_0v5Uh66WUqACHdlXjQblRK-W12J65HwazE9Xn1gR6-PLTaWg3PCno9Tb2dyIlZXcU9YCXS4paIF4lWqIXZWhxzFODm7IYmmtSyGljM82SAS2g91FyfaHP8N707]--></g></svg>