<?xml version="1.0" encoding="UTF-8" standalone="no"?><svg xmlns="http://www.w3.org/2000/svg" xmlns:xlink="http://www.w3.org/1999/xlink" contentStyleType="text/css" height="140px" preserveAspectRatio="none" style="width:2880px;height:140px;background:#FFFFFF;" version="1.1" viewBox="0 0 2880 140" width="2880px" zoomAndPan="magnify"><defs/><g><!--MD5=[79a2e8d74ef440211f0b3534f35db448]
entity 테스트 정확도\n(4장)--><g id="elem_테스트 정확도\n(4장)"><rect fill="#F1F1F1" height="52.5938" rx="2.5" ry="2.5" style="stroke:#181818;stroke-width:0.5;" width="108" x="7" y="81.991"/><text fill="#000000" font-family="sans-serif" font-size="14" lengthAdjust="spacing" textLength="88" x="17" y="104.9861">테스트 정확도</text><text fill="#000000" font-family="sans-serif" font-size="14" lengthAdjust="spacing" textLength="32" x="17" y="121.283">(4장)</text></g><!--MD5=[cdde0f0c6e93eb3c2ca06b8961aa2f45]
entity 거짓 음성\n(4장)--><g id="elem_거짓 음성\n(4장)"><rect fill="#F1F1F1" height="52.5938" rx="2.5" ry="2.5" style="stroke:#181818;stroke-width:0.5;" width="80" x="265" y="81.991"/><text fill="#000000" font-family="sans-serif" font-size="14" lengthAdjust="spacing" textLength="60" x="275" y="104.9861">거짓 음성</text><text fill="#000000" font-family="sans-serif" font-size="14" lengthAdjust="spacing" textLength="32" x="275" y="121.283">(4장)</text></g><!--MD5=[002971c645d4f13d45c5f2080e73ad3b]
entity 거짓 양성\n(4장)--><g id="elem_거짓 양성\n(4장)"><rect fill="#F1F1F1" height="52.5938" rx="2.5" ry="2.5" style="stroke:#181818;stroke-width:0.5;" width="80" x="150" y="81.991"/><text fill="#000000" font-family="sans-serif" font-size="14" lengthAdjust="spacing" textLength="60" x="160" y="104.9861">거짓 양성</text><text fill="#000000" font-family="sans-serif" font-size="14" lengthAdjust="spacing" textLength="32" x="160" y="121.283">(4장)</text></g><!--MD5=[1d8a82e1b28cbba297e9f4614b0b6094]
entity 회기 방지\n(4장)--><g id="elem_회기 방지\n(4장)"><rect fill="#F1F1F1" height="52.5938" rx="2.5" ry="2.5" style="stroke:#181818;stroke-width:0.5;" width="80" x="616" y="81.991"/><text fill="#000000" font-family="sans-serif" font-size="14" lengthAdjust="spacing" textLength="60" x="626" y="104.9861">회기 방지</text><text fill="#000000" font-family="sans-serif" font-size="14" lengthAdjust="spacing" textLength="32" x="626" y="121.283">(4장)</text></g><!--MD5=[b53fb65792f4fea868df609061e60d5c]
entity 리팩터링 내성\n(4장)--><g id="elem_리팩터링 내성\n(4장)"><rect fill="#F1F1F1" height="52.5938" rx="2.5" ry="2.5" style="stroke:#181818;stroke-width:0.5;" width="108" x="1221" y="81.991"/><text fill="#000000" font-family="sans-serif" font-size="14" lengthAdjust="spacing" textLength="88" x="1231" y="104.9861">리팩터링 내성</text><text fill="#000000" font-family="sans-serif" font-size="14" lengthAdjust="spacing" textLength="32" x="1231" y="121.283">(4장)</text></g><!--MD5=[fe4e5597d37675bea39234c61e9ce3b8]
entity 단위테스트--><g id="elem_단위테스트"><rect fill="#F1F1F1" height="36.2969" rx="2.5" ry="2.5" style="stroke:#181818;stroke-width:0.5;" width="90" x="1364" y="90.491"/><text fill="#000000" font-family="sans-serif" font-size="14" lengthAdjust="spacing" textLength="70" x="1374" y="113.4861">단위테스트</text></g><!--MD5=[b447bdd07cb1b40fd01bc667c17156f0]
entity 빠른 피드백\n(4장)--><g id="elem_빠른 피드백\n(4장)"><rect fill="#F1F1F1" height="52.5938" rx="2.5" ry="2.5" style="stroke:#181818;stroke-width:0.5;" width="94" x="1922" y="81.991"/><text fill="#000000" font-family="sans-serif" font-size="14" lengthAdjust="spacing" textLength="74" x="1932" y="104.9861">빠른 피드백</text><text fill="#000000" font-family="sans-serif" font-size="14" lengthAdjust="spacing" textLength="32" x="1932" y="121.283">(4장)</text></g><!--MD5=[fe3ff3e8f6d58bbb91f7c2d9de973f1c]
entity 유지 보수성\n(4장)--><g id="elem_유지 보수성\n(4장)"><rect fill="#F1F1F1" height="52.5938" rx="2.5" ry="2.5" style="stroke:#181818;stroke-width:0.5;" width="94" x="1793" y="81.991"/><text fill="#000000" font-family="sans-serif" font-size="14" lengthAdjust="spacing" textLength="74" x="1803" y="104.9861">유지 보수성</text><text fill="#000000" font-family="sans-serif" font-size="14" lengthAdjust="spacing" textLength="32" x="1803" y="121.283">(4장)</text></g><!--MD5=[fd037611f423b39aa410ff85fbd6b777]
entity 도메인 모델 및 알고리즘\n(7장)--><g id="elem_도메인 모델 및 알고리즘\n(7장)"><rect fill="#F1F1F1" height="52.5938" rx="2.5" ry="2.5" style="stroke:#181818;stroke-width:0.5;" width="172" x="1489" y="81.991"/><text fill="#000000" font-family="sans-serif" font-size="14" lengthAdjust="spacing" textLength="152" x="1499" y="104.9861">도메인 모델 및 알고리즘</text><text fill="#000000" font-family="sans-serif" font-size="14" lengthAdjust="spacing" textLength="33" x="1499" y="121.283">(7장)</text></g><!--MD5=[b012dff70c7e6a036e0ce80fe6c53600]
entity 복잡도\n(7장)--><g id="elem_복잡도\n(7장)"><rect fill="#F1F1F1" height="52.5938" rx="2.5" ry="2.5" style="stroke:#181818;stroke-width:0.5;" width="62" x="1696" y="81.991"/><text fill="#000000" font-family="sans-serif" font-size="14" lengthAdjust="spacing" textLength="42" x="1706" y="104.9861">복잡도</text><text fill="#000000" font-family="sans-serif" font-size="14" lengthAdjust="spacing" textLength="33" x="1706" y="121.283">(7장)</text></g><!--MD5=[18ad585826bdfcf8d66119a1827f76b9]
entity 통합테스트--><g id="elem_통합테스트"><rect fill="#F1F1F1" height="36.2969" rx="2.5" ry="2.5" style="stroke:#181818;stroke-width:0.5;" width="90" x="380" y="90.491"/><text fill="#000000" font-family="sans-serif" font-size="14" lengthAdjust="spacing" textLength="70" x="390" y="113.4861">통합테스트</text></g><!--MD5=[fd9036a16d87265e0189dc7606adfe44]
entity 컨트롤러\n(4장)--><g id="elem_컨트롤러\n(4장)"><rect fill="#F1F1F1" height="52.5938" rx="2.5" ry="2.5" style="stroke:#181818;stroke-width:0.5;" width="76" x="505" y="81.991"/><text fill="#000000" font-family="sans-serif" font-size="14" lengthAdjust="spacing" textLength="56" x="515" y="104.9861">컨트롤러</text><text fill="#000000" font-family="sans-serif" font-size="14" lengthAdjust="spacing" textLength="32" x="515" y="121.283">(4장)</text></g><!--MD5=[872ba77114cc3240ff7fde7c786e48a4]
entity 목\n(5장)--><g id="elem_목\n(5장)"><rect fill="#F1F1F1" height="52.5938" rx="2.5" ry="2.5" style="stroke:#181818;stroke-width:0.5;" width="53" x="731.5" y="81.991"/><text fill="#000000" font-family="sans-serif" font-size="14" lengthAdjust="spacing" textLength="14" x="741.5" y="104.9861">목</text><text fill="#000000" font-family="sans-serif" font-size="14" lengthAdjust="spacing" textLength="33" x="741.5" y="121.283">(5장)</text></g><!--MD5=[7a45d42ff33ca0437a7ec27deee23ad8]
entity 통합 테스트--><g id="elem_통합 테스트"><rect fill="#F1F1F1" height="36.2969" rx="2.5" ry="2.5" style="stroke:#181818;stroke-width:0.5;" width="94" x="1092" y="90.491"/><text fill="#000000" font-family="sans-serif" font-size="14" lengthAdjust="spacing" textLength="74" x="1102" y="113.4861">통합 테스트</text></g><!--MD5=[b95e73200123f8687f8fcf20b753ee18]
entity 관리 의존성\n(8장)--><g id="elem_관리 의존성\n(8장)"><rect fill="#F1F1F1" height="52.5938" rx="2.5" ry="2.5" style="stroke:#181818;stroke-width:0.5;" width="94" x="963" y="81.991"/><text fill="#000000" font-family="sans-serif" font-size="14" lengthAdjust="spacing" textLength="74" x="973" y="104.9861">관리 의존성</text><text fill="#000000" font-family="sans-serif" font-size="14" lengthAdjust="spacing" textLength="32" x="973" y="121.283">(8장)</text></g><!--MD5=[cc28760489fb1f83f7d9763eab6bbfa7]
entity 비관리 의존성\n(8장)--><g id="elem_비관리 의존성\n(8장)"><rect fill="#F1F1F1" height="52.5938" rx="2.5" ry="2.5" style="stroke:#181818;stroke-width:0.5;" width="108" x="820" y="81.991"/><text fill="#000000" font-family="sans-serif" font-size="14" lengthAdjust="spacing" textLength="88" x="830" y="104.9861">비관리 의존성</text><text fill="#000000" font-family="sans-serif" font-size="14" lengthAdjust="spacing" textLength="32" x="830" y="121.283">(8장)</text></g><!--MD5=[530308106b45ae138d6026227b197b40]
entity 관리 의존성\n\(8장)--><g id="elem_관리 의존성\n\(8장)"><rect fill="#F1F1F1" height="52.5938" rx="2.5" ry="2.5" style="stroke:#181818;stroke-width:0.5;" width="94" x="2051" y="81.991"/><text fill="#000000" font-family="sans-serif" font-size="14" lengthAdjust="spacing" textLength="74" x="2061" y="104.9861">관리 의존성</text><text fill="#000000" font-family="sans-serif" font-size="14" lengthAdjust="spacing" textLength="37" x="2061" y="121.283">\(8장)</text></g><!--MD5=[e2979dc68adca908f8f1bc9cfd7a4ea3]
entity 프로세스 외부 의존성\n(2장)--><g id="elem_프로세스 외부 의존성\n(2장)"><rect fill="#F1F1F1" height="52.5938" rx="2.5" ry="2.5" style="stroke:#181818;stroke-width:0.5;" width="154" x="2623" y="81.991"/><text fill="#000000" font-family="sans-serif" font-size="14" lengthAdjust="spacing" textLength="134" x="2633" y="104.9861">프로세스 외부 의존성</text><text fill="#000000" font-family="sans-serif" font-size="14" lengthAdjust="spacing" textLength="32" x="2633" y="121.283">(2장)</text></g><!--MD5=[befaf1a3335e115b4d2ba445010c167a]
entity 비관리 의존성\n\(8장)--><g id="elem_비관리 의존성\n\(8장)"><rect fill="#F1F1F1" height="52.5938" rx="2.5" ry="2.5" style="stroke:#181818;stroke-width:0.5;" width="108" x="2480" y="81.991"/><text fill="#000000" font-family="sans-serif" font-size="14" lengthAdjust="spacing" textLength="88" x="2490" y="104.9861">비관리 의존성</text><text fill="#000000" font-family="sans-serif" font-size="14" lengthAdjust="spacing" textLength="37" x="2490" y="121.283">\(8장)</text></g><!--MD5=[9671206f8c5f998f25512042524c266a]
entity 협력자\n(2장)--><g id="elem_협력자\n(2장)"><rect fill="#F1F1F1" height="52.5938" rx="2.5" ry="2.5" style="stroke:#181818;stroke-width:0.5;" width="62" x="2812" y="81.991"/><text fill="#000000" font-family="sans-serif" font-size="14" lengthAdjust="spacing" textLength="42" x="2822" y="104.9861">협력자</text><text fill="#000000" font-family="sans-serif" font-size="14" lengthAdjust="spacing" textLength="32" x="2822" y="121.283">(2장)</text></g><!--MD5=[108cb9513a53d7a4b742b59d2794c419]
entity 컨트롤러\n(7장)--><g id="elem_컨트롤러\n(7장)"><rect fill="#F1F1F1" height="52.5938" rx="2.5" ry="2.5" style="stroke:#181818;stroke-width:0.5;" width="76" x="2180" y="81.991"/><text fill="#000000" font-family="sans-serif" font-size="14" lengthAdjust="spacing" textLength="56" x="2190" y="104.9861">컨트롤러</text><text fill="#000000" font-family="sans-serif" font-size="14" lengthAdjust="spacing" textLength="33" x="2190" y="121.283">(7장)</text></g><!--MD5=[59000407222a756bf5f0df6154a7a5e6]
entity 프로세스 내부 의존성\n(2장)--><g id="elem_프로세스 내부 의존성\n(2장)"><rect fill="#F1F1F1" height="52.5938" rx="2.5" ry="2.5" style="stroke:#181818;stroke-width:0.5;" width="154" x="2291" y="81.991"/><text fill="#000000" font-family="sans-serif" font-size="14" lengthAdjust="spacing" textLength="134" x="2301" y="104.9861">프로세스 내부 의존성</text><text fill="#000000" font-family="sans-serif" font-size="14" lengthAdjust="spacing" textLength="32" x="2301" y="121.283">(2장)</text></g><!--MD5=[bf0e55aacbb592f03cffeb477fc0a8aa]
link 테스트 정확도\n(4장) to 거짓 음성\n(4장)--><g id="link_테스트 정확도\n(4장)_거짓 음성\n(4장)"><path d="M93.2383,81.8916 C109.378,70.2794 129.847,57.9645 150.5,51.991 C184.656,42.112 196.799,40.6572 230.5,51.991 C246.814,57.4775 262.394,68.1117 275.05,78.6881 " fill="none" id="테스트 정확도\n(4장)-to-거짓 음성\n(4장)" style="stroke:#181818;stroke-width:1.0;"/><polygon fill="#181818" points="278.882,81.9629,274.6393,73.0747,275.0811,78.7143,269.4415,79.1561,278.882,81.9629" style="stroke:#181818;stroke-width:1.0;"/><text fill="#000000" font-family="sans-serif" font-size="13" lengthAdjust="spacing" textLength="26" x="153.818" y="40.8739">정의</text></g><!--MD5=[aea431ba1e5ff8b4c8ad34406a4d0709]
link 테스트 정확도\n(4장) to 거짓 양성\n(4장)--><g id="link_테스트 정확도\n(4장)_거짓 양성\n(4장)"><path d="M115.17,108.491 C125.044,108.491 134.917,108.491 144.791,108.491 " fill="none" id="테스트 정확도\n(4장)-to-거짓 양성\n(4장)" style="stroke:#181818;stroke-width:1.0;"/><polygon fill="#181818" points="149.954,108.491,140.954,104.491,144.954,108.491,140.954,112.491,149.954,108.491" style="stroke:#181818;stroke-width:1.0;"/><text fill="#000000" font-family="sans-serif" font-size="13" lengthAdjust="spacing" textLength="26" x="119.757" y="121.5579">정의</text></g><!--MD5=[56bb2a7b70a1f97a4ab71bc4017d897e]
link 거짓 음성\n(4장) to 회기 방지\n(4장)--><g id="link_거짓 음성\n(4장)_회기 방지\n(4장)"><path d="M331.529,81.9571 C344.993,70.3599 362.325,58.0386 380.5,51.991 C465.264,23.786 496.827,23.515 581.5,51.991 C597.814,57.4775 613.394,68.1117 626.05,78.6881 " fill="none" id="거짓 음성\n(4장)-to-회기 방지\n(4장)" style="stroke:#181818;stroke-width:1.0;"/><polygon fill="#181818" points="629.882,81.9629,625.6393,73.0747,626.0811,78.7143,620.4415,79.1561,629.882,81.9629" style="stroke:#181818;stroke-width:1.0;"/><text fill="#000000" font-family="sans-serif" font-size="13" lengthAdjust="spacing" textLength="26" x="453.353" y="26.8049">해결</text></g><!--MD5=[d4bdb1e874778c9c7fab6e81d9b2d41a]
link 거짓 양성\n(4장) to 리팩터링 내성\n(4장)--><g id="link_거짓 양성\n(4장)_리팩터링 내성\n(4장)"><path d="M216.529,81.9571 C229.993,70.3599 247.325,58.0386 265.5,51.991 C362.599,19.682 1088.27,23.308 1186.5,51.991 C1205.21,57.4552 1223.74,68.2143 1238.96,78.8908 " fill="none" id="거짓 양성\n(4장)-to-리팩터링 내성\n(4장)" style="stroke:#181818;stroke-width:1.0;"/><polygon fill="#181818" points="1243.17,81.8955,1238.1832,73.4025,1239.1054,78.9836,1233.5242,79.9058,1243.17,81.8955" style="stroke:#181818;stroke-width:1.0;"/><text fill="#000000" font-family="sans-serif" font-size="13" lengthAdjust="spacing" textLength="26" x="702.797" y="25.1959">해결</text></g><!--MD5=[8f915ba86ec5c384e26b9face0a84498]
link 단위테스트 to 빠른 피드백\n(4장)--><g id="link_단위테스트_빠른 피드백\n(4장)"><path d="M1427.65,90.3201 C1442.89,76.8214 1465.73,59.5004 1489.5,51.991 C1573.84,25.348 1803.09,25.593 1887.5,51.991 C1904.92,57.4397 1921.89,68.0673 1935.8,78.6492 " fill="none" id="단위테스트-to-빠른 피드백\n(4장)" style="stroke:#181818;stroke-width:1.0;"/><polygon fill="#181818" points="1940.01,81.9259,1935.3636,73.242,1936.0639,78.8553,1930.4506,79.5557,1940.01,81.9259" style="stroke:#181818;stroke-width:1.0;"/><text fill="#000000" font-family="sans-serif" font-size="13" lengthAdjust="spacing" textLength="39" x="1643.88" y="28.1739">극대화</text></g><!--MD5=[6f103d9b1efd1a622cd415af9ccda371]
link 단위테스트 to 유지 보수성\n(4장)--><g id="link_단위테스트_유지 보수성\n(4장)"><path d="M1427.65,90.3201 C1442.89,76.8214 1465.73,59.5004 1489.5,51.991 C1603.5,15.977 1644.39,16.307 1758.5,51.991 C1775.92,57.4397 1792.89,68.0673 1806.8,78.6492 " fill="none" id="단위테스트-to-유지 보수성\n(4장)" style="stroke:#181818;stroke-width:1.0;"/><polygon fill="#181818" points="1811.01,81.9259,1806.3636,73.242,1807.0639,78.8553,1801.4506,79.5557,1811.01,81.9259" style="stroke:#181818;stroke-width:1.0;"/><text fill="#000000" font-family="sans-serif" font-size="13" lengthAdjust="spacing" textLength="39" x="1577.6" y="21.2449">극대화</text></g><!--MD5=[67928a7363e09a3296b4d9c77df3bbfb]
link 단위테스트 to 도메인 모델 및 알고리즘\n(7장)--><g id="link_단위테스트_도메인 모델 및 알고리즘\n(7장)"><path d="M1454.07,108.491 C1463.86,108.491 1473.64,108.491 1483.43,108.491 " fill="none" id="단위테스트-to-도메인 모델 및 알고리즘\n(7장)" style="stroke:#181818;stroke-width:1.0;"/><polygon fill="#181818" points="1488.55,108.491,1479.55,104.491,1483.55,108.491,1479.55,112.491,1488.55,108.491" style="stroke:#181818;stroke-width:1.0;"/><text fill="#000000" font-family="sans-serif" font-size="13" lengthAdjust="spacing" textLength="26" x="1458.5" y="121.5579">처리</text></g><!--MD5=[42b75042efba44468fe98d379027107c]
link 도메인 모델 및 알고리즘\n(7장) to 복잡도\n(7장)--><g id="link_도메인 모델 및 알고리즘\n(7장)_복잡도\n(7장)"><path d="M1661.09,108.491 C1670.96,108.491 1680.82,108.491 1690.69,108.491 " fill="none" id="도메인 모델 및 알고리즘\n(7장)-to-복잡도\n(7장)" style="stroke:#181818;stroke-width:1.0;"/><polygon fill="#181818" points="1695.85,108.491,1686.85,104.491,1690.85,108.491,1686.85,112.491,1695.85,108.491" style="stroke:#181818;stroke-width:1.0;"/><text fill="#000000" font-family="sans-serif" font-size="13" lengthAdjust="spacing" textLength="26" x="1665.67" y="121.5579">높음</text></g><!--MD5=[55cc36b7e305240f90c5189101fb4282]
link 통합테스트 to 회기 방지\n(4장)--><g id="link_통합테스트_회기 방지\n(4장)"><path d="M443.649,90.3201 C458.889,76.8214 481.729,59.5004 505.5,51.991 C537.709,41.8159 549.484,41.2239 581.5,51.991 C597.814,57.4775 613.394,68.1117 626.05,78.6881 " fill="none" id="통합테스트-to-회기 방지\n(4장)" style="stroke:#181818;stroke-width:1.0;"/><polygon fill="#181818" points="629.882,81.9629,625.6393,73.0747,626.0811,78.7143,620.4415,79.1561,629.882,81.9629" style="stroke:#181818;stroke-width:1.0;"/><text fill="#000000" font-family="sans-serif" font-size="13" lengthAdjust="spacing" textLength="39" x="489.291" y="41.6789">극대화</text></g><!--MD5=[117c14a458c04193a378df899c9fd71b]
link 통합테스트 to 리팩터링 내성\n(4장)--><g id="link_통합테스트_리팩터링 내성\n(4장)"><path d="M443.649,90.3201 C458.889,76.8214 481.729,59.5004 505.5,51.991 C577.652,29.198 1113.87,30.782 1186.5,51.991 C1205.21,57.4552 1223.74,68.2143 1238.96,78.8908 " fill="none" id="통합테스트-to-리팩터링 내성\n(4장)" style="stroke:#181818;stroke-width:1.0;"/><polygon fill="#181818" points="1243.17,81.8955,1238.1832,73.4025,1239.1054,78.9836,1233.5242,79.9058,1243.17,81.8955" style="stroke:#181818;stroke-width:1.0;"/><text fill="#000000" font-family="sans-serif" font-size="13" lengthAdjust="spacing" textLength="39" x="803.591" y="31.5549">극대화</text></g><!--MD5=[759efe2056522fc4ebdccf6762ef73fb]
link 통합테스트 to 컨트롤러\n(4장)--><g id="link_통합테스트_컨트롤러\n(4장)"><path d="M470.172,108.491 C480.024,108.491 489.875,108.491 499.727,108.491 " fill="none" id="통합테스트-to-컨트롤러\n(4장)" style="stroke:#181818;stroke-width:1.0;"/><polygon fill="#181818" points="504.879,108.491,495.879,104.491,499.879,108.491,495.879,112.491,504.879,108.491" style="stroke:#181818;stroke-width:1.0;"/><text fill="#000000" font-family="sans-serif" font-size="13" lengthAdjust="spacing" textLength="26" x="474.72" y="121.5579">처리</text></g><!--MD5=[79fe06b9b6a393806b538c401c457f40]
link 목\n(5장) to 리팩터링 내성\n(4장)--><g id="link_목\n(5장)_리팩터링 내성\n(4장)"><path d="M779.425,81.7497 C790.348,70.2596 804.665,58.0873 820.5,51.991 C896.402,22.768 1108.43,29.194 1186.5,51.991 C1205.21,57.4552 1223.74,68.2143 1238.96,78.8908 " fill="none" id="목\n(5장)-to-리팩터링 내성\n(4장)" style="stroke:#181818;stroke-width:1.0;"/><polygon fill="#181818" points="1243.17,81.8955,1238.1832,73.4025,1239.1054,78.9836,1233.5242,79.9058,1243.17,81.8955" style="stroke:#181818;stroke-width:1.0;"/><text fill="#000000" font-family="sans-serif" font-size="13" lengthAdjust="spacing" textLength="125" x="1013" y="28.6899">잘못 사용하면 떨어짐</text></g><!--MD5=[fbc75b5d8e105364283fe9344e9dc777]
link 목\n(5장) to 통합 테스트--><g id="link_목\n(5장)_통합 테스트"><path d="M779.425,81.7497 C790.348,70.2596 804.665,58.0873 820.5,51.991 C918.8,14.145 956.968,20.552 1057.5,51.991 C1079.43,58.8488 1100.64,73.9108 1115.93,86.7596 " fill="none" id="목\n(5장)-to-통합 테스트" style="stroke:#181818;stroke-width:1.0;"/><polygon fill="#181818" points="1120.08,90.3163,1115.8542,81.4201,1116.2853,87.0605,1110.6449,87.4916,1120.08,90.3163" style="stroke:#181818;stroke-width:1.0;"/><text fill="#000000" font-family="sans-serif" font-size="13" lengthAdjust="spacing" textLength="26" x="929.001" y="23.2449">사용</text></g><!--MD5=[024726cab77058e434fa05203151d252]
link 목\n(5장) to 관리 의존성\n(8장)--><g id="link_목\n(5장)_관리 의존성\n(8장)"><path d="M779.425,81.7497 C790.348,70.2596 804.665,58.0873 820.5,51.991 C865.295,34.745 882.688,37.6643 928.5,51.991 C945.923,57.4397 962.895,68.0673 976.8,78.6492 " fill="none" id="목\n(5장)-to-관리 의존성\n(8장)" style="stroke:#181818;stroke-width:1.0;"/><polygon fill="#181818" points="981.014,81.9259,976.3636,73.2441,977.0665,78.8571,971.4535,79.56,981.014,81.9259" style="stroke:#181818;stroke-width:1.0;"/><text fill="#000000" font-family="sans-serif" font-size="13" lengthAdjust="spacing" textLength="82" x="802.628" y="54.1622">사용하면 안됨</text></g><!--MD5=[6c5e5cadac16c381a4714dd39b011199]
link 목\n(5장) to 비관리 의존성\n(8장)--><g id="link_목\n(5장)_비관리 의존성\n(8장)"><path d="M784.734,108.491 C794.731,108.491 804.728,108.491 814.725,108.491 " fill="none" id="목\n(5장)-to-비관리 의존성\n(8장)" style="stroke:#181818;stroke-width:1.0;"/><polygon fill="#181818" points="819.952,108.491,810.952,104.491,814.952,108.491,810.952,112.491,819.952,108.491" style="stroke:#181818;stroke-width:1.0;"/><text fill="#000000" font-family="sans-serif" font-size="13" lengthAdjust="spacing" textLength="69" x="785.791" y="121.5579">사용해야 함</text></g><!--MD5=[6646e83b234c33ad8b09cebfd0f73efe]
link 관리 의존성\n\(8장) to 프로세스 외부 의존성\n(2장)--><g id="link_관리 의존성\n\(8장)_프로세스 외부 의존성\n(2장)"><path d="M2127.39,81.9212 C2142.2,70.3158 2161.1,57.998 2180.5,51.991 C2267.11,25.176 2500.31,30.923 2588.5,51.991 C2611.56,57.4994 2635.24,68.5945 2654.81,79.5055 " fill="none" id="관리 의존성\n\(8장)-to-프로세스 외부 의존성\n(2장)" style="stroke:#181818;stroke-width:1.0;"/><polygon fill="#181818" points="2659.18,81.9754,2653.3089,74.0678,2654.8259,79.5175,2649.3762,81.0344,2659.18,81.9754" style="stroke:#181818;stroke-width:1.0;"/><text fill="#000000" font-family="sans-serif" font-size="13" lengthAdjust="spacing" textLength="26" x="2367.24" y="30.2279">같음</text></g><!--MD5=[ab02dab473009348b4122831d928deb9]
link 비관리 의존성\n\(8장) to 프로세스 외부 의존성\n(2장)--><g id="link_비관리 의존성\n\(8장)_프로세스 외부 의존성\n(2장)"><path d="M2588.14,108.491 C2597.94,108.491 2607.74,108.491 2617.54,108.491 " fill="none" id="비관리 의존성\n\(8장)-to-프로세스 외부 의존성\n(2장)" style="stroke:#181818;stroke-width:1.0;"/><polygon fill="#181818" points="2622.66,108.491,2613.66,104.491,2617.66,108.491,2613.66,112.491,2622.66,108.491" style="stroke:#181818;stroke-width:1.0;"/><text fill="#000000" font-family="sans-serif" font-size="13" lengthAdjust="spacing" textLength="26" x="2592.6" y="121.5579">같음</text></g><!--MD5=[a3bec347da9abce1cdbeda57071c9455]
link 프로세스 외부 의존성\n(2장) to 협력자\n(2장)--><g id="link_프로세스 외부 의존성\n(2장)_협력자\n(2장)"><path d="M2777.09,108.491 C2786.95,108.491 2796.82,108.491 2806.69,108.491 " fill="none" id="프로세스 외부 의존성\n(2장)-to-협력자\n(2장)" style="stroke:#181818;stroke-width:1.0;"/><polygon fill="#181818" points="2811.85,108.491,2802.85,104.491,2806.85,108.491,2802.85,112.491,2811.85,108.491" style="stroke:#181818;stroke-width:1.0;"/><text fill="#000000" font-family="sans-serif" font-size="13" lengthAdjust="spacing" textLength="26" x="2781.66" y="121.5579">같음</text></g><!--MD5=[82e3440eef69ca922845fb2ff22be3dd]
link 컨트롤러\n(7장) to 협력자\n(2장)--><g id="link_컨트롤러\n(7장)_협력자\n(2장)"><path d="M2243.71,81.9688 C2256.79,70.3742 2273.67,58.0518 2291.5,51.991 C2393.75,17.231 2676.27,14.362 2777.5,51.991 C2792.17,57.4441 2805.75,67.8212 2816.7,78.2094 " fill="none" id="컨트롤러\n(7장)-to-협력자\n(2장)" style="stroke:#181818;stroke-width:1.0;"/><polygon fill="#181818" points="2820.31,81.7257,2816.6503,72.582,2816.7269,78.2384,2811.0706,78.315,2820.31,81.7257" style="stroke:#181818;stroke-width:1.0;"/><text fill="#000000" font-family="sans-serif" font-size="13" lengthAdjust="spacing" textLength="26" x="2504.51" y="20.9289">많음</text></g><!--MD5=[a91b96192de48c2817a3ff5672d8ea6c]
link 프로세스 내부 의존성\n(2장) to 협력자\n(2장)--><g id="link_프로세스 내부 의존성\n(2장)_협력자\n(2장)"><path d="M2409.21,81.9732 C2429.76,70.3019 2455.51,57.9134 2480.5,51.991 C2608.94,21.55 2653.77,6 2777.5,51.991 C2792.17,57.4441 2805.75,67.8212 2816.7,78.2094 " fill="none" id="프로세스 내부 의존성\n(2장)-to-협력자\n(2장)" style="stroke:#181818;stroke-width:1.0;"/><polygon fill="#181818" points="2820.31,81.7257,2816.6503,72.582,2816.7269,78.2384,2811.0706,78.315,2820.31,81.7257" style="stroke:#181818;stroke-width:1.0;"/><text fill="#000000" font-family="sans-serif" font-size="13" lengthAdjust="spacing" textLength="26" x="2581.07" y="21.2749">같음</text></g><!--MD5=[fba9b31e8b7be7e3290ceaec4c877799]
@startuml
skinparam componentStyle rectangle

[테스트 정확도\n(4장)]->[거짓 음성\n(4장)] : 정의
[테스트 정확도\n(4장)]->[거짓 양성\n(4장)] : 정의

[거짓 음성\n(4장)]->[회기 방지\n(4장)] : 해결

[거짓 양성\n(4장)]->[리팩터링 내성\n(4장)] : 해결

[단위테스트]->[빠른 피드백\n(4장)] : 극대화
[단위테스트]->[유지 보수성\n(4장)] : 극대화
[단위테스트]->[도메인 모델 및 알고리즘\n(7장)] : 처리

[도메인 모델 및 알고리즘\n(7장)] -> [복잡도\n(7장)] : 높음

[통합테스트]->[회기 방지\n(4장)] : 극대화
[통합테스트]->[리팩터링 내성\n(4장)] : 극대화
[통합테스트]->[컨트롤러\n(4장)] : 처리

[목\n(5장)]->[리팩터링 내성\n(4장)] : 잘못 사용하면 떨어짐
[목\n(5장)]->[통합 테스트] : 사용
[목\n(5장)]->[관리 의존성\n(8장)] : 사용하면 안됨
[목\n(5장)]->[비관리 의존성\n(8장)] : 사용해야 함

[관리 의존성\n\(8장)]->[프로세스 외부 의존성\n(2장)] : 같음
[비관리 의존성\n\(8장)]->[프로세스 외부 의존성\n(2장)] : 같음

[프로세스 외부 의존성\n(2장)]->[협력자\n(2장)] : 같음

[컨트롤러\n(7장)]->[협력자\n(2장)] : 많음
[프로세스 내부 의존성\n(2장)]->[협력자\n(2장)] : 같음
@enduml

PlantUML version 1.2022.3beta1(Unknown compile time)
(GPL source distribution)
Java Runtime: Java(TM) SE Runtime Environment
JVM: Java HotSpot(TM) 64-Bit Server VM
Default Encoding: UTF-8
Language: en
Country: US
--></g></svg>