<?xml version="1.0" encoding="UTF-8" standalone="no"?><svg xmlns="http://www.w3.org/2000/svg" xmlns:xlink="http://www.w3.org/1999/xlink" contentStyleType="text/css" height="632px" preserveAspectRatio="none" style="width:749px;height:632px;background:#FFFFFF;" version="1.1" viewBox="0 0 749 632" width="749px" zoomAndPan="magnify"><defs/><g><!--MD5=[79a2e8d74ef440211f0b3534f35db448]
entity 테스트 정확도\n(4장)--><g id="elem_테스트 정확도\n(4장)"><rect fill="#F1F1F1" height="52.5938" rx="2.5" ry="2.5" style="stroke:#181818;stroke-width:0.5;" width="108" x="7" y="53.791"/><text fill="#000000" font-family="sans-serif" font-size="14" lengthAdjust="spacing" textLength="88" x="17" y="76.7861">테스트 정확도</text><text fill="#000000" font-family="sans-serif" font-size="14" lengthAdjust="spacing" textLength="32" x="17" y="93.083">(4장)</text></g><!--MD5=[cdde0f0c6e93eb3c2ca06b8961aa2f45]
entity 거짓 음성\n(4장)--><g id="elem_거짓 음성\n(4장)"><rect fill="#F1F1F1" height="52.5938" rx="2.5" ry="2.5" style="stroke:#181818;stroke-width:0.5;" width="80" x="50" y="183.791"/><text fill="#000000" font-family="sans-serif" font-size="14" lengthAdjust="spacing" textLength="60" x="60" y="206.7861">거짓 음성</text><text fill="#000000" font-family="sans-serif" font-size="14" lengthAdjust="spacing" textLength="32" x="60" y="223.083">(4장)</text></g><!--MD5=[002971c645d4f13d45c5f2080e73ad3b]
entity 거짓 양성\n(4장)--><g id="elem_거짓 양성\n(4장)"><rect fill="#F1F1F1" height="52.5938" rx="2.5" ry="2.5" style="stroke:#181818;stroke-width:0.5;" width="80" x="178" y="53.791"/><text fill="#000000" font-family="sans-serif" font-size="14" lengthAdjust="spacing" textLength="60" x="188" y="76.7861">거짓 양성</text><text fill="#000000" font-family="sans-serif" font-size="14" lengthAdjust="spacing" textLength="32" x="188" y="93.083">(4장)</text></g><!--MD5=[1d8a82e1b28cbba297e9f4614b0b6094]
entity 회기 방지\n(4장)--><g id="elem_회기 방지\n(4장)"><rect fill="#F1F1F1" height="52.5938" rx="2.5" ry="2.5" style="stroke:#181818;stroke-width:0.5;" width="80" x="192" y="313.791"/><text fill="#000000" font-family="sans-serif" font-size="14" lengthAdjust="spacing" textLength="60" x="202" y="336.7861">회기 방지</text><text fill="#000000" font-family="sans-serif" font-size="14" lengthAdjust="spacing" textLength="32" x="202" y="353.083">(4장)</text></g><!--MD5=[b53fb65792f4fea868df609061e60d5c]
entity 리팩터링 내성\n(4장)--><g id="elem_리팩터링 내성\n(4장)"><rect fill="#F1F1F1" height="52.5938" rx="2.5" ry="2.5" style="stroke:#181818;stroke-width:0.5;" width="108" x="463" y="53.791"/><text fill="#000000" font-family="sans-serif" font-size="14" lengthAdjust="spacing" textLength="88" x="473" y="76.7861">리팩터링 내성</text><text fill="#000000" font-family="sans-serif" font-size="14" lengthAdjust="spacing" textLength="32" x="473" y="93.083">(4장)</text></g><!--MD5=[7a45d42ff33ca0437a7ec27deee23ad8]
entity 통합 테스트--><g id="elem_통합 테스트"><rect fill="#F1F1F1" height="36.2969" rx="2.5" ry="2.5" style="stroke:#181818;stroke-width:0.5;" width="94" x="293" y="62.291"/><text fill="#000000" font-family="sans-serif" font-size="14" lengthAdjust="spacing" textLength="74" x="303" y="85.2861">통합 테스트</text></g><!--MD5=[fd9036a16d87265e0189dc7606adfe44]
entity 컨트롤러\n(4장)--><g id="elem_컨트롤러\n(4장)"><rect fill="#F1F1F1" height="52.5938" rx="2.5" ry="2.5" style="stroke:#181818;stroke-width:0.5;" width="76" x="194" y="183.791"/><text fill="#000000" font-family="sans-serif" font-size="14" lengthAdjust="spacing" textLength="56" x="204" y="206.7861">컨트롤러</text><text fill="#000000" font-family="sans-serif" font-size="14" lengthAdjust="spacing" textLength="32" x="204" y="223.083">(4장)</text></g><!--MD5=[872ba77114cc3240ff7fde7c786e48a4]
entity 목\n(5장)--><g id="elem_목\n(5장)"><rect fill="#F1F1F1" height="52.5938" rx="2.5" ry="2.5" style="stroke:#181818;stroke-width:0.5;" width="53" x="447.5" y="183.791"/><text fill="#000000" font-family="sans-serif" font-size="14" lengthAdjust="spacing" textLength="14" x="457.5" y="206.7861">목</text><text fill="#000000" font-family="sans-serif" font-size="14" lengthAdjust="spacing" textLength="33" x="457.5" y="223.083">(5장)</text></g><!--MD5=[b95e73200123f8687f8fcf20b753ee18]
entity 관리 의존성\n(8장)--><g id="elem_관리 의존성\n(8장)"><rect fill="#F1F1F1" height="52.5938" rx="2.5" ry="2.5" style="stroke:#181818;stroke-width:0.5;" width="94" x="354" y="313.791"/><text fill="#000000" font-family="sans-serif" font-size="14" lengthAdjust="spacing" textLength="74" x="364" y="336.7861">관리 의존성</text><text fill="#000000" font-family="sans-serif" font-size="14" lengthAdjust="spacing" textLength="32" x="364" y="353.083">(8장)</text></g><!--MD5=[cc28760489fb1f83f7d9763eab6bbfa7]
entity 비관리 의존성\n(8장)--><g id="elem_비관리 의존성\n(8장)"><rect fill="#F1F1F1" height="52.5938" rx="2.5" ry="2.5" style="stroke:#181818;stroke-width:0.5;" width="108" x="483" y="313.791"/><text fill="#000000" font-family="sans-serif" font-size="14" lengthAdjust="spacing" textLength="88" x="493" y="336.7861">비관리 의존성</text><text fill="#000000" font-family="sans-serif" font-size="14" lengthAdjust="spacing" textLength="32" x="493" y="353.083">(8장)</text></g><!--MD5=[e2979dc68adca908f8f1bc9cfd7a4ea3]
entity 프로세스 외부 의존성\n(2장)--><g id="elem_프로세스 외부 의존성\n(2장)"><rect fill="#F1F1F1" height="52.5938" rx="2.5" ry="2.5" style="stroke:#181818;stroke-width:0.5;" width="154" x="400" y="443.791"/><text fill="#000000" font-family="sans-serif" font-size="14" lengthAdjust="spacing" textLength="134" x="410" y="466.7861">프로세스 외부 의존성</text><text fill="#000000" font-family="sans-serif" font-size="14" lengthAdjust="spacing" textLength="32" x="410" y="483.083">(2장)</text></g><!--MD5=[9671206f8c5f998f25512042524c266a]
entity 협력자\n(2장)--><g id="elem_협력자\n(2장)"><rect fill="#F1F1F1" height="52.5938" rx="2.5" ry="2.5" style="stroke:#181818;stroke-width:0.5;" width="62" x="571" y="573.791"/><text fill="#000000" font-family="sans-serif" font-size="14" lengthAdjust="spacing" textLength="42" x="581" y="596.7861">협력자</text><text fill="#000000" font-family="sans-serif" font-size="14" lengthAdjust="spacing" textLength="32" x="581" y="613.083">(2장)</text></g><!--MD5=[108cb9513a53d7a4b742b59d2794c419]
entity 컨트롤러\n(7장)--><g id="elem_컨트롤러\n(7장)"><rect fill="#F1F1F1" height="52.5938" rx="2.5" ry="2.5" style="stroke:#181818;stroke-width:0.5;" width="76" x="432" y="573.791"/><text fill="#000000" font-family="sans-serif" font-size="14" lengthAdjust="spacing" textLength="56" x="442" y="596.7861">컨트롤러</text><text fill="#000000" font-family="sans-serif" font-size="14" lengthAdjust="spacing" textLength="33" x="442" y="613.083">(7장)</text></g><!--MD5=[59000407222a756bf5f0df6154a7a5e6]
entity 프로세스 내부 의존성\n(2장)--><g id="elem_프로세스 내부 의존성\n(2장)"><rect fill="#F1F1F1" height="52.5938" rx="2.5" ry="2.5" style="stroke:#181818;stroke-width:0.5;" width="154" x="589" y="443.791"/><text fill="#000000" font-family="sans-serif" font-size="14" lengthAdjust="spacing" textLength="134" x="599" y="466.7861">프로세스 내부 의존성</text><text fill="#000000" font-family="sans-serif" font-size="14" lengthAdjust="spacing" textLength="32" x="599" y="483.083">(2장)</text></g><!--MD5=[bf0e55aacbb592f03cffeb477fc0a8aa]
link 테스트 정확도\n(4장) to 거짓 음성\n(4장)--><g id="link_테스트 정확도\n(4장)_거짓 음성\n(4장)"><path d="M66.7989,106.886 C71.4814,127.554 78.0851,156.701 83.0504,178.617 " fill="none" id="테스트 정확도\n(4장)-to-거짓 음성\n(4장)" style="stroke:#181818;stroke-width:1.0;"/><polygon fill="#181818" points="84.2112,183.74,86.122,174.0783,83.1055,178.8638,78.32,175.8473,84.2112,183.74" style="stroke:#181818;stroke-width:1.0;"/><text fill="#000000" font-family="sans-serif" font-size="13" lengthAdjust="spacing" textLength="26" x="79" y="149.8579">정의</text></g><!--MD5=[aea431ba1e5ff8b4c8ad34406a4d0709]
link 테스트 정확도\n(4장) to 거짓 양성\n(4장)--><g id="link_테스트 정확도\n(4장)_거짓 양성\n(4장)"><path d="M115.03,80.291 C133.84,80.291 154.733,80.291 172.756,80.291 " fill="none" id="테스트 정확도\n(4장)-to-거짓 양성\n(4장)" style="stroke:#181818;stroke-width:1.0;"/><polygon fill="#181818" points="177.76,80.291,168.76,76.291,172.76,80.291,168.76,84.291,177.76,80.291" style="stroke:#181818;stroke-width:1.0;"/><text fill="#000000" font-family="sans-serif" font-size="13" lengthAdjust="spacing" textLength="26" x="133.5" y="73.3579">정의</text></g><!--MD5=[56bb2a7b70a1f97a4ab71bc4017d897e]
link 거짓 음성\n(4장) to 회기 방지\n(4장)--><g id="link_거짓 음성\n(4장)_회기 방지\n(4장)"><path d="M118.395,236.886 C141.903,258.077 175.301,288.182 199.802,310.267 " fill="none" id="거짓 음성\n(4장)-to-회기 방지\n(4장)" style="stroke:#181818;stroke-width:1.0;"/><polygon fill="#181818" points="203.655,313.74,199.6487,304.7428,199.9413,310.3921,194.292,310.6847,203.655,313.74" style="stroke:#181818;stroke-width:1.0;"/><text fill="#000000" font-family="sans-serif" font-size="13" lengthAdjust="spacing" textLength="26" x="171" y="279.8579">해결</text></g><!--MD5=[d4bdb1e874778c9c7fab6e81d9b2d41a]
link 거짓 양성\n(4장) to 리팩터링 내성\n(4장)--><g id="link_거짓 양성\n(4장)_리팩터링 내성\n(4장)"><path d="M258.247,54.305 C282.586,40.161 314.844,24.094 346,16.791 C392.032,6 442.532,29.393 476.633,50.768 " fill="none" id="거짓 양성\n(4장)-to-리팩터링 내성\n(4장)" style="stroke:#181818;stroke-width:1.0;"/><polygon fill="#181818" points="481.125,53.631,475.6876,45.4191,476.9093,50.9425,471.386,52.1642,481.125,53.631" style="stroke:#181818;stroke-width:1.0;"/><text fill="#000000" font-family="sans-serif" font-size="13" lengthAdjust="spacing" textLength="26" x="347" y="19.8579">해결</text></g><!--MD5=[cc75b1d3d678a027f131ac911ce3499e]
link 통합 테스트 to 회기 방지\n(4장)--><g id="link_통합 테스트_회기 방지\n(4장)"><path d="M335.143,98.38 C330.873,113.132 324.362,134.975 318,153.791 C305.388,191.094 303.235,200.916 287,236.791 C275.698,261.765 260.919,289.071 249.528,309.215 " fill="none" id="통합 테스트-to-회기 방지\n(4장)" style="stroke:#181818;stroke-width:1.0;"/><polygon fill="#181818" points="247.004,313.659,254.9279,307.81,249.4741,309.3117,247.9723,303.8579,247.004,313.659" style="stroke:#181818;stroke-width:1.0;"/><text fill="#000000" font-family="sans-serif" font-size="13" lengthAdjust="spacing" textLength="39" x="309" y="214.8579">극대화</text></g><!--MD5=[d37fbf688b8d160eae40cff592ee7178]
link 통합 테스트 to 리팩터링 내성\n(4장)--><g id="link_통합 테스트_리팩터링 내성\n(4장)"><path d="M387.433,80.291 C409.043,80.291 434.852,80.291 457.726,80.291 " fill="none" id="통합 테스트-to-리팩터링 내성\n(4장)" style="stroke:#181818;stroke-width:1.0;"/><polygon fill="#181818" points="462.863,80.291,453.863,76.291,457.863,80.291,453.863,84.291,462.863,80.291" style="stroke:#181818;stroke-width:1.0;"/><text fill="#000000" font-family="sans-serif" font-size="13" lengthAdjust="spacing" textLength="39" x="405.5" y="73.3579">극대화</text></g><!--MD5=[d1d99b89dcd5aef6081545b59f162a90]
link 통합 테스트 to 컨트롤러\n(4장)--><g id="link_통합 테스트_컨트롤러\n(4장)"><path d="M321.873,98.725 C311.086,109.387 297.338,123.491 286,136.791 C274.466,150.321 262.566,166.073 252.882,179.431 " fill="none" id="통합 테스트-to-컨트롤러\n(4장)" style="stroke:#181818;stroke-width:1.0;"/><polygon fill="#181818" points="249.951,183.495,258.4612,178.5376,252.8769,179.4405,251.974,173.8561,249.951,183.495" style="stroke:#181818;stroke-width:1.0;"/><text fill="#000000" font-family="sans-serif" font-size="13" lengthAdjust="spacing" textLength="26" x="287" y="149.8579">처리</text></g><!--MD5=[0e8f6acc47fb2eefdcb948c61629eeea]
reverse link 리팩터링 내성\n(4장) to 목\n(5장)--><g id="link_리팩터링 내성\n(4장)_목\n(5장)"><path d="M506.773,111.735 C499.396,133.692 489.552,162.998 482.583,183.74 " fill="none" id="리팩터링 내성\n(4장)-backto-목\n(5장)" style="stroke:#181818;stroke-width:1.0;"/><polygon fill="#181818" points="508.402,106.886,501.7435,114.143,506.8093,111.6255,509.3268,116.6913,508.402,106.886" style="stroke:#181818;stroke-width:1.0;"/><text fill="#000000" font-family="sans-serif" font-size="13" lengthAdjust="spacing" textLength="125" x="499" y="149.8579">잘못 사용하면 떨어짐</text></g><!--MD5=[3616290e868f8b53bb2dced4e05be23a]
reverse link 통합 테스트 to 목\n(5장)--><g id="link_통합 테스트_목\n(5장)"><path d="M361.703,102.022 C385.095,124.367 422.34,159.945 447.458,183.938 " fill="none" id="통합 테스트-backto-목\n(5장)" style="stroke:#181818;stroke-width:1.0;"/><polygon fill="#181818" points="358.072,98.554,361.8183,107.6625,361.688,102.0072,367.3434,101.8769,358.072,98.554" style="stroke:#181818;stroke-width:1.0;"/><text fill="#000000" font-family="sans-serif" font-size="13" lengthAdjust="spacing" textLength="26" x="416" y="149.8579">사용</text></g><!--MD5=[024726cab77058e434fa05203151d252]
link 목\n(5장) to 관리 의존성\n(8장)--><g id="link_목\n(5장)_관리 의존성\n(8장)"><path d="M447.176,227.139 C433.381,236.783 417.68,250.399 409,266.791 C402.304,279.437 399.96,295.045 399.432,308.536 " fill="none" id="목\n(5장)-to-관리 의존성\n(8장)" style="stroke:#181818;stroke-width:1.0;"/><polygon fill="#181818" points="399.311,313.784,403.5156,304.8778,399.4253,308.7853,395.5177,304.6949,399.311,313.784" style="stroke:#181818;stroke-width:1.0;"/><text fill="#000000" font-family="sans-serif" font-size="13" lengthAdjust="spacing" textLength="82" x="410" y="279.8579">사용하면 안됨</text></g><!--MD5=[6c5e5cadac16c381a4714dd39b011199]
link 목\n(5장) to 비관리 의존성\n(8장)--><g id="link_목\n(5장)_비관리 의존성\n(8장)"><path d="M486.598,236.886 C496.856,257.728 511.358,287.193 522.175,309.17 " fill="none" id="목\n(5장)-to-비관리 의존성\n(8장)" style="stroke:#181818;stroke-width:1.0;"/><polygon fill="#181818" points="524.424,313.74,524.0371,303.8987,522.2154,309.2542,516.8599,307.4325,524.424,313.74" style="stroke:#181818;stroke-width:1.0;"/><text fill="#000000" font-family="sans-serif" font-size="13" lengthAdjust="spacing" textLength="69" x="510" y="279.8579">사용해야 함</text></g><!--MD5=[6fc1f352044870796f23de9d698e6e5b]
link 비관리 의존성\n(8장) to 프로세스 외부 의존성\n(2장)--><g id="link_비관리 의존성\n(8장)_프로세스 외부 의존성\n(2장)"><path d="M525.002,366.886 C515.233,387.728 501.421,417.193 491.119,439.17 " fill="none" id="비관리 의존성\n(8장)-to-프로세스 외부 의존성\n(2장)" style="stroke:#181818;stroke-width:1.0;"/><polygon fill="#181818" points="488.977,443.74,496.4196,437.2896,491.0998,439.213,489.1764,433.8932,488.977,443.74" style="stroke:#181818;stroke-width:1.0;"/><text fill="#000000" font-family="sans-serif" font-size="13" lengthAdjust="spacing" textLength="26" x="511" y="409.8579">같음</text></g><!--MD5=[6c4c4fe80c8d91073d38016497087884]
link 관리 의존성\n(8장) to 프로세스 외부 의존성\n(2장)--><g id="link_관리 의존성\n(8장)_프로세스 외부 의존성\n(2장)"><path d="M416.197,366.886 C428.572,387.728 446.067,417.193 459.116,439.17 " fill="none" id="관리 의존성\n(8장)-to-프로세스 외부 의존성\n(2장)" style="stroke:#181818;stroke-width:1.0;"/><polygon fill="#181818" points="461.829,443.74,460.675,433.959,459.2769,439.4404,453.7956,438.0423,461.829,443.74" style="stroke:#181818;stroke-width:1.0;"/><text fill="#000000" font-family="sans-serif" font-size="13" lengthAdjust="spacing" textLength="26" x="444" y="409.8579">같음</text></g><!--MD5=[a3bec347da9abce1cdbeda57071c9455]
link 프로세스 외부 의존성\n(2장) to 협력자\n(2장)--><g id="link_프로세스 외부 의존성\n(2장)_협력자\n(2장)"><path d="M501.995,496.886 C522.604,517.99 551.847,547.9345 573.39,569.9942 " fill="none" id="프로세스 외부 의존성\n(2장)-to-협력자\n(2장)" style="stroke:#181818;stroke-width:1.0;"/><polygon fill="#181818" points="577.048,573.7403,573.6217,564.5066,573.5546,570.1631,567.8982,570.096,577.048,573.7403" style="stroke:#181818;stroke-width:1.0;"/><text fill="#000000" font-family="sans-serif" font-size="13" lengthAdjust="spacing" textLength="26" x="547" y="539.8579">같음</text></g><!--MD5=[82e3440eef69ca922845fb2ff22be3dd]
link 컨트롤러\n(7장) to 협력자\n(2장)--><g id="link_컨트롤러\n(7장)_협력자\n(2장)"><path d="M508.18,600.291 C526.121,600.291 547.419,600.291 565.184,600.291 " fill="none" id="컨트롤러\n(7장)-to-협력자\n(2장)" style="stroke:#181818;stroke-width:1.0;"/><polygon fill="#181818" points="570.577,600.291,561.577,596.291,565.577,600.291,561.577,604.291,570.577,600.291" style="stroke:#181818;stroke-width:1.0;"/><text fill="#000000" font-family="sans-serif" font-size="13" lengthAdjust="spacing" textLength="26" x="526.5" y="593.3579">많음</text></g><!--MD5=[a91b96192de48c2817a3ff5672d8ea6c]
link 프로세스 내부 의존성\n(2장) to 협력자\n(2장)--><g id="link_프로세스 내부 의존성\n(2장)_협력자\n(2장)"><path d="M653.202,496.886 C642.781,517.728 628.049,547.1934 617.06,569.1702 " fill="none" id="프로세스 내부 의존성\n(2장)-to-협력자\n(2장)" style="stroke:#181818;stroke-width:1.0;"/><polygon fill="#181818" points="614.775,573.7403,622.3773,567.4789,617.0108,569.268,615.2217,563.9016,614.775,573.7403" style="stroke:#181818;stroke-width:1.0;"/><text fill="#000000" font-family="sans-serif" font-size="13" lengthAdjust="spacing" textLength="26" x="638" y="539.8579">같음</text></g><!--MD5=[e3b7ffbc45593510f2bddf50b71c9290]
@startuml
skinparam componentStyle rectangle

[테스트 정확도\n(4장)]- ->[거짓 음성\n(4장)] : 정의
[테스트 정확도\n(4장)]-r->[거짓 양성\n(4장)] : 정의

[거짓 음성\n(4장)]- ->[회기 방지\n(4장)] : 해결

[거짓 양성\n(4장)]-r->[리팩터링 내성\n(4장)] : 해결

[통합 테스트]- ->[회기 방지\n(4장)] : 극대화
[통합 테스트]->[리팩터링 내성\n(4장)] : 극대화
[통합 테스트]- ->[컨트롤러\n(4장)] : 처리

[목\n(5장)]-u->[리팩터링 내성\n(4장)] : 잘못 사용하면 떨어짐
[목\n(5장)]-u->[통합 테스트] : 사용
[목\n(5장)]-d->[관리 의존성\n(8장)] : 사용하면 안됨
[목\n(5장)]-d->[비관리 의존성\n(8장)] : 사용해야 함

[비관리 의존성\n(8장)]- ->[프로세스 외부 의존성\n(2장)] : 같음
[관리 의존성\n(8장)]- ->[프로세스 외부 의존성\n(2장)] : 같음


[프로세스 외부 의존성\n(2장)]- ->[협력자\n(2장)] : 같음

[컨트롤러\n(7장)]->[협력자\n(2장)] : 많음
[프로세스 내부 의존성\n(2장)]- ->[협력자\n(2장)] : 같음
@enduml

PlantUML version 1.2022.3beta1(Unknown compile time)
(GPL source distribution)
Java Runtime: Java(TM) SE Runtime Environment
JVM: Java HotSpot(TM) 64-Bit Server VM
Default Encoding: UTF-8
Language: en
Country: US
--></g></svg>