<?xml version="1.0" encoding="UTF-8" standalone="no"?><svg xmlns="http://www.w3.org/2000/svg" xmlns:xlink="http://www.w3.org/1999/xlink" contentStyleType="text/css" height="251px" preserveAspectRatio="none" style="width:147px;height:251px;background:#FFFFFF;" version="1.1" viewBox="0 0 147 251" width="147px" zoomAndPan="magnify"><defs/><g><!--class Executable--><g id="elem_Executable"><rect codeLine="1" fill="#F1F1F1" height="80.5938" id="Executable" rx="2.5" ry="2.5" style="stroke:#181818;stroke-width:0.5;" width="133" x="7" y="7"/><ellipse cx="31.45" cy="23" fill="#ADD1B2" rx="11" ry="11" style="stroke:#181818;stroke-width:1.0;"/><path d="M33.7938,18.6719 C32.8563,18.2344 32.2625,18.0938 31.3875,18.0938 C28.7625,18.0938 26.7625,20.1719 26.7625,22.8906 L26.7625,24.0156 C26.7625,26.5938 28.8719,28.4844 31.7625,28.4844 C32.9813,28.4844 34.1375,28.1875 34.8875,27.6406 C35.4656,27.2344 35.7938,26.7813 35.7938,26.3906 C35.7938,25.9375 35.4031,25.5469 34.9344,25.5469 C34.7156,25.5469 34.5125,25.625 34.325,25.8125 C33.8719,26.2969 33.8719,26.2969 33.6844,26.3906 C33.2625,26.6563 32.575,26.7813 31.8094,26.7813 C29.7625,26.7813 28.4656,25.6875 28.4656,23.9844 L28.4656,22.8906 C28.4656,21.1094 29.7156,19.7969 31.45,19.7969 C32.0281,19.7969 32.6375,19.9531 33.1063,20.2031 C33.5906,20.4844 33.7625,20.7031 33.8563,21.1094 C33.9188,21.5156 33.95,21.6406 34.0906,21.7656 C34.2313,21.9063 34.4656,22.0156 34.6844,22.0156 C34.95,22.0156 35.2156,21.875 35.3875,21.6563 C35.4969,21.5 35.5281,21.3125 35.5281,20.8906 L35.5281,19.4688 C35.5281,19.0313 35.5125,18.9063 35.4188,18.75 C35.2625,18.4844 34.9813,18.3438 34.6844,18.3438 C34.3875,18.3438 34.1844,18.4375 33.9656,18.75 L33.7938,18.6719 Z " fill="#000000"/><text fill="#000000" font-family="sans-serif" font-size="14" lengthAdjust="spacing" textLength="80" x="47.55" y="27.8467">Executable</text><line style="stroke:#181818;stroke-width:0.5;" x1="8" x2="139" y1="39" y2="39"/><rect fill="none" height="6" style="stroke:#C82930;stroke-width:1.0;" width="6" x="15" y="49.6484"/><text fill="#000000" font-family="sans-serif" font-size="14" lengthAdjust="spacing" textLength="107" x="27" y="55.9951">char* lib_name</text><line style="stroke:#181818;stroke-width:0.5;" x1="8" x2="139" y1="63.2969" y2="63.2969"/><ellipse cx="18" cy="76.9453" fill="#84BE84" rx="3" ry="3" style="stroke:#038048;stroke-width:1.0;"/><text fill="#000000" font-family="sans-serif" font-size="14" lengthAdjust="spacing" textLength="45" x="27" y="80.292">main()</text></g><!--class Library--><g id="elem_Library"><rect codeLine="6" fill="#F1F1F1" height="96.8906" id="Library" rx="2.5" ry="2.5" style="stroke:#181818;stroke-width:0.5;" width="86" x="30.5" y="148"/><ellipse cx="47.3" cy="164" fill="#ADD1B2" rx="11" ry="11" style="stroke:#181818;stroke-width:1.0;"/><path d="M49.6438,159.6719 C48.7063,159.2344 48.1125,159.0938 47.2375,159.0938 C44.6125,159.0938 42.6125,161.1719 42.6125,163.8906 L42.6125,165.0156 C42.6125,167.5938 44.7219,169.4844 47.6125,169.4844 C48.8313,169.4844 49.9875,169.1875 50.7375,168.6406 C51.3156,168.2344 51.6438,167.7813 51.6438,167.3906 C51.6438,166.9375 51.2531,166.5469 50.7844,166.5469 C50.5656,166.5469 50.3625,166.625 50.175,166.8125 C49.7219,167.2969 49.7219,167.2969 49.5344,167.3906 C49.1125,167.6563 48.425,167.7813 47.6594,167.7813 C45.6125,167.7813 44.3156,166.6875 44.3156,164.9844 L44.3156,163.8906 C44.3156,162.1094 45.5656,160.7969 47.3,160.7969 C47.8781,160.7969 48.4875,160.9531 48.9563,161.2031 C49.4406,161.4844 49.6125,161.7031 49.7063,162.1094 C49.7688,162.5156 49.8,162.6406 49.9406,162.7656 C50.0813,162.9063 50.3156,163.0156 50.5344,163.0156 C50.8,163.0156 51.0656,162.875 51.2375,162.6563 C51.3469,162.5 51.3781,162.3125 51.3781,161.8906 L51.3781,160.4688 C51.3781,160.0313 51.3625,159.9063 51.2688,159.75 C51.1125,159.4844 50.8313,159.3438 50.5344,159.3438 C50.2375,159.3438 50.0344,159.4375 49.8156,159.75 L49.6438,159.6719 Z " fill="#000000"/><text fill="#000000" font-family="sans-serif" font-size="14" lengthAdjust="spacing" textLength="50" x="61.7" y="168.8467">Library</text><line style="stroke:#181818;stroke-width:0.5;" x1="31.5" x2="115.5" y1="180" y2="180"/><line style="stroke:#181818;stroke-width:0.5;" x1="31.5" x2="115.5" y1="188" y2="188"/><ellipse cx="41.5" cy="201.6484" fill="#84BE84" rx="3" ry="3" style="stroke:#038048;stroke-width:1.0;"/><text fill="#000000" font-family="sans-serif" font-size="14" lengthAdjust="spacing" textLength="60" x="50.5" y="204.9951">dlopen()</text><ellipse cx="41.5" cy="217.9453" fill="#84BE84" rx="3" ry="3" style="stroke:#038048;stroke-width:1.0;"/><text fill="#000000" font-family="sans-serif" font-size="14" lengthAdjust="spacing" textLength="60" x="50.5" y="221.292">dlclose()</text><ellipse cx="41.5" cy="234.2422" fill="#84BE84" rx="3" ry="3" style="stroke:#038048;stroke-width:1.0;"/><text fill="#000000" font-family="sans-serif" font-size="14" lengthAdjust="spacing" textLength="59" x="50.5" y="237.5889">dlerror()</text></g><!--link Executable to Library--><g id="link_Executable_Library"><path codeLine="12" d="M73.5,88.28 C73.5,105.068 73.5,124.852 73.5,142.826 " fill="none" id="Executable-to-Library" style="stroke:#181818;stroke-width:1.0;"/><polygon fill="#181818" points="73.5,147.8431,77.5,138.8431,73.5,142.8431,69.5,138.8431,73.5,147.8431" style="stroke:#181818;stroke-width:1.0;"/></g><!--SRC=[Syv9B2vMK7AjI4qkBKbCoabLKgZcqatEI2pIKiZ9J8hFIynDvTBEJSpCqz3agkNYSeQezybCAaeigWGfrax9oIz81Ka3MSav-SMf46PgKL5-4KGJmdG51LrTEmK5g7O0]--></g></svg>