<?xml version="1.0" encoding="UTF-8" standalone="no"?><svg xmlns="http://www.w3.org/2000/svg" xmlns:xlink="http://www.w3.org/1999/xlink" contentScriptType="application/ecmascript" contentStyleType="text/css" height="338px" preserveAspectRatio="none" style="width:384px;height:338px;background:#FFFFFF;" version="1.1" viewBox="0 0 384 338" width="384px" zoomAndPan="magnify"><defs><filter height="300%" id="f1nwd5gfvwhd0s" width="300%" x="-1" y="-1"><feGaussianBlur result="blurOut" stdDeviation="2.0"/><feColorMatrix in="blurOut" result="blurOut2" type="matrix" values="0 0 0 0 0 0 0 0 0 0 0 0 0 0 0 0 0 0 .4 0"/><feOffset dx="4.0" dy="4.0" in="blurOut2" result="blurOut3"/><feBlend in="SourceGraphic" in2="blurOut3" mode="normal"/></filter></defs><g><line style="stroke:#A80036;stroke-width:1.0;stroke-dasharray:5.0,5.0;" x1="25" x2="25" y1="88.2969" y2="253.9609"/><line style="stroke:#A80036;stroke-width:1.0;stroke-dasharray:5.0,5.0;" x1="130" x2="130" y1="88.2969" y2="253.9609"/><line style="stroke:#A80036;stroke-width:1.0;stroke-dasharray:5.0,5.0;" x1="185" x2="185" y1="88.2969" y2="253.9609"/><line style="stroke:#A80036;stroke-width:1.0;stroke-dasharray:5.0,5.0;" x1="236" x2="236" y1="88.2969" y2="253.9609"/><line style="stroke:#A80036;stroke-width:1.0;stroke-dasharray:5.0,5.0;" x1="286" x2="286" y1="88.2969" y2="253.9609"/><line style="stroke:#A80036;stroke-width:1.0;stroke-dasharray:5.0,5.0;" x1="345" x2="345" y1="88.2969" y2="253.9609"/><text fill="#000000" font-family="sans-serif" font-size="14" lengthAdjust="spacing" textLength="35" x="5" y="84.9951">Foo1</text><ellipse cx="25.5" cy="15" fill="#FEFECE" filter="url(#f1nwd5gfvwhd0s)" rx="8" ry="8" style="stroke:#A80036;stroke-width:2.0;"/><path d="M25.5,23 L25.5,50 M12.5,31 L38.5,31 M25.5,50 L12.5,65 M25.5,50 L38.5,65 " fill="none" filter="url(#f1nwd5gfvwhd0s)" style="stroke:#A80036;stroke-width:2.0;"/><text fill="#000000" font-family="sans-serif" font-size="14" lengthAdjust="spacing" textLength="35" x="5" y="265.9561">Foo1</text><ellipse cx="25.5" cy="279.2578" fill="#FEFECE" filter="url(#f1nwd5gfvwhd0s)" rx="8" ry="8" style="stroke:#A80036;stroke-width:2.0;"/><path d="M25.5,287.2578 L25.5,314.2578 M12.5,295.2578 L38.5,295.2578 M25.5,314.2578 L12.5,329.2578 M25.5,314.2578 L38.5,329.2578 " fill="none" filter="url(#f1nwd5gfvwhd0s)" style="stroke:#A80036;stroke-width:2.0;"/><text fill="#000000" font-family="sans-serif" font-size="14" lengthAdjust="spacing" textLength="34" x="110.5" y="84.9951">Foo2</text><path d="M110,44 L110,68 M110,56 L127,56 " fill="none" filter="url(#f1nwd5gfvwhd0s)" style="stroke:#A80036;stroke-width:2.0;"/><ellipse cx="139" cy="56" fill="#FEFECE" filter="url(#f1nwd5gfvwhd0s)" rx="12" ry="12" style="stroke:#A80036;stroke-width:2.0;"/><text fill="#000000" font-family="sans-serif" font-size="14" lengthAdjust="spacing" textLength="34" x="110.5" y="265.9561">Foo2</text><path d="M110,273.2578 L110,297.2578 M110,285.2578 L127,285.2578 " fill="none" filter="url(#f1nwd5gfvwhd0s)" style="stroke:#A80036;stroke-width:2.0;"/><ellipse cx="139" cy="285.2578" fill="#FEFECE" filter="url(#f1nwd5gfvwhd0s)" rx="12" ry="12" style="stroke:#A80036;stroke-width:2.0;"/><text fill="#000000" font-family="sans-serif" font-size="14" lengthAdjust="spacing" textLength="35" x="165" y="84.9951">Foo3</text><ellipse cx="185.5" cy="56" fill="#FEFECE" filter="url(#f1nwd5gfvwhd0s)" rx="12" ry="12" style="stroke:#A80036;stroke-width:2.0;"/><polygon fill="#A80036" points="181.5,44,187.5,39,185.5,44,187.5,49,181.5,44" style="stroke:#A80036;stroke-width:1.0;"/><text fill="#000000" font-family="sans-serif" font-size="14" lengthAdjust="spacing" textLength="35" x="165" y="265.9561">Foo3</text><ellipse cx="185.5" cy="285.2578" fill="#FEFECE" filter="url(#f1nwd5gfvwhd0s)" rx="12" ry="12" style="stroke:#A80036;stroke-width:2.0;"/><polygon fill="#A80036" points="181.5,273.2578,187.5,268.2578,185.5,273.2578,187.5,278.2578,181.5,273.2578" style="stroke:#A80036;stroke-width:1.0;"/><text fill="#000000" font-family="sans-serif" font-size="14" lengthAdjust="spacing" textLength="34" x="216" y="84.9951">Foo4</text><ellipse cx="236" cy="56" fill="#FEFECE" filter="url(#f1nwd5gfvwhd0s)" rx="12" ry="12" style="stroke:#A80036;stroke-width:2.0;"/><line style="stroke:#A80036;stroke-width:2.0;" x1="224" x2="248" y1="70" y2="70"/><text fill="#000000" font-family="sans-serif" font-size="14" lengthAdjust="spacing" textLength="34" x="216" y="265.9561">Foo4</text><ellipse cx="236" cy="285.2578" fill="#FEFECE" filter="url(#f1nwd5gfvwhd0s)" rx="12" ry="12" style="stroke:#A80036;stroke-width:2.0;"/><line style="stroke:#A80036;stroke-width:2.0;" x1="224" x2="248" y1="299.2578" y2="299.2578"/><text fill="#000000" font-family="sans-serif" font-size="14" lengthAdjust="spacing" textLength="35" x="266" y="84.9951">Foo5</text><path d="M268.5,36 C268.5,26 286.5,26 286.5,26 C286.5,26 304.5,26 304.5,36 L304.5,62 C304.5,72 286.5,72 286.5,72 C286.5,72 268.5,72 268.5,62 L268.5,36 " fill="#FEFECE" filter="url(#f1nwd5gfvwhd0s)" style="stroke:#000000;stroke-width:1.5;"/><path d="M268.5,36 C268.5,46 286.5,46 286.5,46 C286.5,46 304.5,46 304.5,36 " fill="none" style="stroke:#000000;stroke-width:1.5;"/><text fill="#000000" font-family="sans-serif" font-size="14" lengthAdjust="spacing" textLength="35" x="266" y="265.9561">Foo5</text><path d="M268.5,279.2578 C268.5,269.2578 286.5,269.2578 286.5,269.2578 C286.5,269.2578 304.5,269.2578 304.5,279.2578 L304.5,305.2578 C304.5,315.2578 286.5,315.2578 286.5,315.2578 C286.5,315.2578 268.5,315.2578 268.5,305.2578 L268.5,279.2578 " fill="#FEFECE" filter="url(#f1nwd5gfvwhd0s)" style="stroke:#000000;stroke-width:1.5;"/><path d="M268.5,279.2578 C268.5,289.2578 286.5,289.2578 286.5,289.2578 C286.5,289.2578 304.5,289.2578 304.5,279.2578 " fill="none" style="stroke:#000000;stroke-width:1.5;"/><rect fill="#FEFECE" filter="url(#f1nwd5gfvwhd0s)" height="30.2969" style="stroke:#A80036;stroke-width:1.5;" width="49" x="321" y="49"/><rect fill="#FEFECE" filter="url(#f1nwd5gfvwhd0s)" height="30.2969" style="stroke:#A80036;stroke-width:1.5;" width="49" x="317" y="53"/><text fill="#000000" font-family="sans-serif" font-size="14" lengthAdjust="spacing" textLength="35" x="324" y="72.9951">Foo6</text><rect fill="#FEFECE" filter="url(#f1nwd5gfvwhd0s)" height="30.2969" style="stroke:#A80036;stroke-width:1.5;" width="49" x="321" y="252.9609"/><rect fill="#FEFECE" filter="url(#f1nwd5gfvwhd0s)" height="30.2969" style="stroke:#A80036;stroke-width:1.5;" width="49" x="317" y="256.9609"/><text fill="#000000" font-family="sans-serif" font-size="14" lengthAdjust="spacing" textLength="35" x="324" y="276.9561">Foo6</text><polygon fill="#A80036" points="118.5,115.4297,128.5,119.4297,118.5,123.4297,122.5,119.4297" style="stroke:#A80036;stroke-width:1.0;"/><line style="stroke:#A80036;stroke-width:1.0;" x1="25.5" x2="124.5" y1="119.4297" y2="119.4297"/><text fill="#000000" font-family="sans-serif" font-size="13" lengthAdjust="spacing" textLength="81" x="32.5" y="114.3638">To boundary</text><polygon fill="#A80036" points="173.5,144.5625,183.5,148.5625,173.5,152.5625,177.5,148.5625" style="stroke:#A80036;stroke-width:1.0;"/><line style="stroke:#A80036;stroke-width:1.0;" x1="25.5" x2="179.5" y1="148.5625" y2="148.5625"/><text fill="#000000" font-family="sans-serif" font-size="13" lengthAdjust="spacing" textLength="64" x="32.5" y="143.4966">To control</text><polygon fill="#A80036" points="224,173.6953,234,177.6953,224,181.6953,228,177.6953" style="stroke:#A80036;stroke-width:1.0;"/><line style="stroke:#A80036;stroke-width:1.0;" x1="25.5" x2="230" y1="177.6953" y2="177.6953"/><text fill="#000000" font-family="sans-serif" font-size="13" lengthAdjust="spacing" textLength="57" x="32.5" y="172.6294">To entity</text><polygon fill="#A80036" points="274.5,202.8281,284.5,206.8281,274.5,210.8281,278.5,206.8281" style="stroke:#A80036;stroke-width:1.0;"/><line style="stroke:#A80036;stroke-width:1.0;" x1="25.5" x2="280.5" y1="206.8281" y2="206.8281"/><text fill="#000000" font-family="sans-serif" font-size="13" lengthAdjust="spacing" textLength="80" x="32.5" y="201.7622">To database</text><polygon fill="#A80036" points="333.5,231.9609,343.5,235.9609,333.5,239.9609,337.5,235.9609" style="stroke:#A80036;stroke-width:1.0;"/><line style="stroke:#A80036;stroke-width:1.0;" x1="25.5" x2="339.5" y1="235.9609" y2="235.9609"/><text fill="#000000" font-family="sans-serif" font-size="13" lengthAdjust="spacing" textLength="87" x="32.5" y="230.895">To collections</text><!--MD5=[97ca4f0c3bbe9cb86d35b7af5d059944]
@startuml
actor Foo1
boundary Foo2
control Foo3
entity Foo4
database Foo5
collections Foo6
Foo1 -> Foo2 : To boundary
Foo1 -> Foo3 : To control
Foo1 -> Foo4 : To entity
Foo1 -> Foo5 : To database
Foo1 -> Foo6 : To collections
@enduml

PlantUML version 1.2021.13beta3(Unknown compile time)
(GPL source distribution)
Java Runtime: Java(TM) SE Runtime Environment
JVM: Java HotSpot(TM) 64-Bit Server VM
Default Encoding: UTF-8
Language: en
Country: US
--></g></svg>